<svg width="160" height="63" fill="none" xmlns="http://www.w3.org/2000/svg"><g clip-path="url(#clip0)"><path d="M0 61.467V16.86C0 10.337 5.559 5.413 11.898 5.413c6.241 0 11.962 5.087 11.962 11.51v44.512h-6.24V41.772H6.144v19.663H0v.032zm17.619-45.032c0-3.098-2.893-4.924-5.721-4.924-2.829 0-5.754 1.826-5.754 4.924v19.5h11.475v-19.5zm22.462 10.924c-3.088 0-5.656 2.185-5.656 5.348V61.37h-6.241V32.544c0-6.685 5.59-11.283 11.962-11.283 1.17 0 2.34.098 3.511.424v6.26c-1.17-.423-2.34-.586-3.576-.586zM58.87 62.022c-6.143 0-12.06-4.598-12.06-11.022V11.707h6.242l-.065 10.532h6.891v5.935h-6.826l-.065 22.76c0 3.099 3.153 5.186 5.98 5.186 1.171 0 2.406-.163 3.577-.424v5.934c-1.17.327-2.406.392-3.674.392zm9.07-.652V28.108h-4.584v-5.935h10.728v39.195H67.94zm48.11-12.163h-5.493v1.728c0 3.098 2.893 5.25 5.818 5.25 2.341 0 6.144-1.174 8.42-1.924.162 1.989.422 4.01.682 6-2.99 1.272-5.916 1.76-9.167 1.76-6.241 0-12.06-4.76-12.06-11.25V32.936c0-6.522 5.819-11.674 12.158-11.674 7.997 0 12.158 5.837 12.158 13.174-.065 7.435-4.389 14.772-12.516 14.772zm.228-22.272c-3.056 0-5.721 2.576-5.721 5.674v10.598h5.656c4.486 0 6.144-4.99 6.144-8.772 0-3.685-1.658-7.5-6.079-7.5z" fill="#000"/><path d="M99.894 17.087v44.282H93.75V17.088h-8.06V11.74h22.267v5.38h-8.062v-.032z" fill="#000"/><path d="M69.565 0c-5.396 0-9.784 4.402-9.784 9.815 0 5.413 4.388 9.815 9.784 9.815 5.396 0 9.785-4.402 9.785-9.815C79.35 4.402 74.96 0 69.565 0z" fill="#0079BE"/><path d="M160 63l-6.111-6.554c1.17-1.761 1.853-3.816 1.853-6.033v-17.25c0-6.424-5.754-11.51-11.963-11.51-6.339 0-11.898 4.923-11.898 11.445V50.51c0 6.522 5.559 11.413 11.898 11.413 1.885 0 3.738-.49 5.396-1.304l2.211 2.38H160zm-16.189-7.174c-2.828 0-5.753-1.826-5.753-4.924V32.674c0-3.098 2.925-4.924 5.753-4.924 2.829 0 5.722 1.826 5.722 4.924v18.228c0 .261-.033.49-.098.75l-1.365-1.467h-8.615l5.202 5.576a8.006 8.006 0 01-.846.065z" fill="#000822"/></g><defs><clipPath id="clip0"><path fill="#fff" d="M0 0h160v63H0z"/></clipPath></defs></svg>