<svg width="14" height="14" fill="none" xmlns="http://www.w3.org/2000/svg"><path d="M13.438 6.305c0 .74-.115 1.416-.344 2.03-.23.616-.552 1.092-.969 1.43a2.214 2.214 0 01-1.438.508c-.447 0-.825-.135-1.132-.406a1.63 1.63 0 01-.547-1.039h-.063a2.466 2.466 0 01-.898 1.063c-.386.255-.844.382-1.375.382-.781 0-1.393-.265-1.836-.796-.438-.537-.656-1.263-.656-2.18 0-1.063.307-1.925.922-2.586.614-.667 1.421-1 2.421-1 .355 0 .756.034 1.204.102.447.062.851.15 1.21.265L9.742 7.75v.172c0 .927.346 1.39 1.04 1.39.473 0 .859-.278 1.155-.835.297-.563.446-1.292.446-2.188 0-.943-.193-1.768-.578-2.476a3.954 3.954 0 00-1.649-1.633c-.708-.386-1.523-.578-2.445-.578-1.162 0-2.172.242-3.031.726a4.769 4.769 0 00-1.97 2.063c-.452.89-.679 1.921-.679 3.093 0 1.589.42 2.81 1.258 3.664.839.855 2.047 1.282 3.625 1.282 1.094 0 2.23-.224 3.406-.672v1.039c-1 .437-2.135.656-3.406.656-1.89 0-3.36-.518-4.406-1.555C1.466 10.857.945 9.404.945 7.54c0-1.354.279-2.56.836-3.617A5.912 5.912 0 014.164 1.47C5.195.885 6.378.594 7.711.594c1.12 0 2.115.237 2.984.71a4.882 4.882 0 012.024 2.008c.479.865.719 1.862.719 2.993zm-8.08 1.023c0 1.323.508 1.984 1.524 1.984 1.078 0 1.664-.815 1.758-2.445l.109-2.039a4.571 4.571 0 00-1.227-.156c-.677 0-1.208.234-1.593.703-.38.469-.57 1.12-.57 1.953z" fill="#0079BE"/></svg>