<svg width="90" height="77" fill="none" xmlns="http://www.w3.org/2000/svg"><path fill-rule="evenodd" clip-rule="evenodd" d="M80 60.394H65.379L47 75.37 45 77V60.394H10c-5.523 0-10-4.477-10-10V10C0 4.477 4.477 0 10 0h70c5.523 0 10 4.477 10 10v40.394c0 5.523-4.477 10-10 10zm-15.884-1.55L47 72.79V58.394H10a8 8 0 01-8-8V10a8 8 0 018-8h70a8 8 0 018 8v40.394a8 8 0 01-8 8H64.667l-.551.45zM25.714 35.316a5.86 5.86 0 005.858-5.864 5.86 5.86 0 00-5.858-5.864 5.86 5.86 0 00-5.857 5.864 5.86 5.86 0 005.857 5.864zm3.858-5.864a3.86 3.86 0 01-3.858 3.864 3.86 3.86 0 01-3.857-3.864 3.86 3.86 0 013.857-3.864 3.86 3.86 0 013.858 3.864zm21.285 0A5.86 5.86 0 0145 35.317a5.86 5.86 0 01-5.857-5.864A5.86 5.86 0 0145 23.589a5.86 5.86 0 015.857 5.864zM45 33.317a3.86 3.86 0 003.857-3.864A3.86 3.86 0 0045 25.589a3.86 3.86 0 00-3.857 3.864A3.86 3.86 0 0045 33.317zm19.286 2a5.86 5.86 0 005.857-5.864 5.86 5.86 0 00-5.857-5.864 5.86 5.86 0 00-5.858 5.864 5.86 5.86 0 005.858 5.864zm3.857-5.864a3.86 3.86 0 01-3.857 3.864 3.86 3.86 0 01-3.858-3.864 3.86 3.86 0 013.858-3.864 3.86 3.86 0 013.857 3.864z" fill="#0079BE"/></svg>