<svg width="57" height="40" fill="none" xmlns="http://www.w3.org/2000/svg"><path d="M56.774 25.383l-6.419-9.919c-2.8-4.317-7.585-7.001-12.72-7.001h-3.967V3.795c0-1.984-1.517-3.5-3.5-3.5H4.495c-1.984 0-3.5 1.516-3.5 3.5v16.337c0 1.984 1.516 3.5 3.5 3.5h17.854c-1.517 3.502 2.217 7.002 5.718 5.135 1.284 2.801 4.901 3.268 6.768.934 4.435 5.835 7.352 7.002 13.42 10.035.583.234 1.284.117 1.517-.466 7.585-13.653 7.585-13.07 7.002-13.887zM3.328 7.296h28.006v3.5H3.328v-3.5zm1.167-4.668h25.672c.7 0 1.167.467 1.167 1.167v1.167H3.328V3.795c0-.583.467-1.167 1.167-1.167zM3.328 20.132V13.13h28.006v2.451l-1.05-.583c-3.967-2.334-8.752 2.1-6.301 6.418H4.495c-.7-.117-1.167-.584-1.167-1.284zm21.355 4.201l.467-.7c1.983 0 1.283-.233 3.384 1.05-.234.467-.234.467-.817 1.4-1.284 1.984-4.201.234-3.034-1.75zm5.601 1.984l.234-.467a12.564 12.564 0 012.8 2.1c-1.167 2.101-4.2.35-3.034-1.633zm18.088 10.969c-3.968-1.984-7.702-3.617-11.32-8.519-2.684-3.734-5.951-5.25-10.269-7.701-2.684-1.517-.35-5.602 2.334-4.085l8.986 5.252c1.283.816 2.45-1.284 1.167-1.984l-5.602-3.268v-6.068h4.084c4.435 0 8.402 2.217 10.736 5.952L54.44 26.2l-6.068 11.086z" fill="#333" opacity=".54"/></svg>