<svg width="35" height="30" fill="none" xmlns="http://www.w3.org/2000/svg"><path d="M3.449 29.075C1.149 27.577 0 25.903 0 24.053c0-.353.085-.793.255-1.322.256-2.29.98-4.978 2.172-8.061l.894-2.776a16.285 16.285 0 012.172-5.022C6.6 5.286 8.047 3.436 9.836 1.322c0-.177.127-.309.383-.397.256-.176.596-.308 1.022-.396A39.12 39.12 0 0112.9 0h1.15c.34 0 .639.088.894.264.256.088.554.309.894.661v.529c0 .793-.425 1.762-1.277 2.907-3.236 5.463-5.28 9.428-6.131 11.895 0 .352-.043.66-.128.925 1.448-.265 2.938.264 4.47 1.585 1.193 1.234 1.789 2.468 1.789 3.701 0 1.938-1.448 3.92-4.343 5.947C8.516 29.471 7.281 30 6.515 30c-.426 0-1.448-.308-3.066-.925zm19.16 0c-2.299-1.498-3.448-3.172-3.448-5.022 0-.353.085-.793.255-1.322.256-2.29.98-4.978 2.172-8.061l.894-2.776a16.283 16.283 0 012.171-5.022c1.107-1.586 2.555-3.436 4.343-5.55 0-.177.128-.309.384-.397.255-.176.596-.308 1.021-.396A37.83 37.83 0 0132.062 0h1.15c.34 0 .638.088.894.264.255.088.553.309.894.661v.529c0 .793-.426 1.762-1.277 2.907-3.236 5.463-5.28 9.428-6.132 11.895a3 3 0 01-.128.925c1.448-.265 2.938.264 4.471 1.585 1.192 1.234 1.789 2.468 1.789 3.701 0 1.938-1.448 3.92-4.343 5.947C27.762 29.471 26.527 30 25.675 30c-.426 0-1.448-.308-3.066-.925z" fill="#0079BE"/></svg>