<svg width="184" height="36" fill="none" xmlns="http://www.w3.org/2000/svg"><path d="M1.164.775a.5.5 0 10-.805.593l.805-.593zm182.835.321a.5.5 0 00-.475-.524L179.03.35a.5.5 0 10-.049 1l3.995.196-.197 3.996a.5.5 0 10.998.049l.222-4.495zM.761 1.072c-.402.296-.402.297-.401.297v.002a2.256 2.256 0 00.077.101 34.913 34.913 0 001.127 1.367 59.22 59.22 0 003.661 3.83c3.288 3.165 8.3 7.378 15.208 11.59C34.253 26.682 55.652 35.09 86 35.09v-1c-30.153 0-51.373-8.351-65.047-16.687C14.114 13.236 9.16 9.07 5.92 5.95a58.224 58.224 0 01-3.6-3.766A33.941 33.941 0 011.23.864a9.183 9.183 0 01-.063-.085L1.164.775l-.403.297zM86 35.092c30.344 0 54.795-8.407 71.66-16.813 8.433-4.203 14.971-8.407 19.403-11.563a101.887 101.887 0 005.044-3.816c.569-.461.999-.824 1.288-1.073.145-.124.254-.22.328-.284l.083-.074.022-.02.005-.005.002-.001-.335-.371-.336-.37h-.001l-.004.004-.02.017a61.178 61.178 0 01-1.662 1.4 100.528 100.528 0 01-4.994 3.779c-4.396 3.13-10.889 7.305-19.269 11.482C140.455 25.737 116.156 34.09 86 34.09v1z" fill="#929292"/></svg>