<svg width="61" height="17" fill="none" xmlns="http://www.w3.org/2000/svg"><path d="M22.733 3.477h-3.364a.455.455 0 00-.304.117.496.496 0 00-.158.296l-1.361 9.034a.31.31 0 00.064.236.282.282 0 00.213.103h1.607a.452.452 0 00.303-.118.496.496 0 00.159-.296l.366-2.436a.496.496 0 01.158-.296.455.455 0 01.304-.118h1.065c2.216 0 3.495-1.123 3.83-3.349.15-.973.006-1.738-.43-2.274-.478-.588-1.326-.9-2.452-.9zm.388 3.3c-.184 1.263-1.106 1.263-1.998 1.263h-.508l.356-2.36a.297.297 0 01.095-.178.273.273 0 01.182-.07h.233c.607 0 1.18 0 1.477.362.176.217.23.538.163.982zm9.668-.042h-1.61a.273.273 0 00-.183.07.297.297 0 00-.095.178l-.07.472-.113-.171c-.35-.53-1.127-.707-1.903-.707-1.78 0-3.301 1.412-3.597 3.393-.154.988.065 1.932.6 2.591.49.606 1.193.858 2.029.858 1.434 0 2.23-.965 2.23-.965l-.072.468a.306.306 0 00.064.237.281.281 0 00.213.103h1.45c.112 0 .22-.041.305-.117a.496.496 0 00.158-.296l.87-5.775a.306.306 0 00-.063-.236.28.28 0 00-.213-.103zm-2.245 3.284c-.156.964-.886 1.61-1.818 1.61-.468 0-.842-.156-1.082-.454-.238-.296-.328-.717-.252-1.185.145-.956.887-1.624 1.805-1.624.457 0 .83.16 1.074.46.246.303.343.726.273 1.193zM41.37 6.735h-1.62a.453.453 0 00-.218.058.477.477 0 00-.168.157l-2.233 3.445-.947-3.31a.492.492 0 00-.169-.253.455.455 0 00-.28-.097h-1.59a.27.27 0 00-.129.033.285.285 0 00-.1.09.301.301 0 00-.037.266l1.783 5.48-1.677 2.478a.303.303 0 00.083.421.27.27 0 00.146.043h1.617c.076 0 .15-.019.217-.055a.475.475 0 00.167-.155l5.385-8.14a.303.303 0 00-.085-.418.27.27 0 00-.145-.043z" fill="#253B80"/><path d="M46.73 3.477h-3.365a.455.455 0 00-.303.117.495.495 0 00-.158.296l-1.361 9.034a.307.307 0 00.063.236.281.281 0 00.213.103h1.727c.078 0 .153-.03.212-.082a.347.347 0 00.11-.208l.387-2.56a.496.496 0 01.158-.296.455.455 0 01.303-.118h1.065c2.217 0 3.495-1.123 3.83-3.349.15-.973.006-1.738-.43-2.274-.477-.588-1.325-.9-2.451-.9zm.388 3.3C46.934 8.04 46.012 8.04 45.12 8.04h-.507l.356-2.36a.297.297 0 01.095-.178.272.272 0 01.182-.07h.232c.607 0 1.181 0 1.477.362.177.217.23.538.163.982zm9.668-.042h-1.61a.271.271 0 00-.182.07.296.296 0 00-.095.178l-.07.472-.114-.17c-.349-.531-1.126-.708-1.902-.708-1.78 0-3.3 1.412-3.597 3.393-.153.988.065 1.932.6 2.591.492.606 1.193.858 2.029.858 1.434 0 2.23-.965 2.23-.965l-.072.468a.307.307 0 00.064.237.28.28 0 00.214.103h1.45c.112 0 .22-.041.304-.117a.496.496 0 00.158-.296l.871-5.775a.308.308 0 00-.065-.236.283.283 0 00-.213-.103zM54.54 10.02c-.154.964-.886 1.61-1.817 1.61-.467 0-.842-.156-1.082-.454-.238-.296-.328-.717-.253-1.185.146-.956.888-1.624 1.805-1.624.458 0 .83.16 1.075.46.246.303.344.726.272 1.193zm4.145-6.295l-1.38 9.2a.307.307 0 00.063.236.282.282 0 00.213.103h1.388c.23 0 .427-.175.462-.414l1.362-9.033a.307.307 0 00-.064-.237.282.282 0 00-.213-.103h-1.554a.273.273 0 00-.182.07.298.298 0 00-.095.178z" fill="#179BD7"/><path d="M3.574 15.018l.258-1.712-.573-.013H.522L2.424.665a.165.165 0 01.052-.1.151.151 0 01.102-.038h4.615c1.531 0 2.589.333 3.14.992a2.3 2.3 0 01.504.988c.083.373.085.818.003 1.362l-.006.04v.348l.26.153c.197.105.374.247.523.419.221.264.365.6.425.998.063.41.042.897-.06 1.449-.118.634-.31 1.187-.567 1.64a3.321 3.321 0 01-.898 1.03c-.342.254-.75.447-1.21.57a5.77 5.77 0 01-1.51.184h-.36a1.06 1.06 0 00-.701.27 1.153 1.153 0 00-.366.684l-.027.154-.455 3.017-.02.11c-.006.035-.015.053-.03.065a.074.074 0 01-.046.018H3.574z" fill="#253B80"/><path d="M11.338 3.95c-.013.092-.03.186-.047.283-.609 3.272-2.69 4.402-5.35 4.402H4.589c-.325 0-.6.247-.65.583l-.693 4.604-.196 1.304a.379.379 0 00.078.293.35.35 0 00.264.127h2.4a.587.587 0 00.571-.51l.024-.128.452-3.004.03-.165a.586.586 0 01.57-.511h.359c2.326 0 4.147-.99 4.68-3.851.222-1.196.107-2.195-.482-2.897a2.313 2.313 0 00-.657-.53z" fill="#179BD7"/><path d="M10.702 3.684a4.618 4.618 0 00-.592-.138 7.187 7.187 0 00-1.194-.09H5.3a.561.561 0 00-.376.144.612.612 0 00-.195.366L3.96 9.07l-.022.15a.697.697 0 01.222-.42.64.64 0 01.428-.166h1.354c2.659 0 4.74-1.13 5.349-4.402a7.48 7.48 0 00.047-.283 3.161 3.161 0 00-.636-.266z" fill="#222D65"/><path d="M4.73 3.966a.61.61 0 01.194-.366.56.56 0 01.376-.144h3.616c.429 0 .829.029 1.194.09.247.041.49.102.728.183.18.062.347.136.5.22.182-1.208 0-2.032-.625-2.777C10.025.352 8.783 0 7.193 0H2.58a.67.67 0 00-.652.584L.005 13.34a.434.434 0 00.09.335.4.4 0 00.301.146h2.849l.715-4.753.77-5.103z" fill="#253B80"/></svg>