<svg width="91" height="72" fill="none" xmlns="http://www.w3.org/2000/svg"><g clip-path="url(#clip0)"><path fill-rule="evenodd" clip-rule="evenodd" d="M22.095 39.32l.739 1.109h.159l.53.393A5.964 5.964 0 0027.095 42c1.34 0 2.573-.437 3.571-1.178l.53-.393h.16l.738-1.109a5.963 5.963 0 001-3.32 5.96 5.96 0 00-1.001-3.32l-.738-1.108h-.16l-.53-.394A5.964 5.964 0 0027.095 30a5.958 5.958 0 00-3.571 1.178l-.531.393h-.16l-.737 1.11A5.962 5.962 0 0021.094 36c0 1.23.369 2.37 1.001 3.32zm-3.969-7.748h2.305A7.965 7.965 0 0019.094 36a7.963 7.963 0 001.337 4.428H6.929a4.429 4.429 0 110-8.856h11.197zm13.73-2h52.215a6.429 6.429 0 010 12.857H31.857A7.964 7.964 0 0127.094 44a7.964 7.964 0 01-4.762-1.571H6.929a6.429 6.429 0 110-12.858H22.33a7.964 7.964 0 014.763-1.57c1.784 0 3.432.583 4.763 1.57zm2.863 4a7.972 7.972 0 00-.961-2h50.314a4.429 4.429 0 110 8.857H33.757A7.967 7.967 0 0035.094 36c0-.847-.131-1.663-.375-2.428zm29.947-20.084l.739 1.108h.159l.53.394a5.964 5.964 0 003.571 1.178c1.34 0 2.573-.438 3.57-1.178l.532-.394h.159l.738-1.108a5.962 5.962 0 001.001-3.32c0-1.231-.369-2.37-1.001-3.32l-.738-1.109h-.16l-.53-.394a5.964 5.964 0 00-3.571-1.177c-1.34 0-2.573.437-3.57 1.177l-.531.394h-.16l-.738 1.109a5.962 5.962 0 00-1.001 3.32c0 1.23.369 2.37 1.001 3.32zm-3.969-7.749H6.93a4.429 4.429 0 000 8.857h56.073a7.965 7.965 0 01-1.337-4.428 7.965 7.965 0 011.337-4.429h-2.305zm13.73-2h9.644a6.429 6.429 0 110 12.857h-9.643a7.964 7.964 0 01-4.763 1.572 7.964 7.964 0 01-4.763-1.572H6.93a6.429 6.429 0 010-12.857h57.973a7.965 7.965 0 014.763-1.571c1.784 0 3.432.584 4.762 1.571zm2.863 4a7.972 7.972 0 00-.962-2h7.743a4.429 4.429 0 110 8.857H76.33a7.968 7.968 0 001.336-4.428 8.02 8.02 0 00-.375-2.429zM65.404 66.266l-.738-1.109a5.963 5.963 0 01-1.001-3.32c0-1.231.369-2.37 1.001-3.32l.739-1.108h.159l.53-.394a5.964 5.964 0 013.571-1.178c1.34 0 2.573.437 3.57 1.178l.531.394h.16l.738 1.108a5.962 5.962 0 011.001 3.32c0 1.231-.369 2.37-1.001 3.32l-.738 1.109h-.16l-.53.394a5.964 5.964 0 01-3.571 1.177 5.964 5.964 0 01-3.57-1.177l-.531-.394h-.16zM6.93 57.409h56.073a7.965 7.965 0 00-1.337 4.428 7.965 7.965 0 001.337 4.429H6.929a4.429 4.429 0 010-8.857zm69.4-2h-1.901a7.964 7.964 0 00-4.763-1.572 7.965 7.965 0 00-4.763 1.572H6.93a6.429 6.429 0 000 12.857h57.973a7.965 7.965 0 004.763 1.571 7.965 7.965 0 004.763-1.571h9.643a6.429 6.429 0 000-12.857H76.33zm0 2a7.968 7.968 0 011.336 4.428 7.968 7.968 0 01-1.337 4.429h7.743a4.429 4.429 0 100-8.857H76.33z" fill="#0079BE"/></g><defs><clipPath id="clip0"><path fill="#fff" transform="translate(.5)" d="M0 0h90v72H0z"/></clipPath></defs></svg>