<svg width="12" height="12" fill="none" xmlns="http://www.w3.org/2000/svg"><path d="M9.648 2.113A5.547 5.547 0 005.662.438C2.564.438.025 2.977.025 6.074c0 1.016.28 1.98.762 2.819L0 11.813l2.97-.762c.839.431 1.753.685 2.692.685 3.123 0 5.713-2.539 5.713-5.636 0-1.524-.66-2.92-1.727-3.987zm-3.986 8.659c-.838 0-1.65-.229-2.387-.66l-.152-.102-1.777.482.482-1.726-.127-.178a4.884 4.884 0 01-.71-2.514c0-2.564 2.107-4.672 4.697-4.672 1.244 0 2.412.483 3.3 1.371.889.89 1.422 2.057 1.422 3.327 0 2.564-2.158 4.671-4.748 4.671zm2.59-3.504a31.444 31.444 0 00-.965-.457c-.127-.051-.228-.077-.33.076-.076.127-.355.457-.432.558-.101.076-.177.102-.304.026-.838-.407-1.371-.737-1.93-1.676-.152-.254.152-.229.406-.762.051-.101.026-.178 0-.254-.025-.076-.33-.761-.431-1.04-.127-.28-.229-.255-.33-.255h-.254a.476.476 0 00-.381.178c-.127.152-.483.483-.483 1.168 0 .711.483 1.371.559 1.473.076.076.99 1.498 2.412 2.107.889.406 1.244.432 1.701.356.254-.026.813-.33.94-.66s.127-.61.076-.66c-.026-.077-.127-.102-.254-.178z" fill="#0079BE"/></svg>