<svg width="42" height="42" fill="none" xmlns="http://www.w3.org/2000/svg"><path fill-rule="evenodd" clip-rule="evenodd" d="M25.626 17.834c0 2.029-1.841 3.833-4.32 3.833-2.477 0-4.319-1.804-4.319-3.834 0-2.029 1.842-3.833 4.32-3.833s4.32 1.804 4.32 3.834zm-2.551 4.56c2.069-.663 3.551-2.454 3.551-4.56 0-2.67-2.381-4.834-5.32-4.834-2.937 0-5.319 2.164-5.319 4.834 0 2.102 1.478 3.891 3.541 4.556-1.925.5-3.316 1.766-4.257 2.994a12.111 12.111 0 00-1.699 3.09 5.189 5.189 0 00-.02.057l-.005.016-.002.005v.001l.475.156.476.155v-.002l.003-.01.016-.044a10.12 10.12 0 01.348-.83 11.1 11.1 0 011.202-1.986c1.105-1.443 2.796-2.825 5.241-2.825 2.435 0 3.96 1.37 4.902 2.796a9.675 9.675 0 011.257 2.843l.002.01.489-.107.488-.108v-.002l-.002-.005-.004-.017a4.499 4.499 0 00-.069-.264 10.672 10.672 0 00-1.326-2.9c-.819-1.24-2.088-2.514-3.968-3.02z" fill="#0079BE"/><circle cx="21" cy="21" r="20.5" stroke="#0079BE"/></svg>