<svg width="24" height="24" fill="none" xmlns="http://www.w3.org/2000/svg"><g clip-path="url(#clip0)"><path d="M3.844 7.145v13.848c0 .819.3 1.587.825 2.139A2.768 2.768 0 006.677 24h10.634a2.767 2.767 0 002.009-.868c.524-.552.824-1.32.824-2.139V7.145a2.147 2.147 0 00-.55-4.222h-2.879V2.22A2.208 2.208 0 0014.49 0H9.499a2.208 2.208 0 00-2.226 2.22v.703H4.395a2.147 2.147 0 00-.55 4.222zm13.467 15.73H6.677c-.96 0-1.708-.825-1.708-1.882V7.194H19.02v13.799c0 1.057-.748 1.883-1.709 1.883zM8.397 2.22A1.082 1.082 0 019.5 1.124h4.99a1.083 1.083 0 011.102 1.096v.703H8.397V2.22zM4.395 4.047h15.198a1.012 1.012 0 110 2.023H4.395a1.012 1.012 0 110-2.023z" fill="#0079BE"/></g><defs><clipPath id="clip0"><path fill="#fff" d="M0 0h24v24H0z"/></clipPath></defs></svg>