<svg width="34" height="40" fill="none" xmlns="http://www.w3.org/2000/svg"><path fill-rule="evenodd" clip-rule="evenodd" d="M16.584 1.976a.5.5 0 01.707 0l2.002 2.002a1.5 1.5 0 001.473.382l2.866-.82a.5.5 0 01.616.334l.802 2.608a1.5 1.5 0 001.022 1l3.022.864a.5.5 0 01.359.547l-.455 3.408a1.5 1.5 0 00.316 1.135l1.706 2.133a.5.5 0 01-.017.645l-1.631 1.835a1.5 1.5 0 00-.364 1.209l.439 3.07a.5.5 0 01-.348.548l-1.371.422-1.41.434a1.5 1.5 0 00-.96.895l-1.121 2.918a.5.5 0 01-.503.319l-3.246-.232a1.5 1.5 0 00-1.044.325l-2.194 1.756a.5.5 0 01-.625 0l-1.328-1.063-.802-.641a1.5 1.5 0 00-1.251-.296l-3.036.651a.5.5 0 01-.58-.33l-1.116-3.351a1.5 1.5 0 00-.982-.96l-2.475-.76-.001-.001-.682-.21.493-3.202a1.5 1.5 0 00-.311-1.165l-1.726-2.157a.5.5 0 010-.625l1.753-2.192a1.5 1.5 0 00.325-1.052L4.675 9.36a.5.5 0 01.275-.486l2.802-1.4a1.5 1.5 0 00.729-.804l1.095-2.846a.5.5 0 01.604-.301l2.93.837a1.5 1.5 0 001.472-.382l2.002-2.002zM4.76 23.918a.5.5 0 01.307.687l-4.14 8.971a1.5 1.5 0 001.441 2.127l3.744-.197a.5.5 0 01.43.203l2.115 2.886a1.5 1.5 0 002.571-.256l3.942-8.51.83.665a1.5 1.5 0 001.874 0l1.323-1.058 3.698 8.629c.482 1.125 2.035 1.23 2.665.18l1.48-2.466a.5.5 0 01.478-.24l3.9.39a1.5 1.5 0 001.517-2.108l-4.372-9.733.83-.256a1.5 1.5 0 001.043-1.646l-.438-3.07a.5.5 0 01.121-.402l1.632-1.836a1.5 1.5 0 00.05-1.934l-1.706-2.132a.5.5 0 01-.106-.379l.455-3.408a1.5 1.5 0 00-1.075-1.64l-3.023-.864a.5.5 0 01-.34-.334l-.803-2.607a1.5 1.5 0 00-1.845-1.001l-2.867.819A.5.5 0 0120 3.271l-2.002-2.002a1.5 1.5 0 00-2.121 0l-2.002 2.002a.5.5 0 01-.491.127l-2.93-.837a1.5 1.5 0 00-1.812.904L7.547 6.31a.5.5 0 01-.243.268L4.503 7.98a1.5 1.5 0 00-.825 1.457l.23 2.998a.5.5 0 01-.108.351l-1.753 2.192a1.5 1.5 0 000 1.874l1.726 2.158a.5.5 0 01.103.388l-.558 3.629-.065.427.412.127 1.095.337zm5.56 14l4.046-8.732-.496-.396a.5.5 0 00-.417-.099l-3.036.65a1.5 1.5 0 01-1.737-.992L7.563 25a.5.5 0 00-.327-.32l-1.124-.345c.01.23-.033.465-.137.69l-4.14 8.971a.5.5 0 00.48.709l3.744-.197a1.5 1.5 0 011.289.61l2.116 2.887a.5.5 0 00.857-.086zm13.494-.247l-3.807-8.883.062-.05a.5.5 0 01.348-.108l3.246.231a1.5 1.5 0 001.507-.957l1.122-2.918a.5.5 0 01.32-.298l.988-.304 4.423 9.847a.5.5 0 01-.506.702l-3.9-.39a1.5 1.5 0 00-1.435.721l-1.48 2.467a.5.5 0 01-.888-.06zm-1.532-24.206a.5.5 0 10-.689-.725l-5.925 5.63-3.72-3.149a.5.5 0 00-.646.764l4.062 3.437.343.29.325-.31 6.25-5.937z" fill="#0079BE"/></svg>