<svg width="57" height="17" fill="none" xmlns="http://www.w3.org/2000/svg"><path fill-rule="evenodd" clip-rule="evenodd" d="M41.126 7.68V17h4.916v-5.523h5.57c2.345-.018 4.337-1.596 5.088-3.797H41.126z" fill="#37A72E"/><path fill-rule="evenodd" clip-rule="evenodd" d="M40.47 0c.287 3.81 3.708 6.817 7.887 6.817h8.547c.063-.35.096-.71.096-1.078C57 2.583 54.583.023 51.593 0H40.471z" fill="url(#paint0_linear)"/><path fill-rule="evenodd" clip-rule="evenodd" d="M33.196 6.727l.004-.01v.001a.293.293 0 01.258-.16c.16 0 .29.135.295.302v10.053h4.915V0h-4.915c-.623.022-1.328.504-1.59 1.095l-3.911 8.836a.353.353 0 01-.045.1v.003h-.001a.323.323 0 01-.27.149.337.337 0 01-.327-.346V0h-4.916v16.913h4.916v-.001c.616-.034 1.304-.51 1.562-1.094l4.015-9.069a.3.3 0 01.01-.022zm-18.356.289l-2.872 9.897H8.432L5.557 7.01a.329.329 0 00-.318-.28.333.333 0 00-.324.346v9.837H0V0h5.476c.904 0 1.852.74 2.116 1.65l2.392 8.242c.12.41.313.41.431 0l2.393-8.242C13.072.739 14.02 0 14.924 0H20.4v16.913h-4.916V7.072a.333.333 0 00-.324-.341.329.329 0 00-.32.285z" fill="#37A72E"/><defs><linearGradient id="paint0_linear" x1="40.471" y1="3.409" x2="57" y2="3.409" gradientUnits="userSpaceOnUse"><stop stop-color="#00A0E5"/><stop offset="1" stop-color="#0077C3"/></linearGradient></defs></svg>