<svg width="91" height="90" fill="none" xmlns="http://www.w3.org/2000/svg"><g clip-path="url(#clip0)"><path fill-rule="evenodd" clip-rule="evenodd" d="M21.598.29a1 1 0 011.064-.223l16.035 6.195a1 1 0 01.343.222l51.141 50.592a1 1 0 010 1.422l-10.01 9.903a1 1 0 01-1.406 0L27.623 17.808a1 1 0 01-.233-.36L21.365 1.351a1 1 0 01.233-1.062zm6.582 13.563a1 1 0 001.64.36l5.616-5.555a1 1 0 00-.343-1.644l-8.996-3.476c-.805-.31-1.6.475-1.297 1.284l3.38 9.031zm2.287 2.534a1 1 0 000 1.421l48.298 47.78a1 1 0 001.406 0l7.167-7.09a1 1 0 000-1.422L39.04 9.297a1 1 0 00-1.407 0l-7.166 7.09zm17.121 9.44a1 1 0 011.415-.007l8.207 8.119a1 1 0 11-1.407 1.422l-8.207-8.12a1 1 0 01-.008-1.414zm14.666 13.411c0 .553-.452 1-1.01 1a1.005 1.005 0 01-1.011-1c0-.552.452-1 1.01-1 .559 0 1.011.448 1.011 1zM2.5 6.478c0-.9 1.086-1.342 1.714-.709a2326.73 2326.73 0 0013.832 13.876L14 23.648a1 1 0 001.407 1.422l4.06-4.018.076.075.13.129.131.13.526.519.528.523.532.526.134.133.134.132.268.265.134.133.135.133.135.134.135.133.135.134.135.134.136.134.135.134.136.134.136.135.137.135.136.135.137.135.137.135.137.136.137.136.137.136.138.136.137.136.138.136.277.273.138.137.139.137.138.138.14.137.138.138.14.137.139.138.14.138.139.139.14.138.14.138.14.139.14.139.14.139.141.139.141.139.141.14.141.139.141.14.142.14.14.14.142.14.044.043-4.045 4.002a1 1 0 001.407 1.422l4.06-4.017.1.099.144.141.143.142.143.142.144.142.144.142.287.284.144.143.144.142.289.286.144.142.144.143.29.286.145.144.144.143.29.287.146.144.145.143.145.144.146.144.145.144.146.144.145.144.146.144.146.145.146.144.146.144.146.145.146.145.147.144.146.145.146.145.293.29.147.145.147.145.146.145.147.145.147.145.147.146.147.145.147.146.294.29.147.146.148.146.147.146.147.146.148.145.147.146.295.292.295.292.148.146.095.095-4.045 4.002a1 1 0 001.406 1.422l4.061-4.018.11.108.296.293.148.147.148.146.148.147.148.146.148.147.148.146.148.147.149.146.148.147.148.147.148.146.148.147.149.147.148.146.148.147.148.146.148.147.148.146.149.147.148.147.148.146.148.147.148.146.149.147.296.293.296.293.148.146.148.147.148.146.148.146.296.293.148.146.147.147.148.146.148.146.148.146.147.146.148.146.148.147.147.145.148.146.147.146.148.146.147.146.148.146.294.291.147.146.148.145.147.146.147.145.123.123-4.045 4.002a1 1 0 101.406 1.422l4.061-4.018.215.212.146.145.146.145.146.144.146.144.146.145.145.144.146.144.146.144.145.144.146.144.145.144.146.144.145.143.145.144.145.143.145.144.144.143.145.143.145.143.144.143.577.57.144.143.144.142.287.285.144.142.143.142.144.141.143.142.143.141.143.142.142.141.143.141.143.141.142.141.285.282.142.14.142.14.141.14.142.14.141.14.142.14.141.14.141.14.14.14.142.138.14.14.14.139.281.277.28.277.14.138.14.138.139.138.124.123-4.045 4.002a1 1 0 101.406 1.422l4.061-4.017.114.112.137.136.137.136.137.135.137.135.136.135.273.27.136.134.135.135.136.134.136.134.135.133.135.134.134.133.135.133.134.133.135.133.267.265.134.132.133.132.267.264.132.13.133.132.264.262.132.13.132.13.132.13.13.13.263.26 1.038 1.027 1.024 1.012.127.126.126.125.126.125.126.125.126.124.126.124.125.124.125.124.125.124.125.123.124.123.124.123.124.122.123.122.123.122.105.103-4.046 4.002a1 1 0 101.407 1.422l4.06-4.017.052.05.12.118.118.118.237.235.119.117.118.116.117.117.117.116.117.116.117.115.233.23.231.229.115.114.115.114.115.113.114.113.114.113.114.112 6.555 6.486.09.089.09.088.09.089.089.088.176.175.088.087.088.086.173.172.086.085.086.084.085.085.085.084.168.166.166.165.083.082.082.08.325.322.08.079.08.079.078.078.08.078.155.154.154.153.077.076.076.075.076.074.075.075.074.073.074.074.074.073.073.072.57.563.137.136.068.068.068.066.133.133.066.065.066.065.258.255.063.063.063.062.124.122c.61.604.202 1.688-.727 1.688H3.5a1 1 0 01-1-1V6.477zm17.67 12.457l10.004 9.895.01.01 10.072 9.964 9.928 9.822.009.008 10.2 10.091.009.009 9.995 9.888.01.01L84.93 82.998c1.93 1.91.512 5.11-2.133 5.11H3.5a3 3 0 01-3-3V6.477C.5 3.8 3.746 2.454 5.635 4.362c3.801 3.84 9.994 10.08 14.536 14.573zM17.746 42.75c0-.889 1.072-1.336 1.703-.711l27.846 27.546c.635.628.19 1.71-.704 1.71H18.745a1 1 0 01-1-1V42.752zm3.11-2.133c-1.895-1.874-5.11-.532-5.11 2.133v27.546a3 3 0 003 3H46.59c2.68 0 4.016-3.248 2.11-5.133L20.855 40.618z" fill="#0079BE"/></g><defs><clipPath id="clip0"><path fill="#fff" transform="translate(.5)" d="M0 0h90v90H0z"/></clipPath></defs></svg>