<svg width="48" height="48" fill="none" xmlns="http://www.w3.org/2000/svg"><g opacity=".54" fill="#333"><path d="M7 3C5.7 3 5.7 5 7 5s1.3-2 0-2zm10 0h-6c-1.3 0-1.3 2 0 2h6c1.3 0 1.3-2 0-2z"/><path d="M45 12H28V3c0-1.7-1.3-3-3-3H3C1.3 0 0 1.3 0 3v42c0 1.7 1.3 3 3 3h22c1.7 0 3-1.3 3-3V32h17c1.7 0 3-1.3 3-3V15c0-1.7-1.3-3-3-3zm1 3v1H22v-1c0-.6.4-1 1-1h22c.6 0 1 .5 1 1zm0 6H22v-3h24v3zM2 3c0-.6.4-1 1-1h22c.6 0 1 .4 1 1v3H2V3zm24 42c0 .6-.4 1-1 1H3c-.6 0-1-.4-1-1v-3h24v3zm0-5H2V8h24v4h-3c-1.7 0-3 1.3-3 3v14c0 1.7 1.3 3 3 3h3v8zm19-10H23c-.6 0-1-.4-1-1v-6h24v6c0 .6-.4 1-1 1z"/><path d="M13 45h2c1.3 0 1.3-2 0-2h-2c-1.3 0-1.3 2 0 2z"/></g></svg>