<svg width="58" height="20" fill="none" xmlns="http://www.w3.org/2000/svg"><g clip-path="url(#clip0)"><path d="M25.133 19.711h-4.698L23.374.351h4.698l-2.939 19.36zM42.166.825C41.239.433 39.769 0 37.95 0c-4.64 0-7.907 2.637-7.927 6.406-.038 2.78 2.34 4.325 4.118 5.252 1.818.947 2.436 1.566 2.436 2.41-.019 1.297-1.47 1.895-2.822 1.895-1.876 0-2.88-.308-4.408-1.03l-.619-.309-.657 4.346c1.102.535 3.132 1.01 5.24 1.03 4.93 0 8.139-2.595 8.177-6.611.019-2.204-1.237-3.893-3.944-5.273-1.643-.886-2.65-1.483-2.65-2.39.02-.824.852-1.667 2.707-1.667 1.527-.042 2.65.35 3.5.74l.425.206.639-4.18zm6.244 12.028c.387-1.113 1.876-5.417 1.876-5.417-.02.041.386-1.133.618-1.854l.328 1.668s.89 4.635 1.083 5.603H48.41zM54.21.35h-3.635c-1.12 0-1.972.35-2.455 1.606l-6.98 17.755h4.93l.986-2.904h6.032c.135.68.56 2.904.56 2.904H58L54.21.351zm-37.7 0l-4.6 13.203-.503-2.678C10.556 7.785 7.888 4.43 4.91 2.76l4.214 16.93h4.969L21.479.35H16.51z" fill="#0069C0"/><path d="M7.637.35H.077L0 .743c5.897 1.607 9.802 5.48 11.407 10.134L9.763 1.978C9.493.742 8.661.392 7.637.351z" fill="#FAA61A"/></g><defs><clipPath id="clip0"><path fill="#fff" d="M0 0h58v20H0z"/></clipPath></defs></svg>