<svg width="32" height="32" fill="none" xmlns="http://www.w3.org/2000/svg"><path fill-rule="evenodd" clip-rule="evenodd" d="M32 16c0 8.837-7.163 16-16 16S0 24.837 0 16 7.163 0 16 0s16 7.163 16 16zm-15.477 8.902h.004c5.246-.003 9.512-4.27 9.514-9.514a9.457 9.457 0 00-2.784-6.731 9.453 9.453 0 00-6.73-2.79c-5.244 0-9.512 4.267-9.514 9.513 0 1.677.437 3.314 1.27 4.757l-1.35 4.93 5.044-1.323a9.506 9.506 0 004.546 1.158z" fill="#fff"/><path fill-rule="evenodd" clip-rule="evenodd" d="M12.5 22.193l-.29-.172-2.992.785.799-2.918-.189-.299a7.889 7.889 0 01-1.209-4.208c.002-4.36 3.55-7.907 7.911-7.907a7.85 7.85 0 015.591 2.319 7.86 7.86 0 012.314 5.594c-.002 4.36-3.55 7.908-7.908 7.908h-.003a7.895 7.895 0 01-4.025-1.102zm8.495-4.757c.166.08.278.134.325.214.06.1.06.575-.138 1.13-.198.556-1.148 1.063-1.605 1.13-.41.062-.928.088-1.497-.093a13.78 13.78 0 01-1.355-.501c-2.229-.962-3.735-3.122-4.02-3.53l-.041-.06-.002-.002c-.126-.168-.969-1.293-.969-2.457 0-1.095.538-1.669.786-1.933l.046-.05a.873.873 0 01.634-.298c.158 0 .317.002.456.009h.053c.138 0 .311-.001.481.408.066.157.162.391.263.637.205.498.43 1.049.47 1.128.06.12.1.258.02.417a7.979 7.979 0 00-.033.067 1.35 1.35 0 01-.204.33c-.04.046-.081.096-.122.146-.082.1-.164.199-.235.27-.12.118-.243.247-.104.485.138.238.615 1.016 1.322 1.647.76.677 1.42.964 1.755 1.109.065.028.118.051.157.07.238.12.376.1.515-.059s.594-.694.753-.932c.158-.238.317-.198.535-.12.217.08 1.386.655 1.624.774.046.024.09.045.13.064z" fill="#fff"/></svg>