<svg width="16" height="16" fill="none" xmlns="http://www.w3.org/2000/svg"><g clip-path="url(#clip0)"><path fill-rule="evenodd" clip-rule="evenodd" d="M6.8.854a.5.5 0 10-.707-.707l-.939.939a.5.5 0 10.707.707l.94-.94zM6.447 3.5H8.01a.5.5 0 000-1H6.447a.5.5 0 000 1zM2.833 1.252c-1.05 0-1.973.815-2.45 1.856-.488 1.065-.57 2.467.114 3.853.825 2.128 2.602 4.374 4.635 6.088 2.026 1.708 4.409 2.973 6.464 2.973a5.99 5.99 0 002.218-.453c.802-.34 1.617-.936 1.967-1.94a1.34 1.34 0 00.07-.438v-.493a1.5 1.5 0 00-.83-1.342l-2.412-1.207a1.5 1.5 0 00-1.92.51l-.104.157a1.821 1.821 0 00-.08.132 2.92 2.92 0 01-.295.439 1.026 1.026 0 01-.205.192c-.197-.009-.587-.116-1.115-.357-.53-.243-1.14-.593-1.723-1.017-.584-.425-1.128-.914-1.538-1.428-.413-.518-.665-1.03-.72-1.507a.174.174 0 01.032-.121c.101-.141.215-.266.269-.323.028-.03.059-.063.09-.102l.357-.436a1.5 1.5 0 00.223-1.526L4.803 2.175a1.5 1.5 0 00-1.385-.923h-.585zm-1.43 5.284c-.556-1.111-.48-2.204-.11-3.011.383-.836 1.024-1.273 1.54-1.273h.585a.5.5 0 01.462.308l1.077 2.586a.5.5 0 01-.074.509l-.357.436a4.265 4.265 0 00-.397.474c-.17.237-.247.529-.213.82.084.73.453 1.416.931 2.016.48.603 1.097 1.151 1.732 1.613.635.462 1.302.846 1.895 1.117.571.262 1.14.448 1.557.448.244 0 .445-.105.584-.204a2.01 2.01 0 00.363-.347c.196-.234.343-.489.403-.596a.859.859 0 01.036-.061l.105-.157a.5.5 0 01.64-.17l2.413 1.206a.5.5 0 01.276.447v.494a.343.343 0 01-.014.11c-.223.638-.757 1.07-1.413 1.348a4.993 4.993 0 01-1.828.373c-1.7 0-3.856-1.082-5.82-2.738-1.951-1.645-3.61-3.77-4.354-5.704l-.009-.023-.01-.021z" fill="#0079BE"/></g><defs><clipPath id="clip0"><path fill="#fff" d="M0 0h16v16H0z"/></clipPath></defs></svg>