<svg width="15" height="17" fill="none" xmlns="http://www.w3.org/2000/svg"><path fill-rule="evenodd" clip-rule="evenodd" d="M10.774 4.833c0 1.507-1.278 2.834-2.987 2.834S4.8 6.34 4.8 4.833C4.8 3.327 6.078 2 7.787 2s2.987 1.327 2.987 2.833zm-.635 4.264c1.568-.815 2.635-2.418 2.635-4.264C12.774 2.164 10.54 0 7.787 0S2.8 2.164 2.8 4.833c0 1.84 1.06 3.439 2.62 4.256-1.681.629-2.903 1.863-3.731 3.016a12.789 12.789 0 00-1.68 3.283l-.006.019-.002.006v.002L0 15.416l.956.293.957.292.002-.006a4.173 4.173 0 01.07-.204 10.792 10.792 0 011.329-2.52c.993-1.383 2.437-2.604 4.472-2.604 2.012 0 3.3 1.194 4.137 2.547a9.456 9.456 0 011.108 2.655l.008.037.002.006.979-.203c.98-.202.979-.203.979-.203v-.003l-.002-.007-.004-.019a4.266 4.266 0 00-.07-.284 11.461 11.461 0 00-1.3-3.031c-.726-1.174-1.847-2.426-3.484-3.065z" fill="#D1D1D1"/></svg>