<svg width="41" height="34" fill="none" xmlns="http://www.w3.org/2000/svg"><g clip-path="url(#clip0)"><path d="M26.043 24.144H14.957V2.89h11.086v21.254z" fill="#6C6BBD"/><path d="M15.66 13.517c0-4.311 1.893-8.152 4.84-10.627C18.343 1.08 15.624 0 12.67 0 5.671 0 0 6.052 0 13.517c0 7.466 5.672 13.518 12.67 13.518 2.955 0 5.674-1.08 7.83-2.89-2.947-2.476-4.84-6.316-4.84-10.628z" fill="#D32011"/><path d="M41 13.517c0 7.466-5.672 13.518-12.67 13.518-2.955 0-5.675-1.08-7.83-2.89 2.947-2.476 4.84-6.316 4.84-10.628 0-4.311-1.893-8.152-4.84-10.627C22.654 1.08 25.374 0 28.33 0 35.328 0 41 6.052 41 13.517z" fill="#0099DF"/><path d="M29.794 30.15c.147 0 .36.03.521.098l-.225.736a1.12 1.12 0 00-.458-.09c-.478 0-.718.33-.718.922v2.013h-.732V30.24h.725v.436c.19-.315.465-.526.887-.526zm-2.705.803h-1.196v1.622c0 .36.119.6.485.6.19 0 .43-.067.647-.202l.211.668c-.232.173-.598.278-.914.278-.866 0-1.168-.496-1.168-1.33v-1.636h-.683v-.713h.683v-1.089h.739v1.09h1.196v.712zm-9.368.766c.078-.518.373-.871.894-.871.471 0 .774.315.851.871h-1.745zm2.506.316c-.007-1.12-.655-1.885-1.598-1.885-.986 0-1.675.766-1.675 1.885 0 1.14.718 1.883 1.725 1.883.506 0 .97-.135 1.379-.502l-.36-.579a1.54 1.54 0 01-.977.376c-.472 0-.901-.233-1.007-.878h2.498c.008-.098.015-.196.015-.3zm3.216-.879a2.059 2.059 0 00-1.048-.308c-.401 0-.64.158-.64.42 0 .24.252.309.569.353l.345.053c.732.113 1.175.443 1.175 1.074 0 .683-.563 1.171-1.534 1.171-.55 0-1.056-.15-1.457-.465l.345-.609c.246.203.613.376 1.12.376.499 0 .766-.158.766-.436 0-.202-.19-.316-.591-.375l-.345-.052c-.753-.114-1.161-.474-1.161-1.059 0-.713.549-1.149 1.4-1.149.535 0 1.021.128 1.372.376l-.316.63zm9.026-.264a1.005 1.005 0 00-.755.321 1.109 1.109 0 00-.222.365c-.054.142-.08.299-.08.469 0 .17.026.326.08.468.054.142.128.264.223.365a1.005 1.005 0 00.754.322 1.031 1.031 0 00.757-.322c.096-.101.17-.223.224-.365.054-.142.081-.297.081-.468 0-.17-.026-.327-.08-.469a1.101 1.101 0 00-.225-.365 1.004 1.004 0 00-.757-.321zm0-.742a1.792 1.792 0 011.302.544c.163.17.29.37.381.6.092.231.138.482.138.753 0 .27-.046.521-.138.753a1.767 1.767 0 01-1.683 1.144c-.26 0-.502-.049-.725-.145a1.749 1.749 0 01-.574-.399 1.862 1.862 0 01-.38-.6 2.021 2.021 0 01-.137-.753c0-.271.046-.522.138-.753.091-.23.218-.43.379-.6.161-.17.352-.302.574-.399.223-.097.464-.145.725-.145zm-19.024 1.885c0-.631.387-1.15 1.02-1.15.605 0 1.014.496 1.014 1.15 0 .653-.409 1.148-1.014 1.148-.633 0-1.02-.518-1.02-1.148zm2.723 0V30.24h-.731v.436c-.233-.323-.584-.526-1.063-.526-.943 0-1.682.788-1.682 1.885 0 1.095.739 1.884 1.682 1.884.479 0 .83-.202 1.063-.526v.436h.731v-1.794zm-4.123 1.794v-2.252c0-.849-.507-1.42-1.323-1.427-.43-.008-.873.135-1.183.639a1.22 1.22 0 00-1.112-.639c-.359 0-.71.113-.985.533v-.443H6.71v3.59h.739v-1.99c0-.623.324-.954.823-.954.486 0 .732.337.732.946v1.997h.74v-1.99c0-.622.337-.953.822-.953.5 0 .74.337.74.946v1.997h.739z" fill="#fff"/></g><defs><clipPath id="clip0"><path fill="#fff" d="M0 0h41v34H0z"/></clipPath></defs></svg>