<svg width="48" height="48" fill="none" xmlns="http://www.w3.org/2000/svg"><g opacity=".54"><path d="M28 11.9V3c0-1.7-1.3-3-3-3H3C1.3 0 0 1.3 0 3v42c0 1.7 1.3 3 3 3h22c1.7 0 3-1.3 3-3v-4.9c9.8 3.5 20-3.9 20-14.1 0-10.3-10.2-17.6-20-14.1zM2 3c0-.6.4-1 1-1h22c.6 0 1 .4 1 1v3H2V3zm24 42c0 .6-.4 1-1 1H3c-.6 0-1-.4-1-1v-3h24v3zm0-5H2V8h24v4.7c-10.7 5.6-10.7 20.9 0 26.5v.8zm7-1c-7.2 0-13-5.8-13-13s5.8-13 13-13 13 5.8 13 13-5.8 13-13 13z" fill="#333"/><path d="M7 3C5.7 3 5.7 5 7 5s1.3-2 0-2zm10 0h-6c-1.3 0-1.3 2 0 2h6c1.3 0 1.3-2 0-2zm-4 42h2c1.3 0 1.3-2 0-2h-2c-1.3 0-1.3 2 0 2z" fill="#333"/><path d="M37.777 32h-2.585l-1.45-5.625a28.94 28.94 0 01-.279-1.238c-.127-.63-.2-1.052-.22-1.267-.029.264-.102.689-.22 1.275-.116.58-.207.996-.27 1.245L31.31 32h-2.578L26 21.292h2.234l1.37 5.845c.239 1.079.412 2.014.52 2.805a20.8 20.8 0 01.197-1.289c.108-.586.208-1.04.3-1.362l1.56-5.999h2.147l1.56 5.999c.068.268.154.678.256 1.23.103.552.18 1.026.234 1.421.05-.38.127-.855.235-1.42.107-.572.205-1.034.293-1.385l1.362-5.845h2.234L37.777 32z" fill="#000"/></g></svg>