<svg width="30" height="39" fill="none" xmlns="http://www.w3.org/2000/svg"><path d="M16.794 16.556a2.76 2.76 0 00-.949-.513 5.597 5.597 0 00-1.225-.119h-1.817c-.316 0-.514.08-.672.198-.118.118-.197.355-.197.671v5.098c0 .237 0 .395.079.553a.49.49 0 00.237.316c.118.079.316.118.592.118h1.818c.316 0 .593-.039.87-.079.236-.04.473-.118.71-.197.238-.119.435-.237.593-.395a3.54 3.54 0 00.593-.751c.158-.277.277-.593.356-.948.079-.356.118-.712.118-1.146 0-1.225-.355-2.173-1.106-2.806zm-1.028 4.9a1.606 1.606 0 01-.355.198c-.158.04-.277.079-.395.079h-1.62V16.99h.948c.435 0 .79.04 1.106.158.316.079.553.316.751.672.198.355.316.869.316 1.54-.04 1.028-.276 1.7-.75 2.095z" fill="#0079BE"/><path d="M29.359 7.784l-.04-.04v-.039L21.812.198l-.04-.04s-.04 0-.04-.04c0 0-.039 0-.039-.039C21.574 0 21.456 0 21.298 0H2.687A2.63 2.63 0 00.83.75L.79.79A2.76 2.76 0 000 2.687v33.626c0 .75.316 1.423.79 1.897a2.76 2.76 0 001.897.79H26.75c.75 0 1.422-.316 1.896-.79a2.76 2.76 0 00.79-1.897V8.18c0-.158-.039-.276-.078-.395zm-7.31-4.939l4.465 4.465h-3.28c-.316 0-.632-.119-.83-.356a1.232 1.232 0 01-.355-.83V2.846zm5.69 33.468c0 .277-.119.514-.317.711a.985.985 0 01-.71.316H2.686c-.277 0-.514-.118-.711-.276-.198-.198-.277-.435-.277-.711V2.647c0-.276.119-.513.316-.71l.04-.04c.197-.158.434-.277.671-.277H20.43v4.465c0 .79.316 1.502.869 2.055a2.93 2.93 0 002.055.83h4.386v27.343z" fill="#0079BE"/><path d="M10.116 16.477c-.198-.198-.435-.316-.751-.395-.277-.08-.711-.119-1.225-.119H6.322c-.316 0-.553.08-.671.198-.158.118-.198.356-.198.672v5.373c0 .277.08.475.198.633.118.158.316.197.513.197.198 0 .356-.079.514-.237.119-.158.198-.355.198-.632v-1.976H8.18c.869 0 1.501-.197 1.936-.553.434-.356.671-.909.671-1.62 0-.316-.039-.632-.158-.909-.158-.237-.316-.474-.513-.632zm-.949 2.213a1.003 1.003 0 01-.513.355 2.6 2.6 0 01-.83.119h-.948V17.03h.948c.632 0 1.027.119 1.264.316.198.198.277.435.277.751-.04.237-.08.435-.198.593zm10.827-2.806c-.237.04-.395.08-.513.159a.477.477 0 00-.277.276c-.079.119-.079.277-.079.514v5.334c0 .277.079.514.198.632.118.159.316.198.513.198.198 0 .356-.079.514-.198.118-.158.197-.355.197-.632v-2.292h2.332c.197 0 .355-.04.474-.158.118-.079.158-.237.158-.395a.507.507 0 00-.158-.395.848.848 0 00-.474-.158h-2.332v-1.778h2.766c.238 0 .396-.04.514-.158a.507.507 0 00.158-.395.507.507 0 00-.158-.395c-.118-.119-.277-.159-.514-.159h-3.319z" fill="#0079BE"/></svg>