<svg width="27" height="24" fill="none" xmlns="http://www.w3.org/2000/svg"><path d="M12.259 4.327h0v.001l.832 1.248.831-1.248h0l.001-.001.002-.003.014-.02.063-.09a11.957 11.957 0 011.208-1.419c.831-.83 1.83-1.552 2.792-1.699 1.695-.258 3.526-.002 4.895.839 1.316.808 2.285 2.197 2.285 4.459 0 1.956-.73 3.978-1.905 5.953-1.172 1.97-2.748 3.83-4.35 5.447a48.155 48.155 0 01-5.836 4.983 48.146 48.146 0 01-5.835-4.983c-1.603-1.616-3.18-3.477-4.351-5.447C1.73 10.373 1 8.351 1 6.394c0-2.26.97-3.65 2.285-4.459 1.369-.84 3.2-1.097 4.895-.838.962.147 1.96.868 2.792 1.698a11.956 11.956 0 011.27 1.508l.015.021.002.003z" stroke="#0079BE" stroke-width="2"/></svg>