<svg width="40" height="40" fill="none" xmlns="http://www.w3.org/2000/svg"><path d="M17.128 24.382a.999.999 0 001.411 0l7.345-7.345a.997.997 0 10-1.411-1.41l-6.647 6.647-2.308-2.307a.997.997 0 10-1.41 1.41l3.02 3.005zM9.444 5.195c.19 0 .382-.058.556-.166a1 1 0 00-1.112-1.66.991.991 0 00-.274 1.378.99.99 0 00.83.448zM6.564 7.56a.997.997 0 10.002-1.992.997.997 0 00-.002 1.992zm6.158-4.124c.124 0 .257-.025.382-.075.506-.207.746-.797.539-1.303a1.002 1.002 0 00-1.303-.54 1.002 1.002 0 00-.54 1.304.999.999 0 00.922.614zm-9.079 6.83a.97.97 0 00.556.165 1 1 0 00.83-.44.99.99 0 00-.274-1.377 1.001 1.001 0 00-1.386.274.991.991 0 00.274 1.378zm-1.585 3.377a.999.999 0 001.303-.54 1.005 1.005 0 00-.54-1.302.998.998 0 00-.763 1.842zM16.282 2.357a.993.993 0 10-.2-1.967.993.993 0 00-.78 1.17c.1.465.515.797.98.797zM1.162 17.27a1.009 1.009 0 001.17-.788.993.993 0 10-1.95-.39.997.997 0 00.78 1.178z" fill="#0079BE"/><path d="M34.141 5.859A19.868 19.868 0 0020 0a.999.999 0 00-.996.996c0 .548.448.996.996.996 9.934 0 18.008 8.074 18.008 18.008S29.934 38.008 20 38.008 1.992 29.934 1.992 20a.999.999 0 00-.996-.996A.999.999 0 000 20a19.868 19.868 0 005.859 14.141A19.868 19.868 0 0020 40a19.868 19.868 0 0014.141-5.859A19.868 19.868 0 0040 20a19.868 19.868 0 00-5.859-14.141z" fill="#0079BE"/></svg>