<svg width="32" height="32" fill="none" xmlns="http://www.w3.org/2000/svg"><path fill-rule="evenodd" clip-rule="evenodd" d="M16 0C7.163 0 0 7.163 0 16s7.163 16 16 16 16-7.163 16-16S24.837 0 16 0zm-3.518 7.518c.91-.041 1.201-.051 3.519-.051h-.003c2.318 0 2.608.01 3.518.051.909.042 1.53.186 2.073.397a4.17 4.17 0 011.511.984c.475.474.767.95.985 1.511.21.543.354 1.163.397 2.072.04.91.051 1.2.051 3.518 0 2.318-.01 2.608-.051 3.518-.043.908-.187 1.528-.397 2.071a4.187 4.187 0 01-.985 1.512 4.19 4.19 0 01-1.51.985c-.543.21-1.164.354-2.072.396-.91.041-1.2.052-3.518.052-2.318 0-2.608-.01-3.518-.052-.909-.042-1.53-.185-2.072-.396a4.179 4.179 0 01-1.511-.985 4.181 4.181 0 01-.984-1.512c-.211-.543-.355-1.163-.397-2.071-.041-.91-.051-1.2-.051-3.518 0-2.317.01-2.608.051-3.519.04-.908.185-1.528.396-2.07.22-.562.51-1.038.985-1.512.475-.475.95-.766 1.512-.984.543-.211 1.163-.355 2.071-.397z" fill="#fff"/><path fill-rule="evenodd" clip-rule="evenodd" d="M15.235 9.005h.766c2.278 0 2.548.008 3.448.049.832.038 1.284.177 1.584.294.399.154.682.34.981.638.299.298.483.583.639.981.116.3.256.752.293 1.584.041.9.05 1.17.05 3.447 0 2.278-.009 2.548-.05 3.447-.038.832-.177 1.284-.293 1.584-.155.399-.34.682-.639.98a2.64 2.64 0 01-.98.639c-.301.117-.753.256-1.585.294-.9.04-1.17.05-3.448.05-2.279 0-2.549-.01-3.448-.05-.833-.038-1.284-.177-1.585-.294a2.642 2.642 0 01-.981-.639 2.645 2.645 0 01-.639-.98c-.117-.3-.256-.752-.294-1.584-.04-.9-.049-1.17-.049-3.449s.008-2.548.05-3.447c.037-.832.176-1.284.293-1.584.155-.399.34-.683.639-.982a2.65 2.65 0 01.981-.638c.3-.118.752-.256 1.585-.295.787-.035 1.092-.046 2.682-.048v.003zm5.32 1.416a1.024 1.024 0 100 2.049 1.024 1.024 0 000-2.049zM11.619 16a4.382 4.382 0 118.765 0 4.382 4.382 0 01-8.764 0z" fill="#fff"/><path fill-rule="evenodd" clip-rule="evenodd" d="M16 13.156a2.845 2.845 0 110 5.689 2.845 2.845 0 010-5.69z" fill="#fff"/></svg>