<svg width="37" height="38" fill="none" xmlns="http://www.w3.org/2000/svg"><path fill-rule="evenodd" clip-rule="evenodd" d="M29.291 1.175c-.45-.45-1.019-.555-1.545-.45-.51.102-.985.397-1.35.762L24.6 3.284l-.927.928-.096.095a1.826 1.826 0 00-2.18.305l-2.324 2.324a2.5 2.5 0 00-.688 2.236l-3.163 2.938L5.213 3.66c-.554-.548-1.203-.797-1.842-.791a2.572 2.572 0 00-1.681.67C.78 4.352.398 5.806 1.343 7.13l.01.015.012.014 8.762 10.575-9.656 9.053-.158.149v9.839l.557-.064 8.125-.937.157-.018.118-.105 7.848-6.976c.152.392.37.793.667 1.094.268.272.631.49 1.085.5.361.008.72-.117 1.073-.355.04.974.265 2.084.822 3.08.856 1.532 2.464 2.732 5.182 2.782.146.002.292-.01.426-.033 1.83-.305 2.622-.418 3.346-.244.73.175 1.42.648 2.994 1.75l.568.398.198-.665c.692-2.322 1.183-5.866.355-8.932-.416-1.542-1.172-2.984-2.424-4.077-1.065-.93-2.462-1.583-4.25-1.847.255-.358.55-.936.523-1.518a1.34 1.34 0 00-.383-.898c-.254-.257-.61-.417-1.045-.497a4.751 4.751 0 01-.298-.063l1.738-.54a1.918 1.918 0 001.938-.667l2.58-3.226c.36-.45.42-1.05.192-1.547l.181-.166c.305-.28.717-.663 1.15-1.076a44.29 44.29 0 001.275-1.26c.378-.394.72-.775.905-1.051.4-.601.335-1.21.168-1.65a2.65 2.65 0 00-.573-.884c-.366-.346-5.623-5.313-6.22-5.91zM24.38 4.919l-.047.047 7.434 7.434.144-.132a84.71 84.71 0 001.135-1.063c.428-.407.871-.841 1.245-1.23.383-.397.666-.72.794-.912.17-.255.155-.504.065-.741a1.654 1.654 0 00-.31-.497l-.014-.014c-.356-.336-5.631-5.32-6.241-5.93-.175-.175-.387-.226-.642-.175-.272.054-.578.228-.838.488l-1.797 1.797-.928.928zm-8.39 7.841l2.934-2.725 7.823 7.823-1.986.617-2.179-1.635a2.5 2.5 0 00-1.5-.5h-1l-.792-.79-.015-.015-.016-.014-3.27-2.76zm12.86 4.559a.918.918 0 01-.903.325l-8.559-8.56-.004-.016a1.5 1.5 0 01.394-1.425l2.325-2.324a.826.826 0 011.167 0l8.125 8.125a.488.488 0 01.036.65l-2.58 3.225zM18.6 16.272l.558.558-4.57 4.3-3.398-3.681L2.147 6.536c-.604-.86-.36-1.742.21-2.252.29-.26.654-.411 1.024-.415.36-.004.76.133 1.14.513l.015.015.016.013 10.362 8.75 3.685 3.111zm-7.812 2.216l3.275 3.548v1.85a2.5 2.5 0 00.642 1.672l1.963 2.18-7.23 6.427v-3.367l1.417-1.416a.5.5 0 00-.708-.707L8.73 30.09H6.625v-2.106l1.132-1.131a.5.5 0 00-.707-.708l-1.107 1.107-4.004-.47 8.848-8.295zM8.437 31.09v3.742l-5.35.617-1.775-1.627v-6.108l4.313.508v2.868h2.813zm6.626-7.205v-1.83l5.01-4.716h1.01c.325 0 .64.106.9.3l2.384 1.788.3.225c.442.332.965.464 1.409.545.302.055.446.148.512.215.06.061.091.135.096.242.012.247-.127.588-.324.871l-.604.659-2.187 2.386-1.25 1.363-2.188 2.387-.6.656c-.305.247-.514.296-.639.293-.123-.003-.253-.058-.396-.203-.309-.313-.533-.9-.63-1.387l-.028-.134-.091-.102-2.3-2.555a1.5 1.5 0 01-.384-1.003zm6.575 8.621c-.664-1.187-.777-2.615-.662-3.627l1.635-1.784.59.946a.5.5 0 10.848-.528l-.736-1.184.712-.777 1.835 1.144a.5.5 0 00.53-.849l-1.677-1.045 1.617-1.765c1.973.163 3.398.795 4.422 1.69 1.069.931 1.739 2.182 2.117 3.584.688 2.548.39 5.522-.163 7.713-1.163-.809-1.926-1.299-2.754-1.497-.965-.232-1.989-.063-3.743.23-.083.013-.168.02-.243.019-2.378-.044-3.653-1.061-4.328-2.27z" fill="#0079BE"/></svg>