<svg width="21" height="15" fill="none" xmlns="http://www.w3.org/2000/svg"><path d="M10.332 4.227a2.82 2.82 0 012.818 2.818 2.82 2.82 0 01-2.818 2.818 2.82 2.82 0 01-2.818-2.818 2.82 2.82 0 012.818-2.818z" fill="#DEDEDE"/><path d="M10.333 0c4.697 0 8.708 2.921 10.333 7.045-1.625 4.124-5.636 7.046-10.333 7.046-4.702 0-8.708-2.922-10.333-7.046C1.625 2.921 5.631 0 10.333 0zm0 11.742a4.699 4.699 0 004.697-4.697 4.699 4.699 0 00-4.697-4.697 4.699 4.699 0 00-4.697 4.697 4.699 4.699 0 004.697 4.697z" fill="#DEDEDE"/></svg>