<svg width="48" height="47" fill="none" xmlns="http://www.w3.org/2000/svg"><g opacity=".54" fill="#333"><path d="M45 24h-1v-8c0-1.7-1.3-3-3-3h-.9l-5-8.7c-.3-.5-.9-.6-1.4-.4l-3.8 2.2-2.8-4.8c-.3-.5-.9-.6-1.4-.4l-7 4H5c-2.8 0-5 2.2-5 5v32c0 2.8 2.2 5 5 5h36c1.7 0 3-1.3 3-3v-8h1c1.7 0 3-1.3 3-3v-6c0-1.6-1.3-2.9-3-2.9zM33.8 6.2l3.9 6.8H22l11.8-6.8zm-8-3l2.3 4L18 13H8.8l17-9.8zM2.9 7.9C4.1 6.7 4.1 7 15.3 7L4.9 13c-2.6-.1-3.9-3.3-2-5.1zM42 44c0 .6-.4 1-1 1H5c-1.7 0-3-1.3-3-3V14c1.9 1.4.4 1 39 1 .6 0 1 .4 1 1v8h-6c-3.3 0-6 2.7-6 6s2.7 6 6 6h6v8zm4-11c0 .6-.4 1-1 1h-9c-2.2 0-4-1.8-4-4s1.8-4 4-4h9c.6 0 1 .4 1 1v6z"/><path d="M36.7 29.3c-.7-.6-1.7-.1-1.7.7 0 .5.4 1 1 1 .8 0 1.4-1 .7-1.7z"/></g></svg>