<svg width="32" height="32" fill="none" xmlns="http://www.w3.org/2000/svg"><path fill-rule="evenodd" clip-rule="evenodd" d="M16 0C7.163 0 0 7.163 0 16s7.163 16 16 16 16-7.163 16-16S24.837 0 16 0zm1.303 21.05c-.158.167-.466.2-.466.2h-1.02s-2.25.134-4.233-1.892c-2.162-2.21-4.071-6.594-4.071-6.594s-.11-.288.01-.426c.134-.157.5-.167.5-.167l2.438-.015s.23.037.394.155c.136.099.212.281.212.281s.394.979.916 1.864c1.02 1.728 1.493 2.105 1.839 1.92.504-.27.353-2.442.353-2.442s.01-.788-.254-1.14c-.203-.272-.587-.351-.757-.374-.138-.018.088-.33.38-.47.439-.211 1.214-.224 2.13-.215.713.008.918.051 1.197.118.647.153.627.644.584 1.704-.014.317-.029.685-.029 1.11 0 .096-.002.197-.005.302-.016.543-.033 1.165.332 1.397.187.118.643.017 1.786-1.887.542-.903.947-1.964.947-1.964s.09-.19.227-.27c.142-.083.332-.058.332-.058l2.566-.016s.771-.09.895.252c.131.358-.288 1.195-1.336 2.567-.994 1.301-1.478 1.78-1.434 2.204.032.31.347.59.95 1.14 1.261 1.148 1.599 1.753 1.68 1.898a.78.78 0 00.015.027c.565.92-.627.992-.627.992l-2.28.03s-.488.096-1.133-.338c-.337-.228-.667-.599-.981-.953-.48-.54-.924-1.038-1.302-.92-.635.198-.616 1.54-.616 1.54s.005.288-.14.44z" fill="#fff"/></svg>