<svg width="15" height="9" fill="none" xmlns="http://www.w3.org/2000/svg"><path d="M13.838.621c.076-.305 0-.558-.457-.558h-1.498c-.381 0-.559.203-.66.431 0 0-.762 1.854-1.828 3.072-.356.33-.508.457-.711.457-.077 0-.229-.127-.229-.431V.622c0-.382-.101-.56-.432-.56H5.688c-.254 0-.381.178-.381.356 0 .355.533.432.584 1.447v2.21c0 .482-.077.583-.28.583-.507 0-1.726-1.879-2.463-4.012C2.996.24 2.844.062 2.463.062H.965C.559.063.457.266.457.494c0 .406.508 2.361 2.361 4.977 1.244 1.777 2.996 2.716 4.57 2.716.94 0 1.067-.203 1.067-.558 0-1.701-.076-1.879.38-1.879.23 0 .61.127 1.499.99 1.016 1.016 1.193 1.447 1.752 1.447h1.498c.432 0 .635-.203.508-.634-.28-.864-2.184-2.692-2.285-2.819-.229-.279-.153-.406 0-.66 0 0 1.828-2.59 2.03-3.453z" fill="#0079BE"/></svg>