<svg width="40" height="34" fill="none" xmlns="http://www.w3.org/2000/svg"><g clip-path="url(#clip0)"><path d="M7.279 33.925v-2.257c0-.865-.48-1.429-1.305-1.429-.412 0-.858.15-1.167.64-.24-.414-.584-.64-1.099-.64-.343 0-.687.113-.961.527v-.451h-.721v3.61h.72v-1.993c0-.64.31-.94.79-.94.481 0 .721.338.721.94v1.993h.721v-1.993c0-.64.344-.94.79-.94.48 0 .721.338.721.94v1.993h.79zm10.678-3.61H16.79v-1.091h-.721v1.09h-.653v.715h.653v1.655c0 .827.309 1.316 1.133 1.316.309 0 .652-.112.892-.263l-.206-.677c-.206.15-.446.188-.618.188-.343 0-.48-.226-.48-.602V31.03h1.167v-.715zm6.112-.076c-.412 0-.687.226-.859.527v-.451h-.72v3.61h.72v-2.03c0-.603.24-.941.687-.941.137 0 .309.037.446.075l.206-.752c-.137-.038-.343-.038-.48-.038zm-9.236.376c-.344-.263-.825-.376-1.34-.376-.824 0-1.373.452-1.373 1.166 0 .602.412.94 1.133 1.053l.344.038c.377.075.583.188.583.376 0 .263-.274.451-.755.451-.48 0-.859-.188-1.099-.376l-.343.602c.377.3.893.451 1.407.451.962 0 1.511-.489 1.511-1.166 0-.639-.446-.978-1.133-1.09l-.343-.038c-.31-.038-.55-.113-.55-.338 0-.264.24-.414.618-.414.412 0 .825.188 1.03.3l.31-.639zm19.158-.376c-.412 0-.686.226-.858.527v-.451h-.721v3.61h.721v-2.03c0-.603.24-.941.687-.941.137 0 .309.037.446.075l.206-.752c-.137-.038-.343-.038-.48-.038zm-9.201 1.88c0 1.092.686 1.881 1.75 1.881.481 0 .825-.112 1.168-.413l-.343-.64c-.275.226-.55.339-.859.339-.583 0-.995-.452-.995-1.166 0-.677.412-1.129.995-1.166.31 0 .584.113.859.338l.343-.64c-.343-.3-.687-.413-1.167-.413-1.065 0-1.751.79-1.751 1.88zm6.66 0v-1.805h-.72v.452a1.203 1.203 0 00-1.03-.527c-.927 0-1.649.79-1.649 1.88 0 1.092.722 1.881 1.649 1.881.48 0 .824-.188 1.03-.526v.451h.72V32.12zm-2.643 0c0-.639.378-1.165.995-1.165.584 0 .996.489.996 1.166 0 .64-.412 1.166-.995 1.166-.619-.038-.996-.527-.996-1.166zm-8.618-1.88c-.962 0-1.648.752-1.648 1.88 0 1.13.686 1.881 1.682 1.881.48 0 .962-.15 1.34-.489l-.344-.564c-.275.226-.618.376-.962.376-.446 0-.892-.225-.995-.865H21.7v-.3c.034-1.167-.584-1.919-1.511-1.919zm0 .677c.446 0 .755.301.824.865h-1.717c.069-.489.378-.865.893-.865zm17.888 1.204v-3.235h-.72v1.88a1.203 1.203 0 00-1.03-.526c-.928 0-1.649.79-1.649 1.88 0 1.092.721 1.881 1.648 1.881.48 0 .824-.188 1.03-.526v.451h.721V32.12zm-2.644 0c0-.64.378-1.166.996-1.166.584 0 .996.489.996 1.166 0 .64-.412 1.166-.996 1.166-.618-.038-.996-.527-.996-1.166zm-24.103 0v-1.805h-.72v.45a1.203 1.203 0 00-1.03-.526c-.928 0-1.649.79-1.649 1.88 0 1.092.721 1.881 1.648 1.881.481 0 .824-.188 1.03-.526v.451h.721V32.12zm-2.678 0c0-.64.378-1.166.996-1.166.584 0 .996.489.996 1.166 0 .64-.412 1.166-.996 1.166-.618-.038-.996-.527-.996-1.166z" fill="#fff"/><path d="M25.408 2.896H14.592v21.288h10.816V2.896z" fill="#FF5F00"/><path d="M15.279 13.54c0-4.325 1.854-8.162 4.704-10.644C17.888 1.091 15.245 0 12.36 0 5.529 0 0 6.055 0 13.54c0 7.484 5.528 13.54 12.36 13.54 2.885 0 5.528-1.091 7.623-2.896-2.85-2.445-4.704-6.319-4.704-10.644z" fill="#EB001B"/><path d="M40 13.54c0 7.484-5.528 13.54-12.36 13.54-2.885 0-5.529-1.091-7.623-2.896 2.884-2.483 4.704-6.319 4.704-10.644s-1.854-8.162-4.704-10.644C22.112 1.091 24.755 0 27.64 0 34.472 0 40 6.093 40 13.54z" fill="#F79E1B"/></g><defs><clipPath id="clip0"><path fill="#fff" d="M0 0h40v34H0z"/></clipPath></defs></svg>