<svg width="118" height="90" fill="none" xmlns="http://www.w3.org/2000/svg"><path d="M18.308 59.88C8.522 54.561 2.047 45.791 1.47 35.727c-.862-17.684 16.55-32.923 39-34.073C62.917.504 82.056 13.586 82.92 31.27c1.007 17.684-16.549 32.923-38.998 34.074-2.302.144-4.604.144-6.763-.144-3.022 5.032-9.93 10.208-25.902 9.776 5.612-4.313 7.339-9.776 7.05-15.096z" fill="#A6E3FF"/><path d="M111.845 86.91c-4.749-3.02-7.483-7.19-7.915-12.509 9.354-6.9 14.534-16.533 13.959-26.597-.864-16.965-17.844-30.048-38.566-31.055-2.159-3.162-5.18-6.182-8.778-8.626-8.347-5.75-18.995-8.626-30.22-8.05-11.224.574-21.585 4.6-29.212 11.357C3.486 18.187-.4 26.813.033 35.727.607 45.791 6.651 54.85 16.868 60.6c.144 5.32-2.015 9.777-6.476 13.227-.431.431-.72 1.007-.431 1.582.144.575.72 1.006 1.295 1.006h1.439c15.11 0 22.16-5.176 25.183-9.776h.863c7.483 10.782 22.305 17.54 38.854 16.677 2.014-.144 4.03-.287 6.188-.719 3.022 3.594 8.922 7.332 19.858 7.332 2.303 0 4.893-.143 7.771-.575.576-.143 1.151-.575 1.151-1.15.144-.287-.144-1.006-.719-1.294zM37.303 63.905h-.288c-.431 0-.72.288-1.007.719-3.31 5.607-10.505 8.626-20.866 9.058C18.74 69.8 20.18 65.2 19.891 59.737c0-.431-.288-.863-.72-1.15-9.929-5.32-15.685-13.659-16.26-23.004-.432-8.05 3.165-15.814 10.217-21.996 7.195-6.183 16.836-10.064 27.341-10.64h2.878c9.498 0 18.563 2.588 25.615 7.62a40.214 40.214 0 016.763 6.183 20.55 20.55 0 012.015 2.875c2.158 3.594 3.453 7.476 3.741 11.645.432 8.051-3.166 15.959-10.217 21.997-7.051 6.182-16.836 9.92-27.341 10.495-1.151 0-2.447.144-3.598 0-1.007.288-2.015.144-3.022.144zm48.207 16.39c-.287-.431-.719-.575-1.15-.575h-.288a52.158 52.158 0 01-6.62.862c-14.678.72-27.917-4.744-35.112-13.802h1.727c11.224-.575 21.585-4.6 29.212-11.214 7.77-6.757 11.656-15.383 11.224-24.44-.288-4.026-1.295-7.764-3.166-11.358 18.42 1.581 33.098 13.227 33.961 28.179.576 9.2-4.317 18.258-13.383 24.584-.431.288-.575.72-.575 1.294.144 5.464 2.302 9.92 6.188 13.37-10.65.72-18.132-1.58-22.018-6.9z" fill="#333"/></svg>