<svg width="373" height="147" fill="none" xmlns="http://www.w3.org/2000/svg"><g opacity=".03" clip-path="url(#clip0)"><path d="M0 143.29V39.3c0-15.203 12.958-26.68 27.735-26.68 14.55 0 27.887 11.858 27.887 26.833v103.761h-14.55V97.376h-26.75v45.837H0v.077zM41.072 38.312c0-7.222-6.744-11.478-13.337-11.478S14.322 31.09 14.322 38.312v45.457h26.75V38.312zm52.364 25.466c-7.199 0-13.185 5.093-13.185 12.466v66.818H65.7V75.864c0-15.583 13.034-26.301 27.887-26.301 2.728 0 5.456.228 8.184.988v14.595c-2.728-.988-5.456-1.368-8.336-1.368zm43.799 80.804c-14.322 0-28.114-10.718-28.114-25.693V27.29h14.549l-.151 24.553h16.065v13.835H123.67l-.151 53.059c0 7.221 7.35 12.086 13.943 12.086 2.728 0 5.608-.38 8.336-.988v13.835c-2.728.76-5.608.912-8.563.912zm21.143-1.521V65.525h-10.685V51.69H172.7v91.371h-14.322zm112.153-28.353h-12.807v4.029c0 7.221 6.745 12.238 13.565 12.238 5.456 0 14.322-2.736 19.627-4.484.379 4.637.985 9.349 1.591 13.986-6.972 2.965-13.792 4.105-21.37 4.105-14.549 0-28.114-11.098-28.114-26.225v-41.58c0-15.204 13.565-27.214 28.342-27.214 18.641 0 28.341 13.606 28.341 30.71-.152 17.332-10.23 34.435-29.175 34.435zm.531-51.919c-7.124 0-13.338 6.006-13.338 13.227v24.705h13.186c10.457 0 14.322-11.63 14.322-20.448 0-8.59-3.865-17.483-14.17-17.483z" fill="#000"/><path d="M232.87 39.832v103.23h-14.322V39.832h-18.793V27.366h51.908v12.542H232.87v-.076z" fill="#000"/><path d="M162.167 0c-12.579 0-22.809 10.262-22.809 22.88 0 12.62 10.23 22.881 22.809 22.881 12.58 0 22.81-10.262 22.81-22.88 0-12.619-10.23-22.881-22.81-22.881z" fill="#0079BE"/><path d="M372.985 146.862l-14.247-15.279c2.728-4.105 4.32-8.894 4.32-14.063V77.308c0-14.975-13.413-26.833-27.887-26.833-14.777 0-27.735 11.478-27.735 26.681v40.592c0 15.204 12.958 26.606 27.735 26.606 4.395 0 8.714-1.14 12.579-3.041l5.153 5.549h20.082zm-37.738-16.723c-6.593 0-13.413-4.257-13.413-11.478V76.168c0-7.222 6.82-11.479 13.413-11.479 6.592 0 13.337 4.257 13.337 11.479v42.493a6.9 6.9 0 01-.228 1.748l-3.182-3.421h-20.082l12.125 12.999c-.682.076-1.364.152-1.97.152z" fill="#000822"/></g><defs><clipPath id="clip0"><path fill="#fff" d="M0 0h372.984v146.862H0z"/></clipPath></defs></svg>