<svg width="126" height="59" fill="none" xmlns="http://www.w3.org/2000/svg"><g clip-path="url(#clip0)"><path d="M75.068 7.025a16.701 16.701 0 011.964 3.302l-14.925 11.15-6.238-3.963v-4.767l6.237 3.962 12.962-9.684z" fill="#21A038"/><path d="M49.503 17.177c0-.213.005-.426.015-.637l-3.78-.188a16.753 16.753 0 001.224 7.182 16.576 16.576 0 003.555 5.383l2.681-2.716a12.735 12.735 0 01-2.736-4.138 12.87 12.87 0 01-.96-4.886z" fill="url(#paint0_linear)"/><path d="M62.103 4.408c.211 0 .42.008.63.018L62.92.594a16.152 16.152 0 00-7.09 1.24 16.329 16.329 0 00-5.314 3.603l2.681 2.717a12.545 12.545 0 014.084-2.774 12.41 12.41 0 014.821-.972z" fill="url(#paint1_linear)"/><path d="M62.103 29.948c-.211 0-.42 0-.63-.017l-.19 3.83a16.14 16.14 0 007.088-1.24 16.318 16.318 0 005.312-3.602l-2.676-2.716a12.553 12.553 0 01-4.084 2.772 12.415 12.415 0 01-4.82.973z" fill="url(#paint2_linear)"/><path d="M69.205 6.636l3.186-2.38A16.176 16.176 0 0062.098.574v3.835a12.42 12.42 0 017.107 2.228z" fill="url(#paint3_linear)"/><path d="M78.487 17.177a16.93 16.93 0 00-.257-2.975l-3.527 2.634v.341a12.88 12.88 0 01-1.083 5.18 12.729 12.729 0 01-3.068 4.285l2.544 2.849a16.553 16.553 0 003.987-5.576 16.751 16.751 0 001.404-6.738z" fill="#21A038"/><path d="M62.103 29.947c-1.76 0-3.502-.373-5.11-1.098a12.583 12.583 0 01-4.23-3.108l-2.81 2.576a16.352 16.352 0 005.502 4.041 16.156 16.156 0 006.648 1.424v-3.835z" fill="url(#paint4_linear)"/><path d="M53.654 7.713L51.11 4.864a16.554 16.554 0 00-3.988 5.576 16.75 16.75 0 00-1.405 6.737h3.785a12.9 12.9 0 011.083-5.179c.715-1.63 1.76-3.09 3.068-4.285z" fill="url(#paint5_linear)"/><path d="M39.088 45.806l3.46-2.555H30.966v15.351h11.582v-2.555h-8.277v-3.932h7.061v-2.554h-7.06v-3.755h4.816zm-15.915 3.425h-4.02v-3.427h6.417l3.458-2.562H15.85v15.351h6.899c3.867 0 6.087-1.756 6.087-4.82 0-2.93-2.01-4.542-5.662-4.542zm-.574 6.807h-3.447v-4.254H22.6c2.092 0 3.073.713 3.073 2.127 0 1.414-1.044 2.127-3.073 2.127zm28.463-12.789h-6.304v15.35h3.304v-4.348h3c4.023 0 6.51-2.12 6.51-5.51 0-3.388-2.487-5.492-6.51-5.492zm-.07 8.445h-2.93v-5.889h2.93c2.116 0 3.284 1.047 3.284 2.946 0 1.9-1.168 2.944-3.283 2.944zM10.89 54.977a5.76 5.76 0 01-2.78.697c-2.906 0-5.013-2.078-5.013-4.94 0-2.861 2.107-4.944 5.013-4.944a4.905 4.905 0 012.928.908l2.311-1.705-.156-.112c-1.349-1.188-3.15-1.817-5.213-1.817-2.236 0-4.265.754-5.713 2.126a7.414 7.414 0 00-2.266 5.467 7.674 7.674 0 002.253 5.547c1.455 1.426 3.478 2.212 5.7 2.212 2.32 0 4.348-.811 5.721-2.287l-2.069-1.545-.716.393zm59.786-5.746h-4.02v-3.427h8.638v-2.562H63.351v15.351h6.89c3.867 0 6.087-1.756 6.087-4.82.01-2.93-2-4.542-5.652-4.542zm-.574 6.807h-3.446v-4.254h3.446c2.091 0 3.072.713 3.072 2.127 0 1.414-1.035 2.127-3.072 2.127zm43.796 2.533h-3.35v-15.35h3.35v6.447h1.823l4.924-6.448h3.797l-5.84 7.303 6.781 8.048h-4.445l-4.984-6.037h-2.056v6.037zM88.5 55.654h-7.087l-1.201 2.98h-3.566l6.647-15.35h3.565l6.539 15.35H89.7l-1.201-2.98zm-1.11-2.782l-2.413-5.962-2.426 5.962h4.839zm10.517-9.588v6.41h6.933v-6.41h3.454v15.35h-3.454v-6.048h-6.933v6.049h-3.454V43.284h3.454z" fill="#21A038"/></g><defs><linearGradient id="paint0_linear" x1="51.282" y1="28.439" x2="47.047" y2="16.358" gradientUnits="userSpaceOnUse"><stop offset=".14" stop-color="#F1E813"/><stop offset=".3" stop-color="#E6E418"/><stop offset=".58" stop-color="#C9DA26"/><stop offset=".89" stop-color="#A2CC39"/></linearGradient><linearGradient id="paint1_linear" x1="51.597" y1="6.115" x2="62.285" y2="2.096" gradientUnits="userSpaceOnUse"><stop offset=".06" stop-color="#0FA7DF"/><stop offset=".54" stop-color="#0098F8"/><stop offset=".92" stop-color="#0290EA"/></linearGradient><linearGradient id="paint2_linear" x1="61.034" y1="31.468" x2="73.095" y2="28.779" gradientUnits="userSpaceOnUse"><stop offset=".12" stop-color="#A2CC39"/><stop offset=".28" stop-color="#86C239"/><stop offset=".87" stop-color="#219F38"/></linearGradient><linearGradient id="paint3_linear" x1="61.31" y1="1.857" x2="71.632" y2="5" gradientUnits="userSpaceOnUse"><stop offset=".06" stop-color="#0290EA"/><stop offset=".79" stop-color="#0C89CA"/></linearGradient><linearGradient id="paint4_linear" x1="50.903" y1="27.851" x2="62.148" y2="31.998" gradientUnits="userSpaceOnUse"><stop offset=".13" stop-color="#F1E813"/><stop offset=".3" stop-color="#EAE616"/><stop offset=".53" stop-color="#D8DF1F"/><stop offset=".8" stop-color="#BAD52D"/><stop offset=".98" stop-color="#A2CC39"/></linearGradient><linearGradient id="paint5_linear" x1="47.128" y1="17.642" x2="51.733" y2="5.821" gradientUnits="userSpaceOnUse"><stop offset=".07" stop-color="#A2CC39"/><stop offset=".26" stop-color="#81C45E"/><stop offset=".92" stop-color="#0FA7DF"/></linearGradient><clipPath id="clip0"><path fill="#fff" transform="translate(0 .573)" d="M0 0h125.161v57.709H0z"/></clipPath></defs></svg>