<svg width="146" height="66" fill="none" xmlns="http://www.w3.org/2000/svg"><g clip-path="url(#clip0)" fill="#D1D1D1"><path d="M68.163 29.177c-5.68-2.604-9.467-7.258-10.65-12.229-.553-2.84.473-4.654 1.104-5.68.71-1.104 1.578-1.183 1.578-1.183s-.868-.395-2.052-.631c-1.499-.237-3.392-.08-4.654 1.814-.868 2.13-1.42 4.497-1.42 6.942 0 4.734 1.814 10.178 7.258 14.517 1.499 1.104 3.234 1.972 5.049 2.603.236.079.473.158.789.237.789.236 1.578.394 2.366.473h.158c.237 0 .474.079.71.079.316 0 .71.079 1.026.079h1.657c.315 0 .63-.079 1.025-.079h.08c.236 0 .551-.079.788-.158l.473-.079h.08c2.997-.63 5.522-1.972 7.415-3.392a21.028 21.028 0 002.998-2.919c-4.418 2.051-10.335 2.13-15.778-.395zM58.46 8.191c3.076-3.944 7.81-6.469 13.174-6.469 3.945 0 7.653 1.42 10.493 3.708C78.892 2.432 74.632.618 69.898.618c-6.311 0-11.754 3.234-14.99 8.125.948-.473 2.289-.788 3.551-.552z"/><path d="M69.03 27.757c2.21 1.262 4.734 1.972 7.1 2.209a11.19 11.19 0 002.84-1.105c3.473-2.13 13.65-16.251 13.65-16.251s-5.522-1.104-7.968.632c-2.446 1.735-4.181 4.575-6.864 7.573-2.682 2.998-3.865 4.892-6.232 5.523-1.736.473-3.393.394-4.892 0 .79.473 1.5.946 2.367 1.42z"/><path d="M85.519 28.387c2.13-1.577 7.1-8.362 7.1-8.362s-3.787-1.972-7.258 0c-3.471 2.051-3.392 2.524-6.785 5.365-3.47 2.84-5.995 3.155-7.889 2.997h-.315c4.891 2.367 11.36 2.762 15.147 0zM92.777.618s-5.68-1.578-10.02 2.209c-3.155 2.76-9.94 20.985-15.305 22.01-1.025.237-1.893.237-2.524.158.868.08 1.972.08 3.156-.158 5.364-1.025 12.386-17.908 15.7-20.511 3.234-2.604 7.178-1.894 7.178-1.894L87.885 8.35M14.91 46.602c.553 0 1.026.474 1.026 1.026v1.026c0 .552-.473 1.025-1.025 1.025h-4.892v11.597c0 .553-.473 1.026-1.025 1.026H6.942a1.044 1.044 0 01-1.025-1.026V49.68H1.026A1.044 1.044 0 010 48.654v-1.026c0-.552.473-1.026 1.026-1.026m27.533 9.703c0 4.102-2.367 6.232-5.917 6.232-1.341 0-2.21-.236-3.156-.552v3.392c0 .395-.315.71-.71.71h-2.445c-.395 0-.632-.315-.632-.71V51.02c0-.394.316-.63.632-.63h2.13c.394 0 .63.315.63.63v.316c1.026-.71 2.21-1.263 3.866-1.263 3.235 0 5.602 2.13 5.602 6.233zm-9.073-2.603v5.759c.947.315 1.815.473 2.367.473 2.051 0 2.761-1.104 2.761-3.629 0-2.446-.71-3.55-2.524-3.55-.79-.08-1.815.473-2.604.947zm14.832-.395c-.316.395-.71.552-1.262.552h-1.657a.622.622 0 01-.631-.63c0-2.368 2.367-3.157 5.996-3.157 3.234 0 5.759 1.342 5.759 4.813v6.785c0 .394-.316.63-.71.63h-2.13c-.395 0-.71-.315-.71-.63v-.316c-1.026.71-2.21 1.262-3.945 1.262-2.919 0-5.207-1.34-5.207-3.865 0-2.525 2.21-3.787 5.207-3.787h3.63c0-1.736-.71-2.288-2.21-2.288-.947-.158-1.736.158-2.13.631zm4.34 5.76V57.33h-3.393c-1.026 0-1.657.552-1.657 1.34 0 .79.631 1.342 1.736 1.342 1.42 0 2.524-.474 3.313-.947zm10.334-4.182h4.812V50.94c0-.394.316-.63.631-.63h2.446c.395 0 .71.315.71.63v10.65c0 .395-.316.632-.71.632h-2.446a.622.622 0 01-.63-.631v-4.103h-4.813v4.103c0 .394-.316.63-.71.63h-2.446c-.394 0-.71-.315-.71-.63V50.94c0-.395.316-.632.71-.632h2.446c.394 0 .71.316.71.631m14.516 5.366c0 2.446.71 3.55 2.998 3.55 1.183 0 1.972-.394 2.367-1.026.315-.473.71-.788 1.262-.788h1.657c.394 0 .63.315.63.63 0 2.525-2.366 3.787-6.232 3.787-4.26 0-6.627-2.13-6.627-6.232s2.367-6.233 6.47-6.233c3.865 0 6.232 1.263 6.232 3.787 0 .395-.316.631-.71.631h-1.657c-.552 0-.946-.315-1.262-.788-.394-.632-1.183-1.026-2.367-1.026-2.05.079-2.76 1.183-2.76 3.708zm14.437-1.42h4.813V50.94c0-.394.315-.63.71-.63h2.445c.395 0 .631.315.631.63v10.65a.622.622 0 01-.63.632h-2.446c-.395 0-.71-.316-.71-.631v-4.103h-4.813v4.103a.622.622 0 01-.63.63h-2.447c-.394 0-.71-.315-.71-.63V50.94c0-.395.316-.632.71-.632h2.446c.395 0 .631.316.631.631m14.516 6.471c.158 1.814.947 2.603 2.84 2.603.947 0 1.736-.237 2.13-.71.316-.395.71-.552 1.263-.552h1.656c.395 0 .71.315.71.71 0 2.367-2.366 3.156-5.995 3.156-4.024 0-6.39-2.13-6.39-6.233 0-4.023 2.445-6.232 6.39-6.232 4.023 0 6.39 2.13 6.39 6.074v.631c0 .395-.316.632-.71.632l-8.284-.08zm0-2.288h5.128c-.079-1.657-.868-2.604-2.524-2.604-1.657 0-2.525.947-2.604 2.604zm16.725-7.89c0-.394.316-.71.71-.71h2.446c.394 0 .71.316.71.71v2.998c4.26.08 6.627 2.052 6.627 5.996 0 3.866-2.367 5.917-6.627 5.996v2.998c0 .394-.316.71-.71.71h-2.446a.707.707 0 01-.71-.71v-2.998c-4.26-.079-6.627-2.13-6.627-5.996 0-3.944 2.367-5.917 6.627-5.996v-2.998zm0 5.444c-1.972 0-2.919 1.104-2.919 3.629s.947 3.629 2.919 3.629v-7.258zm3.708 7.18c1.973 0 2.919-1.105 2.919-3.63 0-2.524-.946-3.55-2.919-3.629v7.258zm18.382-9.546c.395 0 .71.315.71.63v1.263c0 .394-.315.71-.71.71h-3.471v8.678c0 .394-.316.63-.71.63h-2.446c-.394 0-.71-.315-.71-.63v-8.678h-3.471a.707.707 0 01-.71-.71V50.94c0-.394.316-.63.71-.63m20.196 3.944c2.919 0 4.891.947 4.891 4.023 0 3.077-1.972 4.024-4.891 4.024h-6.469c-.395 0-.71-.316-.71-.631V51.02c0-.395.315-.632.71-.632h2.446c.394 0 .631.316.631.631v3.314l3.392-.08zm-3.392 2.524v3.077h2.998c.867 0 1.42-.552 1.42-1.499 0-.947-.553-1.499-1.42-1.499h-2.998v-.079z"/></g><defs><clipPath id="clip0"><path fill="#fff" transform="translate(0 .292)" d="M0 0h145.161v65.48H0z"/></clipPath></defs></svg>