<svg width="113" height="51" fill="none" xmlns="http://www.w3.org/2000/svg"><g clip-path="url(#clip0)" fill="#D1D1D1"><path d="M79.543 4.992v1.82H95.14c1.04 0 2.6 0 3.64 1.04s1.04 2.6 1.04 3.639v15.596c0 1.04 0 2.6-1.04 3.64s-2.6 1.04-3.64 1.04h-7.538c-1.3 0-2.99 0-3.64-1.43-.65-1.43.26-2.73 1.04-3.77L95.14 13.052H79.543l-6.238 8.318c-1.045 1.393-1.95 2.6-1.95 4.159 0 1.56.842 2.683 1.95 4.159l1.56 2.08c1.559 2.08 3.119 4.159 5.198 5.199 2.08 1.04 4.55 1.04 7.929 1.04h6.758c3.9 0 9.748 0 13.647-3.9 3.9-3.9 3.9-9.618 3.9-11.698V16.17c0-2.08 0-7.798-3.9-11.698C104.498.573 98.649.578 94.75.577L83.963.573c-1.04 0-2.34 0-3.38 1.04s-1.04 2.34-1.04 3.38z"/><path d="M60.827 13.05h15.597L57.708 38.005H42.11L60.827 13.05zM0 17.47c0-1.04 0-2.34 1.04-3.38s2.34-1.04 3.38-1.04h26.124c3.379 0 5.848 0 7.928 1.04s3.64 3.12 5.199 5.2l1.56 2.079c1.107 1.476 1.95 2.6 1.95 4.159 0 1.56-.906 2.766-1.95 4.159l-6.24 8.318H23.396l10.138-13.517c.78-1.04 1.69-2.34 1.04-3.77-.65-1.429-2.34-1.429-3.64-1.429H18.716v31.194H6.24V19.29H0v-1.82z"/></g><defs><clipPath id="clip0"><path fill="#fff" transform="translate(0 .573)" d="M0 0h112.198v49.796H0z"/></clipPath></defs></svg>