<svg width="153" height="60" fill="none" xmlns="http://www.w3.org/2000/svg"><g clip-path="url(#clip0)"><path d="M0 58.54V16.056c0-6.211 5.316-10.9 11.377-10.9 5.968 0 11.44 4.844 11.44 10.962v42.391h-5.969V39.782H5.875V58.51H0v.031zm16.848-42.888c0-2.95-2.766-4.69-5.47-4.69-2.705 0-5.503 1.74-5.503 4.69v18.572h10.973V15.652zm21.48 10.404c-2.953 0-5.41 2.08-5.41 5.093v27.298h-5.967V30.994c0-6.367 5.346-10.745 11.439-10.745 1.119 0 2.238.093 3.357.403v5.963c-1.119-.404-2.238-.559-3.42-.559zm17.967 33.012c-5.875 0-11.533-4.378-11.533-10.496V11.148h5.969l-.063 10.031h6.59v5.652h-6.527l-.063 21.677c0 2.95 3.016 4.938 5.72 4.938 1.12 0 2.3-.155 3.42-.404v5.653c-1.12.31-2.3.372-3.513.372zm8.672-.621V26.77h-4.383v-5.652h10.258v37.329h-5.875zm46.006-11.584h-5.253v1.646c0 2.95 2.766 5 5.564 5 2.238 0 5.875-1.118 8.051-1.832.155 1.894.404 3.82.653 5.714-2.86 1.212-5.658 1.677-8.766 1.677-5.968 0-11.533-4.534-11.533-10.714V31.366c0-6.21 5.565-11.117 11.626-11.117 7.647 0 11.626 5.559 11.626 12.546-.062 7.08-4.197 14.068-11.968 14.068zm.218-21.21c-2.922 0-5.471 2.453-5.471 5.403v10.093h5.409c4.289 0 5.875-4.751 5.875-8.354 0-3.51-1.586-7.143-5.813-7.143z" fill="#000"/><path d="M95.524 16.273v42.174h-5.875V16.273h-7.71V11.18h21.294v5.124h-7.709v-.03z" fill="#000"/><path d="M66.522 0c-5.16 0-9.357 4.193-9.357 9.348 0 5.155 4.197 9.348 9.357 9.348 5.16 0 9.356-4.193 9.356-9.348C75.878 4.193 71.682 0 66.522 0z" fill="#0079BE"/><path d="M153 60l-5.844-6.242c1.119-1.677 1.772-3.634 1.772-5.745V31.584c0-6.118-5.502-10.963-11.439-10.963-6.062 0-11.377 4.69-11.377 10.9v16.585c0 6.21 5.315 10.87 11.377 10.87 1.802 0 3.574-.466 5.16-1.243L144.762 60H153zm-15.48-6.832c-2.705 0-5.502-1.74-5.502-4.69v-17.36c0-2.95 2.797-4.69 5.502-4.69 2.704 0 5.471 1.74 5.471 4.69v17.36c0 .249-.031.466-.094.715l-1.305-1.398h-8.238l4.974 5.31c-.28.032-.56.063-.808.063z" fill="#000822"/></g><defs><clipPath id="clip0"><path fill="#fff" d="M0 0h153v60H0z"/></clipPath></defs></svg>