<svg width="81" height="82" fill="none" xmlns="http://www.w3.org/2000/svg"><path d="M40.274 81.024c22.217 0 40.227-18.044 40.227-40.301C80.5 18.465 62.49.42 40.274.42 18.058.421.048 18.465.048 40.723c0 22.257 18.01 40.3 40.226 40.3z" fill="#D1D1D1"/><path d="M40.214 79.084c21.195 0 38.376-17.182 38.376-38.376 0-21.195-17.181-38.376-38.376-38.376C19.02 2.332 1.84 19.513 1.84 40.708c0 21.194 17.181 38.376 38.375 38.376z" fill="#D1D1D1"/><path d="M40.15 75.643c19.34 0 35.02-15.579 35.02-34.796 0-19.216-15.68-34.795-35.02-34.795-19.34 0-35.02 15.579-35.02 34.795 0 19.217 15.68 34.796 35.02 34.796z" fill="#fff"/><path fill-rule="evenodd" clip-rule="evenodd" d="M43.685 14.914l-.662 29.915c1.277.207 2.752.263 4.212.438 1.085-10.05 1.982-19.976 3.15-29.868l-6.7-.485zm-16.28.182c-.3.002-.601.008-.904.02l.291 6.458a13.098 13.098 0 013.191.292c1.658.35 3.43 1.092 3.639 2.959.322 2.885-2.273 4.896-5.515 5.002l.187 3.564c2.104.115 4.446.73 5.53 2.235.358.497.614 1.18.618 2.027.007 1.4-.725 2.765-1.725 3.614-1.252 1.061-3.287 1.496-5.274 1.384l-.023 2.353c5.54.124 10.78-1.28 12.68-5.073.459-.913.893-2.315.881-3.445-.028-1.948-.897-3.23-1.794-4.05-1.113-1.022-2.573-1.665-4.03-2.108 2.824-1.303 5.446-3.533 4.99-7.288-.195-1.598-.873-3.051-1.67-4.064-2.339-2.971-6.564-3.914-11.071-3.88zM25.408 16.3l-7.643 1.24c1.73 9.253 3.563 18.084 5.292 27.189 1.074-.056 2.111-.068 3.199-.14-.332-9.301-.491-19.43-.848-28.29zm25.728.116l-.643 6.905c1.656.368 3.418 1.02 4.224 2.422.75 1.303.447 3.126-.271 4.067-.985 1.293-2.876 2.058-4.81 2.554-.164 1.19-.28 2.416-.459 3.595l5.568 8.882 3.574-.654-3.446-9.225c3.55-1.44 6.241-3.703 7.135-7.075.925-3.504-.351-6.963-2.517-8.784-2.078-1.745-5.137-2.534-8.355-2.687zm-9.134 29.932c-.127 3.354-.399 6.597-.558 9.927l3.577-3.458 1.899 2.66 1.583-1.08-2.121-2.892 1.786-1.727c-.447-.37-.89-.742-1.308-1.148l-3.31 3.214c.12-1.807.299-3.562.363-5.408l-1.91-.088zm8.188.918c-.626.031-1.112.53-1.084 1.12.027.586.558 1.041 1.184 1.013.63-.032 1.113-.534 1.085-1.12-.024-.59-.559-1.041-1.185-1.014zm-27.407.067l-1.867.256 1.239 9.16 1.866-.25-.1-.738c.556.235 1.18.327 1.824.243 1.88-.255 3.21-1.938 2.964-3.757-.245-1.815-1.974-3.083-3.853-2.832a3.51 3.51 0 00-1.695.718l-.378-2.8zm17.612 1.193c-.036.004-.076.008-.112.016-1.602.526-3.239 1.256-2.753 3.079.118.438.438 1.029.666 1.52.255.55.672 1.092.667 1.523-.008.71-.918 1.06-1.567 1.192.218.355.345.834.565 1.189 1.25-.255 2.27-.79 2.725-1.576.567-.989-.06-1.87-.498-2.811-.192-.415-.686-1.324-.69-1.695-.004-.686.861-1.093 1.511-1.185-.015-.363-.367-.841-.514-1.252zm12.583.2l-.343 7.334 1.923.08.115-3.2 4.367 4.44.343-7.335-1.922-.08-.116 3.195-4.367-4.435zm-18.332 1.216l-.003.773a3.512 3.512 0 00-1.728-.63c-1.89-.16-3.553 1.197-3.707 3.023-.152 1.827 1.26 3.442 3.15 3.602a3.528 3.528 0 001.81-.331l-.062.738 1.877.155.54-7.17-1.877-.16zm16.641 0l-1.922.063.2 6.15 1.925-.063-.203-6.15zM25.43 51.17c.767.044 1.413.582 1.513 1.316.113.842-.53 1.628-1.436 1.747-.905.124-1.734-.462-1.848-1.3-.113-.842.53-1.627 1.436-1.751.113-.012.225-.016.335-.012zm7.337.694c.91.076 1.593.826 1.522 1.671-.071.846-.87 1.472-1.78 1.396-.91-.076-1.593-.825-1.522-1.671.071-.846.87-1.472 1.78-1.396zm8.028 4.782l-1.7.048.236 8.343 1.7-.047-.02-.67a3.147 3.147 0 001.614.39c1.711-.047 3.067-1.431 3.02-3.086-.044-1.652-1.476-2.96-3.187-2.912a3.172 3.172 0 00-1.591.479l-.072-2.545zm6.728 0c-.574-.032-1.065.363-1.097.886-.032.522.407.973.978 1.009.574.035 1.06-.36 1.096-.882.032-.522-.407-.977-.977-1.013zm1.903.367l-.156 7.283 1.83.075-.035-2.963 4.112 4.371.195-7.02-1.699-.035-.111 3.04-4.136-4.751zm-16.952.905l-.225 8.348 1.7.044.018-.67a3.162 3.162 0 001.59.478c1.712.048 3.14-1.26 3.185-2.915.044-1.651-1.311-3.035-3.024-3.083a3.144 3.144 0 00-1.612.395l.068-2.549-1.7-.048zm-8.96.104l-2.125.192.716 7.777 2.085-.188-.288-3.134c-.18-1.432.398-2.673 1.896-2.49l-.163-1.926c-.69-.131-1.777.268-2.055.583l-.066-.814zm35.523.048c-1.455.243-2.64.913-2.891 1.938-.212.878.359 1.675.674 2.43.195.47.686 1.323.694 1.738.008.742-.881 1.049-1.504 1.177.148.45.323.857.51 1.248 1.21-.192 2.127-.658 2.573-1.32.658-.977-.02-2.226-.434-3.207-.244-.578-.635-1.224-.623-1.635.024-.722.918-.99 1.512-1.12-.144-.455-.351-.822-.51-1.25zm-12.583.714l-.339 5.512 1.727.107.34-5.512-1.728-.107zm14.968.622a1.489 1.489 0 00-.53.136 1.313 1.313 0 00-.566.486c-.144.22-.228.455-.244.702-.016.247.028.487.14.722.108.231.271.419.487.562.215.14.45.22.698.24a1.48 1.48 0 00.721-.14 1.36 1.36 0 00.563-.49 1.45 1.45 0 00.096-1.42 1.305 1.305 0 00-.495-.563 1.408 1.408 0 00-.686-.231.945.945 0 00-.183-.004zm-32.971.2c-.107.003-.215.015-.324.027-1.732.236-2.962 1.76-2.74 3.398.221 1.636 1.81 2.78 3.544 2.545 1.733-.235 2.962-1.759 2.74-3.394-.207-1.536-1.617-2.636-3.22-2.577zm33.135.087c.196.012.379.076.554.184.172.111.303.259.395.45.092.192.128.383.116.587-.016.195-.08.383-.191.558a1.107 1.107 0 01-.455.39 1.13 1.13 0 01-.578.112 1.118 1.118 0 01-.559-.19 1.072 1.072 0 01-.39-.452 1.172 1.172 0 01-.112-.578c.016-.203.08-.39.195-.566a1.132 1.132 0 011.025-.495zm-.67.351l-.108 1.5.307.024.044-.618.08.008a.323.323 0 01.207.08c.052.043.116.15.188.322l.108.252.383.027-.156-.319c-.056-.111-.092-.171-.1-.187a.668.668 0 00-.096-.124.288.288 0 00-.1-.063.479.479 0 00.308-.124.418.418 0 00-.048-.642.559.559 0 00-.231-.076 7.188 7.188 0 00-.483-.04l-.303-.02zm.287.26l.128.007c.171.012.279.028.323.044.044.02.076.044.1.08a.18.18 0 01.028.112.2.2 0 01-.048.115.184.184 0 01-.104.064 1.811 1.811 0 01-.331-.004l-.124-.008.028-.41zm-18.701.02c.825-.025 1.511.578 1.535 1.347.02.766-.634 1.404-1.455 1.428-.826.024-1.516-.578-1.536-1.344-.024-.766.63-1.408 1.456-1.432zm-13.84.837c.746.036 1.373.538 1.467 1.228.05.371-.061.742-.313 1.05a1.691 1.691 0 01-1.094.593c-.882.12-1.686-.422-1.793-1.212-.106-.786.525-1.523 1.407-1.643.11-.016.22-.02.326-.016zm7.013.57c.824.024 1.478.662 1.457 1.428-.02.77-.708 1.372-1.532 1.352-.824-.024-1.478-.666-1.457-1.432.02-.766.708-1.372 1.532-1.348z" fill="#D1D1D1"/></svg>