<svg width="89" height="60" fill="none" xmlns="http://www.w3.org/2000/svg"><g clip-path="url(#clip0)" fill="#D1D1D1"><path d="M14.803 1.975v16.362h-4.051v-6.078H4.129v6.155H.078V2.053h4.05v6.545h6.624V2.053h4.05v-.078zm46.745 16.36h-4.05v-8.18l-3.662 5.61h-2.261l-3.66-5.687v8.258h-4.052V1.975h3.039l5.765 8.726 5.765-8.726h3.038v16.362l.078-.001zM29.371 1.276c-6.466 0-11.686 4.985-11.686 11.14 0 2.181.623 4.208 1.792 5.92h5.61c-1.714-1.323-2.805-3.349-2.805-5.686 0-3.896 3.194-7.09 7.09-7.09 3.895 0 7.09 3.194 7.09 7.09 0 2.337-1.091 4.363-2.805 5.687h5.609c1.09-1.713 1.792-3.74 1.792-5.92 0-6.156-5.222-11.143-11.686-11.143v.001zM68.95 5.56v2.96h7.246v3.427h-7.245v2.805h8.258v3.506H64.82V1.897h12.39v3.506h-8.26v.156zM14.634 54.367c0 2.727-2.182 4.518-5.843 4.518H.532v-16.36h7.79c3.584 0 5.61 1.714 5.61 4.363 0 1.48-.857 3.116-2.26 3.583 1.948.468 2.961 2.182 2.961 3.896zm-10.05-8.492v3.427h3.039c1.558 0 2.415-.778 2.415-1.79 0-1.015-.857-1.56-2.415-1.56h-3.04v-.077zm6.077 7.947c0-1.014-.858-1.558-2.338-1.558h-3.74v3.272h3.662c1.636 0 2.416-.701 2.416-1.714zm16.516 2.26h-6.934l-1.09 2.803H14.79l6.934-16.36h3.895l6.934 16.361H28.19l-1.013-2.805zm-1.324-3.351L23.671 47.2l-2.182 5.532h4.363zm23.14-10.207v16.363h-3.117l-7.869-8.961v8.96h-4.05V42.525h3.116l7.869 9.194v-9.194h4.05zm9.894 10.285l-2.415 2.804v3.352H52.42V42.603h4.052v7.48l6.544-7.48h4.83l-6.232 7.168 6.778 9.195h-5.064l-4.441-6.156zM29.292 38.611l-3.116-4.752h-3.038v4.752h-4.13V22.25h7.168c4.052 0 6.778 2.182 6.778 5.765 0 2.104-1.013 3.896-2.727 4.909l3.818 5.687h-4.753zm-6.233-8.335h3.04c1.558 0 2.804-.857 2.804-2.182 0-1.324-1.247-2.181-2.804-2.181h-3.04v4.363zm17.063-4.441v2.96h7.245v3.427h-7.245v2.806h8.258v3.505H35.992V22.172H48.38v3.507h-8.258v.156zm26.412 4.596c0 4.83-3.662 8.258-8.805 8.258h-6.544V22.33h6.544c5.065-.079 8.805 3.271 8.805 8.102zm-4.13 0c0-2.494-2.026-4.44-4.674-4.44h-2.494v9.037h2.494c2.648-.078 4.674-2.026 4.674-4.597zm10.362-8.181v16.362h-4.052V22.25l4.052.001zm15.582 3.662h-4.674v12.7h-4.052v-12.7h-4.674V22.25h13.4v3.662zm-75.962 6.856c-.623 1.48-1.948 2.416-3.74 2.416-2.648 0-4.519-1.949-4.519-4.675 0-2.727 1.87-4.674 4.52-4.674 1.791 0 3.116.856 3.74 2.415h4.284c-.857-3.74-3.895-6.233-8.024-6.233-4.909 0-8.648 3.584-8.648 8.492 0 4.908 3.74 8.492 8.648 8.492 4.129 0 7.167-2.493 8.024-6.233h-4.284z"/><path d="M29.372 17.09c-1.791 0-3.272-1.169-3.818-2.805h7.636c-.545 1.636-2.025 2.805-3.818 2.805z"/></g><defs><clipPath id="clip0"><path fill="#fff" transform="translate(0 .573)" d="M0 0h88.198v58.798H0z"/></clipPath></defs></svg>