<svg width="35" height="30" viewBox="0 0 35 30" fill="none" xmlns="http://www.w3.org/2000/svg">
<path d="M3.4489 29.0749C1.14964 27.5771 0 25.9031 0 24.0529C0 23.7004 0.0851569 23.2599 0.255472 22.7313C0.510947 20.4405 1.23479 17.7533 2.42701 14.6696L3.32117 11.8943C3.74696 10.1322 4.4708 8.45815 5.4927 6.87225C6.59976 5.28634 8.04745 3.43612 9.83577 1.32158C9.83577 1.14537 9.9635 1.01322 10.219 0.925106C10.4745 0.748897 10.8151 0.616738 11.2409 0.528634C11.7518 0.352419 12.3054 0.176209 12.9015 0H14.0511C14.3917 0 14.6898 0.088102 14.9453 0.264311C15.2007 0.352421 15.4988 0.572688 15.8394 0.925106V1.45374C15.8394 2.24669 15.4136 3.21586 14.562 4.36123C11.326 9.82378 9.28224 13.7885 8.43065 16.2555C8.43065 16.6079 8.38807 16.9163 8.30292 17.1806C9.75061 16.9163 11.2409 17.4449 12.7737 18.7665C13.9659 20 14.562 21.2335 14.562 22.467C14.562 24.4053 13.1144 26.3877 10.219 28.4141C8.51581 29.4714 7.28102 30 6.5146 30C6.08881 30 5.06691 29.6916 3.4489 29.0749ZM22.6095 29.0749C20.3102 27.5771 19.1606 25.9031 19.1606 24.0529C19.1606 23.7004 19.2457 23.2599 19.4161 22.7313C19.6715 20.4405 20.3954 17.7533 21.5876 14.6696L22.4818 11.8943C22.9075 10.1322 23.6314 8.45815 24.6533 6.87225C25.7603 5.28634 27.208 3.43612 28.9963 1.32158C28.9963 1.14537 29.1241 1.01322 29.3796 0.925106C29.635 0.748897 29.9757 0.616738 30.4015 0.528634C30.9124 0.352419 31.4659 0.176209 32.062 0H33.2117C33.5523 0 33.8504 0.088102 34.1058 0.264311C34.3613 0.352421 34.6594 0.572688 35 0.925106V1.45374C35 2.24669 34.5742 3.21586 33.7226 4.36123C30.4866 9.82378 28.4428 13.7885 27.5912 16.2555C27.5912 16.6079 27.5487 16.9163 27.4635 17.1806C28.9112 16.9163 30.4015 17.4449 31.9343 18.7665C33.1265 20 33.7226 21.2335 33.7226 22.467C33.7226 24.4053 32.2749 26.3877 29.3796 28.4141C27.7616 29.4714 26.5268 30 25.6752 30C25.2494 30 24.2275 29.6916 22.6095 29.0749Z" fill="#0079BE"/>
</svg>
