<svg width="34" height="40" viewBox="0 0 34 40" fill="none" xmlns="http://www.w3.org/2000/svg">
<path fill-rule="evenodd" clip-rule="evenodd" d="M16.5838 1.9761C16.7791 1.78084 17.0957 1.78084 17.2909 1.9761L19.2928 3.97793C19.6779 4.36312 20.2417 4.50921 20.7655 4.35955L23.6324 3.54043C23.8942 3.46565 24.1676 3.61398 24.2477 3.87415L25.05 6.48155C25.1992 6.9666 25.5836 7.34329 26.0716 7.48271L29.0943 8.34636C29.3329 8.41452 29.4854 8.64729 29.4526 8.8932L28.9982 12.301C28.9441 12.7066 29.0581 13.1167 29.3137 13.4363L31.02 15.5691C31.1722 15.7594 31.1651 16.0316 31.0033 16.2137L29.3718 18.0491C29.0787 18.3789 28.9456 18.821 29.008 19.2578L29.4466 22.3277C29.4813 22.5713 29.3338 22.804 29.0986 22.8763L27.7278 23.2981L26.3175 23.7321C25.8775 23.8675 25.5239 24.1975 25.3587 24.6273L24.2366 27.5447C24.1576 27.75 23.9537 27.8796 23.7343 27.8639L20.4883 27.6321C20.1119 27.6052 19.7391 27.7212 19.4444 27.957L17.2497 29.7127C17.0671 29.8588 16.8076 29.8588 16.625 29.7127L15.2966 28.65L14.4951 28.0088C14.1435 27.7275 13.6841 27.6191 13.2438 27.7134L10.2078 28.364C9.95866 28.4174 9.70924 28.2749 9.62867 28.0332L8.51195 24.683C8.35876 24.2235 7.99306 23.8662 7.53005 23.7237L5.05521 22.9622L5.05389 22.9618L4.37223 22.7521L4.8648 19.5504C4.92862 19.1356 4.81573 18.713 4.55354 18.3853L2.82756 16.2278C2.68147 16.0452 2.68147 15.7857 2.82756 15.6031L4.58136 13.4108C4.8189 13.1139 4.9348 12.7379 4.90564 12.3588L4.67497 9.36001C4.65938 9.15731 4.76806 8.96536 4.94989 8.87444L7.75157 7.4736C8.08633 7.30622 8.34642 7.01975 8.48077 6.67043L9.57563 3.8238C9.66859 3.58212 9.93068 3.45139 10.1797 3.52253L13.1092 4.35955C13.633 4.50921 14.1968 4.36312 14.582 3.97793L16.5838 1.9761ZM4.7598 23.9176L4.76004 23.9177C5.04914 24.0068 5.19352 24.3302 5.06677 24.6049L0.927575 33.5763C0.454587 34.6015 1.24098 35.762 2.36844 35.7027L6.11166 35.5056C6.27999 35.4968 6.44146 35.5733 6.54114 35.7093L8.65741 38.5951C9.33265 39.5159 10.7481 39.3746 11.2281 38.3385L15.1699 29.8293L16.0003 30.4936C16.5482 30.9319 17.3266 30.9319 17.8744 30.4936L19.1967 29.4358L22.8949 38.0648C23.3769 39.1895 24.9303 39.2949 25.5598 38.2456L27.0399 35.7788C27.1395 35.6129 27.3259 35.5193 27.5184 35.5385L31.4176 35.9285C32.5655 36.0432 33.4079 34.8735 32.9352 33.8213L28.5629 24.0875L29.3927 23.8321C30.0982 23.6151 30.5409 22.917 30.4365 22.1863L29.9979 19.1164C29.9771 18.9708 30.0215 18.8234 30.1192 18.7135L31.7507 16.878C32.2362 16.3318 32.2574 15.5151 31.8009 14.9444L30.0946 12.8116C30.0094 12.7051 29.9714 12.5684 29.9894 12.4332L30.4438 9.02537C30.5422 8.28761 30.0847 7.58931 29.369 7.38484L26.3463 6.52119C26.1836 6.47471 26.0555 6.34915 26.0057 6.18747L25.2035 3.58006C24.9633 2.79955 24.1429 2.35456 23.3577 2.5789L20.4908 3.39803C20.3162 3.44791 20.1283 3.39922 19.9999 3.27082L17.998 1.26899C17.4122 0.683204 16.4625 0.683204 15.8767 1.26899L13.8749 3.27082C13.7465 3.39922 13.5586 3.44791 13.384 3.39803L10.4544 2.561C9.70744 2.34759 8.92115 2.73977 8.64228 3.46482L7.54743 6.31145C7.50264 6.42789 7.41595 6.52338 7.30436 6.57917L4.50268 7.98002C3.95719 8.25276 3.63114 8.82863 3.67791 9.4367L3.90859 12.4354C3.91831 12.5618 3.87967 12.6872 3.80049 12.7861L2.04669 14.9784C1.60843 15.5262 1.60843 16.3047 2.04669 16.8525L3.77268 19.01C3.86007 19.1192 3.8977 19.2601 3.87643 19.3983L3.31818 23.0269L3.25251 23.4538L3.66533 23.5808L4.7598 23.9176ZM10.3207 37.9182L14.3658 29.186L13.8704 28.7897C13.7532 28.6959 13.6001 28.6598 13.4533 28.6912L10.4173 29.3418C9.66995 29.5019 8.92169 29.0745 8.67999 28.3494L7.56327 24.9993C7.5122 24.8461 7.3903 24.727 7.23597 24.6795L6.11207 24.3337C6.12176 24.5631 6.07856 24.7989 5.97478 25.0239L1.83559 33.9953C1.67793 34.337 1.94006 34.7238 2.31588 34.704L6.0591 34.507C6.5641 34.4804 7.0485 34.7101 7.34755 35.1179L9.46382 38.0037C9.6889 38.3106 10.1607 38.2636 10.3207 37.9182ZM23.814 37.6709L20.0069 28.7876L20.0691 28.7378C20.1674 28.6593 20.2916 28.6206 20.4171 28.6295L23.663 28.8614C24.3213 28.9084 24.933 28.5197 25.1699 27.9037L26.292 24.9862C26.3471 24.843 26.4649 24.733 26.6116 24.6878L27.5998 24.3838L32.023 34.231C32.1806 34.5818 31.8998 34.9717 31.5171 34.9334L27.6179 34.5435C27.0403 34.4857 26.4811 34.7665 26.1824 35.2643L24.7024 37.7311C24.4925 38.0809 23.9747 38.0458 23.814 37.6709ZM22.2817 13.4654C22.4819 13.2752 22.4901 12.9588 22.2999 12.7586C22.1097 12.5584 21.7932 12.5502 21.593 12.7404L15.6681 18.3691L11.9478 15.2212C11.737 15.0429 11.4215 15.0692 11.2432 15.28C11.0648 15.4908 11.0911 15.8063 11.3019 15.9846L15.3644 19.4221L15.7067 19.7118L16.0317 19.4029L22.2817 13.4654Z" fill="#0079BE"/>
</svg>
