<svg width="15" height="17" viewBox="0 0 15 17" fill="none" xmlns="http://www.w3.org/2000/svg">
<path fill-rule="evenodd" clip-rule="evenodd" d="M10.7738 4.83348C10.7738 6.34 9.49589 7.66696 7.78712 7.66696C6.07835 7.66696 4.80046 6.34 4.80046 4.83348C4.80046 3.32695 6.07835 2 7.78712 2C9.49589 2 10.7738 3.32695 10.7738 4.83348ZM10.1389 9.09673C11.7071 8.28227 12.7738 6.67861 12.7738 4.83348C12.7738 2.16402 10.5412 0 7.78712 0C5.03306 0 2.80046 2.16402 2.80046 4.83348C2.80046 6.67259 3.86015 8.27179 5.41998 9.08873C3.73872 9.71778 2.51667 10.9517 1.68895 12.1048C1.09611 12.9307 0.677774 13.7501 0.407791 14.36C0.272176 14.6664 0.172374 14.9235 0.105526 15.1071C0.0720678 15.199 0.0467646 15.2728 0.0292721 15.3254C0.020523 15.3517 0.013719 15.3727 0.00881756 15.3881L0.0028838 15.4069L0.000975024 15.4131L0.000283253 15.4153L2.75321e-06 15.4162C-0.000119257 15.4166 -0.000234175 15.417 0.956232 15.7088C1.9127 16.0007 1.9126 16.001 1.9125 16.0013L1.91453 15.9949C1.91691 15.9875 1.92106 15.9746 1.92703 15.9566C1.93898 15.9207 1.95816 15.8646 1.98485 15.7913C2.03829 15.6445 2.12147 15.4297 2.23661 15.1696C2.46812 14.6466 2.82233 13.9556 3.31371 13.271C4.30674 11.8876 5.75129 10.667 7.78642 10.667C9.7981 10.667 11.0852 11.8612 11.9228 13.2143C12.3403 13.8886 12.623 14.5713 12.8014 15.09C12.89 15.3477 12.9514 15.5605 12.9899 15.7057C13.0091 15.7781 13.0226 15.8334 13.0308 15.8687C13.0349 15.8863 13.0377 15.8989 13.0393 15.906L13.0405 15.9116C13.0405 15.9113 13.0404 15.9109 14.0198 15.7088C14.9991 15.5068 14.999 15.5064 14.9989 15.5059L14.9987 15.505L14.9983 15.5026L14.9969 15.4962L14.9927 15.477C14.9893 15.4613 14.9845 15.4399 14.9783 15.4133C14.9658 15.36 14.9476 15.2855 14.923 15.1928C14.8739 15.0076 14.7989 14.7484 14.6927 14.4396C14.4815 13.8255 14.1409 12.9977 13.6234 12.1616C12.897 10.9881 11.7759 9.73592 10.1389 9.09673Z" fill="#D1D1D1"/>
</svg>
