<svg width="57" height="40" viewBox="0 0 57 40" fill="none" xmlns="http://www.w3.org/2000/svg">
<g opacity="0.54">
<path d="M56.7736 25.3833L50.3554 15.4643C47.5548 11.1467 42.7704 8.46272 37.6358 8.46272H33.6683C33.6683 6.82902 33.6683 5.4287 33.6683 3.79499C33.6683 1.8112 32.1513 0.294189 30.1675 0.294189H4.49494C2.51115 0.294189 0.994141 1.8112 0.994141 3.79499C0.994141 9.62965 0.994141 14.2974 0.994141 20.1321C0.994141 22.1158 2.51115 23.6329 4.49494 23.6329H22.349C20.832 27.1337 24.5662 30.6345 28.067 28.7674C29.3506 31.568 32.9681 32.0348 34.8352 29.7009C39.2696 35.5356 42.1869 36.7025 48.2549 39.7365C48.8384 39.9699 49.5386 39.8532 49.7719 39.2697C57.357 25.6166 57.357 26.2001 56.7736 25.3833ZM3.32801 7.29579H31.3344V10.7966H3.32801V7.29579ZM4.49494 2.62806H30.1675C30.8676 2.62806 31.3344 3.09483 31.3344 3.79499V4.96192H3.32801V3.79499C3.32801 3.21152 3.79478 2.62806 4.49494 2.62806ZM3.32801 20.1321V13.1305H31.3344V15.581L30.2842 14.9975C26.3166 12.6637 21.5322 17.098 23.9827 21.4157H4.49494C3.79478 21.299 3.32801 20.8322 3.32801 20.1321ZM24.6829 24.333L25.1497 23.6329C27.1334 23.6329 26.4333 23.3995 28.5338 24.6831C28.3004 25.1499 28.3004 25.1499 27.7169 26.0834C26.4333 28.0672 23.516 26.3168 24.6829 24.333ZM30.2842 26.3168L30.5176 25.85C31.5678 26.4335 32.5013 27.1336 33.3182 27.9505C32.1513 30.051 29.1172 28.3006 30.2842 26.3168ZM48.3716 37.286C44.4041 35.3022 40.6699 33.6685 37.0524 28.7674C34.3684 25.0332 31.101 23.5162 26.7834 21.0656C24.0994 19.5486 26.4333 15.4643 29.1172 16.9813L38.1026 22.2325C39.3862 23.0494 40.5532 20.9489 39.2696 20.2487L33.6683 16.9813C33.6683 13.2472 33.6683 13.0138 33.6683 10.9133H37.7525C42.1869 10.9133 46.1544 13.1305 48.4883 16.8646L54.4397 26.2001L48.3716 37.286Z" fill="#333333"/>
</g>
</svg>
