<svg width="16" height="16" viewBox="0 0 16 16" fill="none" xmlns="http://www.w3.org/2000/svg">
<g clip-path="url(#clip0)">
<path fill-rule="evenodd" clip-rule="evenodd" d="M6.80009 0.853798C6.99536 0.658535 6.99536 0.341953 6.80009 0.146691C6.60483 -0.0485714 6.28825 -0.0485714 6.09299 0.146691L5.15411 1.08557C4.95885 1.28083 4.95885 1.59741 5.15411 1.79267C5.34937 1.98794 5.66596 1.98794 5.86122 1.79267L6.80009 0.853798ZM6.44654 3.5H8.01133C8.28747 3.5 8.51133 3.27614 8.51133 3C8.51133 2.72386 8.28747 2.5 8.01133 2.5H6.44654C6.1704 2.5 5.94654 2.72386 5.94654 3C5.94654 3.27614 6.1704 3.5 6.44654 3.5ZM2.83292 1.25186C1.78382 1.25186 0.86047 2.06699 0.38321 3.10834C-0.104937 4.17344 -0.187637 5.57514 0.497087 6.96094C1.32179 9.08891 3.09947 11.3353 5.1315 13.0485C7.15757 14.7568 9.54052 16.022 11.5956 16.022C12.1577 16.022 13.0112 15.9093 13.8136 15.5694C14.6162 15.2295 15.4311 14.6327 15.7808 13.6298C15.8344 13.4762 15.8511 13.3242 15.8511 13.1907V13.1896V13.1885V13.1873V13.1862V13.185V13.1839V13.1828V13.1816V13.1805V13.1794V13.1782V13.1771V13.176V13.1748V13.1737V13.1726V13.1714V13.1703V13.1692V13.168V13.1669V13.1658V13.1647V13.1635V13.1624V13.1613V13.1602V13.159V13.1579V13.1568V13.1557V13.1546V13.1535V13.1523V13.1512V13.1501V13.149V13.1479V13.1468V13.1456V13.1445V13.1434V13.1423V13.1412V13.1401V13.139V13.1379V13.1368V13.1357V13.1345V13.1334V13.1323V13.1312V13.1301V13.129V13.1279V13.1268V13.1257V13.1246V13.1235V13.1224V13.1213V13.1202V13.1191V13.118V13.1169V13.1158V13.1148V13.1137V13.1126V13.1115V13.1104V13.1093V13.1082V13.1071V13.106V13.1049V13.1039V13.1028V13.1017V13.1006V13.0995V13.0984V13.0974V13.0963V13.0952V13.0941V13.093V13.092V13.0909V13.0898V13.0887V13.0877V13.0866V13.0855V13.0844V13.0834V13.0823V13.0812V13.0801V13.0791V13.078V13.0769V13.0759V13.0748V13.0737V13.0727V13.0716V13.0705V13.0695V13.0684V13.0674V13.0663V13.0652V13.0642V13.0631V13.0621V13.061V13.0599V13.0589V13.0578V13.0568V13.0557V13.0547V13.0536V13.0526V13.0515V13.0505V13.0494V13.0484V13.0473V13.0463V13.0452V13.0442V13.0431V13.0421V13.041V13.04V13.039V13.0379V13.0369V13.0358V13.0348V13.0337V13.0327V13.0317V13.0306V13.0296V13.0286V13.0275V13.0265V13.0255V13.0244V13.0234V13.0224V13.0213V13.0203V13.0193V13.0182V13.0172V13.0162V13.0152V13.0141V13.0131V13.0121V13.0111V13.01V13.009V13.008V13.007V13.0059V13.0049V13.0039V13.0029V13.0019V13.0009V12.9998V12.9988V12.9978V12.9968V12.9958V12.9948V12.9938V12.9927V12.9917V12.9907V12.9897V12.9887V12.9877V12.9867V12.9857V12.9847V12.9837V12.9827V12.9817V12.9807V12.9797V12.9787V12.9777V12.9767V12.9757V12.9747V12.9737V12.9727V12.9717V12.9707V12.9697V12.9687V12.9677V12.9667V12.9657V12.9647V12.9637V12.9627V12.9617V12.9607V12.9598V12.9588V12.9578V12.9568V12.9558V12.9548V12.9538V12.9529V12.9519V12.9509V12.9499V12.9489V12.9479V12.947V12.946V12.945V12.944V12.9431V12.9421V12.9411V12.9401V12.9391V12.9382V12.9372V12.9362V12.9353V12.9343V12.9333V12.9323V12.9314V12.9304V12.9294V12.9285V12.9275V12.9265V12.9256V12.9246V12.9237V12.9227V12.9217V12.9208V12.9198V12.9188V12.9179V12.9169V12.916V12.915V12.9141V12.9131V12.9121V12.9112V12.9102V12.9093V12.9083V12.9074V12.9064V12.9055V12.9045V12.9036V12.9026V12.9017V12.9007V12.8998V12.8988V12.8979V12.897V12.896V12.8951V12.8941V12.8932V12.8922V12.8913V12.8904V12.8894V12.8885V12.8875V12.8866V12.8857V12.8847V12.8838V12.8829V12.8819V12.881V12.8801V12.8791V12.8782V12.8773V12.8763V12.8754V12.8745V12.8736V12.8726V12.8717V12.8708V12.8699V12.8689V12.868V12.8671V12.8662V12.8652V12.8643V12.8634V12.8625V12.8616V12.8606V12.8597V12.8588V12.8579V12.857V12.8561V12.8551V12.8542V12.8533V12.8524V12.8515V12.8506V12.8497V12.8488V12.8479V12.8469V12.846V12.8451V12.8442V12.8433V12.8424V12.8415V12.8406V12.8397V12.8388V12.8379V12.837V12.8361V12.8352V12.8343V12.8334V12.8325V12.8316V12.8307V12.8298V12.8289V12.828V12.8271V12.8262V12.8253V12.8244V12.8236V12.8227V12.8218V12.8209V12.82V12.8191V12.8182V12.8173V12.8164V12.8156V12.8147V12.8138V12.8129V12.812V12.8111V12.8103V12.8094V12.8085V12.8076V12.8067V12.8059V12.805V12.8041V12.8032V12.8024V12.8015V12.8006V12.7997V12.7989V12.798V12.7971V12.7962V12.7954V12.7945V12.7936V12.7928V12.7919V12.791V12.7902V12.7893V12.7884V12.7876V12.7867V12.7858V12.785V12.7841V12.7833V12.7824V12.7815V12.7807V12.7798V12.779V12.7781V12.7772V12.7764V12.7755V12.7747V12.7738V12.773V12.7721V12.7713V12.7704V12.7696V12.7687V12.7679V12.767V12.7662V12.7653V12.7645V12.7636V12.7628V12.7619V12.7611V12.7602V12.7594V12.7586V12.7577V12.7569V12.756V12.7552V12.7544V12.7535V12.7527V12.7518V12.751V12.7502V12.7493V12.7485V12.7477V12.7468V12.746V12.7452V12.7443V12.7435V12.7427V12.7418V12.741V12.7402V12.7394V12.7385V12.7377V12.7369V12.7361V12.7352V12.7344V12.7336V12.7328V12.7319V12.7311V12.7303V12.7295V12.7287V12.7278V12.727V12.7262V12.7254V12.7246V12.7237V12.7229V12.7221V12.7213V12.7205V12.7197V12.7189V12.7181V12.7172V12.7164V12.7156V12.7148V12.714V12.7132V12.7124V12.7116V12.7108V12.71V12.7092V12.7084V12.7076V12.7068V12.706V12.7052V12.7044V12.7036V12.7028V12.702V12.7012V12.7004V12.6996V12.6988V12.698V12.6972C15.8511 12.1288 15.5299 11.6099 15.0219 11.3559L12.6088 10.1493C11.9322 9.81101 11.1095 10.0295 10.6899 10.6589L10.5852 10.816C10.5538 10.863 10.5276 10.9081 10.5055 10.9481C10.4577 11.0346 10.3459 11.2248 10.2104 11.3868C10.1425 11.4682 10.0817 11.5265 10.0335 11.5609C10.0212 11.5697 10.0119 11.5753 10.0055 11.5789C9.80848 11.5702 9.41827 11.4635 8.88993 11.222C8.35954 10.9794 7.74997 10.6289 7.16686 10.2049C6.58269 9.78008 6.03883 9.29149 5.62901 8.77728C5.2162 8.25931 4.96424 7.74679 4.90912 7.26977C4.90425 7.22763 4.91526 7.18436 4.94099 7.14855C5.04209 7.00784 5.15607 6.88275 5.20976 6.82618C5.23763 6.79681 5.26881 6.76265 5.30033 6.72411L5.65694 6.28809C6.00749 5.85949 6.09341 5.27263 5.88045 4.76152L4.8027 2.17494C4.5698 1.61597 4.02364 1.25186 3.41809 1.25186H2.83292ZM1.40238 6.53559C0.847002 5.42483 0.922404 4.33202 1.29228 3.52497C1.67561 2.68857 2.31706 2.25186 2.83292 2.25186H3.41809C3.61994 2.25186 3.80199 2.37323 3.87963 2.55955L4.95737 5.14614C5.02836 5.31651 4.99972 5.51213 4.88287 5.65499L4.52626 6.09101C4.51563 6.10401 4.50238 6.11885 4.48443 6.13778C4.41634 6.20952 4.26773 6.3718 4.12888 6.56504C3.95892 6.80159 3.8821 7.09354 3.91573 7.38456C4.00018 8.11547 4.36914 8.80095 4.84699 9.40053C5.32783 10.0039 5.94438 10.5524 6.57874 11.0137C7.21417 11.4757 7.88128 11.8603 8.47409 12.1314C9.04527 12.3926 9.61379 12.5795 10.0308 12.5795C10.2748 12.5795 10.476 12.4737 10.6147 12.3747C10.7577 12.2725 10.8803 12.1448 10.9779 12.028C11.1735 11.7938 11.3213 11.5393 11.3806 11.4321C11.395 11.4059 11.4066 11.3867 11.4172 11.3707L11.5219 11.2136C11.6618 11.0038 11.936 10.931 12.1616 11.0437L14.5747 12.2503C14.7443 12.3351 14.8511 12.508 14.8511 12.6972V12.698V12.6988V12.6996V12.7004V12.7012V12.702V12.7028V12.7036V12.7044V12.7052V12.706V12.7068V12.7076V12.7084V12.7092V12.71V12.7108V12.7116V12.7124V12.7132V12.714V12.7148V12.7156V12.7164V12.7172V12.7181V12.7189V12.7197V12.7205V12.7213V12.7221V12.7229V12.7237V12.7246V12.7254V12.7262V12.727V12.7278V12.7287V12.7295V12.7303V12.7311V12.7319V12.7328V12.7336V12.7344V12.7352V12.7361V12.7369V12.7377V12.7385V12.7394V12.7402V12.741V12.7418V12.7427V12.7435V12.7443V12.7452V12.746V12.7468V12.7477V12.7485V12.7493V12.7502V12.751V12.7518V12.7527V12.7535V12.7544V12.7552V12.756V12.7569V12.7577V12.7586V12.7594V12.7602V12.7611V12.7619V12.7628V12.7636V12.7645V12.7653V12.7662V12.767V12.7679V12.7687V12.7696V12.7704V12.7713V12.7721V12.773V12.7738V12.7747V12.7755V12.7764V12.7772V12.7781V12.779V12.7798V12.7807V12.7815V12.7824V12.7833V12.7841V12.785V12.7858V12.7867V12.7876V12.7884V12.7893V12.7902V12.791V12.7919V12.7928V12.7936V12.7945V12.7954V12.7962V12.7971V12.798V12.7989V12.7997V12.8006V12.8015V12.8024V12.8032V12.8041V12.805V12.8059V12.8067V12.8076V12.8085V12.8094V12.8103V12.8111V12.812V12.8129V12.8138V12.8147V12.8156V12.8164V12.8173V12.8182V12.8191V12.82V12.8209V12.8218V12.8227V12.8236V12.8244V12.8253V12.8262V12.8271V12.828V12.8289V12.8298V12.8307V12.8316V12.8325V12.8334V12.8343V12.8352V12.8361V12.837V12.8379V12.8388V12.8397V12.8406V12.8415V12.8424V12.8433V12.8442V12.8451V12.846V12.8469V12.8479V12.8488V12.8497V12.8506V12.8515V12.8524V12.8533V12.8542V12.8551V12.8561V12.857V12.8579V12.8588V12.8597V12.8606V12.8616V12.8625V12.8634V12.8643V12.8652V12.8662V12.8671V12.868V12.8689V12.8699V12.8708V12.8717V12.8726V12.8736V12.8745V12.8754V12.8763V12.8773V12.8782V12.8791V12.8801V12.881V12.8819V12.8829V12.8838V12.8847V12.8857V12.8866V12.8875V12.8885V12.8894V12.8904V12.8913V12.8922V12.8932V12.8941V12.8951V12.896V12.897V12.8979V12.8988V12.8998V12.9007V12.9017V12.9026V12.9036V12.9045V12.9055V12.9064V12.9074V12.9083V12.9093V12.9102V12.9112V12.9121V12.9131V12.9141V12.915V12.916V12.9169V12.9179V12.9188V12.9198V12.9208V12.9217V12.9227V12.9237V12.9246V12.9256V12.9265V12.9275V12.9285V12.9294V12.9304V12.9314V12.9323V12.9333V12.9343V12.9353V12.9362V12.9372V12.9382V12.9391V12.9401V12.9411V12.9421V12.9431V12.944V12.945V12.946V12.947V12.9479V12.9489V12.9499V12.9509V12.9519V12.9529V12.9538V12.9548V12.9558V12.9568V12.9578V12.9588V12.9598V12.9607V12.9617V12.9627V12.9637V12.9647V12.9657V12.9667V12.9677V12.9687V12.9697V12.9707V12.9717V12.9727V12.9737V12.9747V12.9757V12.9767V12.9777V12.9787V12.9797V12.9807V12.9817V12.9827V12.9837V12.9847V12.9857V12.9867V12.9877V12.9887V12.9897V12.9907V12.9917V12.9927V12.9938V12.9948V12.9958V12.9968V12.9978V12.9988V12.9998V13.0009V13.0019V13.0029V13.0039V13.0049V13.0059V13.007V13.008V13.009V13.01V13.0111V13.0121V13.0131V13.0141V13.0152V13.0162V13.0172V13.0182V13.0193V13.0203V13.0213V13.0224V13.0234V13.0244V13.0255V13.0265V13.0275V13.0286V13.0296V13.0306V13.0317V13.0327V13.0337V13.0348V13.0358V13.0369V13.0379V13.039V13.04V13.041V13.0421V13.0431V13.0442V13.0452V13.0463V13.0473V13.0484V13.0494V13.0505V13.0515V13.0526V13.0536V13.0547V13.0557V13.0568V13.0578V13.0589V13.0599V13.061V13.0621V13.0631V13.0642V13.0652V13.0663V13.0674V13.0684V13.0695V13.0705V13.0716V13.0727V13.0737V13.0748V13.0759V13.0769V13.078V13.0791V13.0801V13.0812V13.0823V13.0834V13.0844V13.0855V13.0866V13.0877V13.0887V13.0898V13.0909V13.092V13.093V13.0941V13.0952V13.0963V13.0974V13.0984V13.0995V13.1006V13.1017V13.1028V13.1039V13.1049V13.106V13.1071V13.1082V13.1093V13.1104V13.1115V13.1126V13.1137V13.1148V13.1158V13.1169V13.118V13.1191V13.1202V13.1213V13.1224V13.1235V13.1246V13.1257V13.1268V13.1279V13.129V13.1301V13.1312V13.1323V13.1334V13.1345V13.1357V13.1368V13.1379V13.139V13.1401V13.1412V13.1423V13.1434V13.1445V13.1456V13.1468V13.1479V13.149V13.1501V13.1512V13.1523V13.1535V13.1546V13.1557V13.1568V13.1579V13.159V13.1602V13.1613V13.1624V13.1635V13.1647V13.1658V13.1669V13.168V13.1692V13.1703V13.1714V13.1726V13.1737V13.1748V13.176V13.1771V13.1782V13.1794V13.1805V13.1816V13.1828V13.1839V13.185V13.1862V13.1873V13.1885V13.1896V13.1907C14.8511 13.2432 14.8442 13.2786 14.8366 13.3005C14.614 13.9388 14.0803 14.3705 13.4236 14.6486C12.7665 14.9269 12.0496 15.022 11.5956 15.022C9.89515 15.022 7.74021 13.9401 5.7761 12.284C3.82504 10.639 2.16558 8.51362 1.42185 6.57972L1.41318 6.55719L1.40238 6.53559Z" fill="#0079BE"/>
</g>
<defs>
<clipPath id="clip0">
<rect width="16" height="16" fill="white"/>
</clipPath>
</defs>
</svg>
