<svg width="21" height="15" viewBox="0 0 21 15" fill="none" xmlns="http://www.w3.org/2000/svg">
<path d="M10.3323 4.22705C11.887 4.22705 13.1504 5.49048 13.1504 7.04515C13.1504 8.59981 11.887 9.86324 10.3323 9.86324C8.77763 9.86324 7.5142 8.59981 7.5142 7.04515C7.5142 5.49048 8.77768 4.22705 10.3323 4.22705Z" fill="#DEDEDE"/>
<path d="M10.333 0C15.0298 0 19.0409 2.9214 20.666 7.04524C19.0409 11.169 15.0298 14.0905 10.333 14.0905C5.63148 14.0905 1.62507 11.169 -4.57764e-05 7.04524C1.62507 2.9214 5.63148 0 10.333 0ZM10.333 11.742C12.9256 11.742 15.0298 9.63784 15.0298 7.04519C15.0298 4.45255 12.9256 2.3484 10.333 2.3484C7.74034 2.3484 5.63614 4.45259 5.63614 7.04524C5.63614 9.63789 7.74034 11.742 10.333 11.742Z" fill="#DEDEDE"/>
</svg>
