<svg width="32" height="32" viewBox="0 0 32 32" fill="none" xmlns="http://www.w3.org/2000/svg">
<path fill-rule="evenodd" clip-rule="evenodd" d="M32 16C32 24.8366 24.8366 32 16 32C7.16344 32 0 24.8366 0 16C0 7.16344 7.16344 0 16 0C24.8366 0 32 7.16344 32 16ZM16.5234 24.9017H16.5274C21.773 24.8995 26.0393 20.6322 26.0414 15.3877C26.0424 12.8456 25.0537 10.4552 23.2575 8.65694C21.4612 6.85858 19.0724 5.86777 16.5273 5.86667C11.2832 5.86667 7.01519 10.1345 7.0131 15.3802C7.01239 17.057 7.45049 18.6937 8.28308 20.1366L6.93333 25.0667L11.9769 23.7436C13.3665 24.5016 14.9311 24.9011 16.5234 24.9017Z" fill="white"/>
<path fill-rule="evenodd" clip-rule="evenodd" d="M12.4993 22.1926L12.2105 22.0213L9.2176 22.8064L10.0165 19.8883L9.82844 19.5891C9.03686 18.3301 8.61879 16.8749 8.6194 15.3807C8.62113 11.0207 12.1686 7.47363 16.5304 7.47363C18.6426 7.47437 20.6281 8.29794 22.1211 9.79267C23.6141 11.2874 24.4358 13.2741 24.435 15.3871C24.4332 19.7474 20.8858 23.2949 16.5273 23.2949H16.5241C15.1051 23.2944 13.7134 22.9131 12.4993 22.1926ZM20.9949 17.436C21.1607 17.5161 21.2727 17.5702 21.3205 17.65C21.3799 17.7492 21.3799 18.2251 21.1819 18.7805C20.9837 19.3358 20.034 19.8426 19.5772 19.9108C19.1677 19.9721 18.6494 19.9976 18.0799 19.8166C17.7347 19.7071 17.2919 19.5608 16.7247 19.3159C14.4961 18.3536 12.99 16.1935 12.7053 15.7853C12.6854 15.7567 12.6715 15.7367 12.6637 15.7263L12.6618 15.7238C12.536 15.5559 11.693 14.4312 11.693 13.2671C11.693 12.1721 12.2309 11.5982 12.4785 11.334C12.4954 11.3159 12.511 11.2992 12.525 11.284C12.7429 11.046 13.0005 10.9865 13.1589 10.9865C13.3174 10.9865 13.4761 10.9879 13.6146 10.9949C13.6316 10.9957 13.6494 10.9956 13.6678 10.9955C13.8063 10.9947 13.979 10.9937 14.1494 11.403C14.215 11.5605 14.3109 11.794 14.412 12.0402C14.6166 12.5382 14.8426 13.0885 14.8824 13.1681C14.9418 13.2871 14.9814 13.4259 14.9022 13.5846C14.8903 13.6084 14.8793 13.6308 14.8688 13.6523C14.8093 13.7738 14.7655 13.8632 14.6645 13.9811C14.6248 14.0275 14.5837 14.0775 14.5427 14.1275C14.4609 14.2271 14.3791 14.3267 14.3079 14.3976C14.1889 14.5162 14.065 14.6448 14.2037 14.8828C14.3423 15.1208 14.8194 15.8992 15.5261 16.5296C16.2858 17.2072 16.9461 17.4936 17.2808 17.6388C17.3461 17.6671 17.3991 17.6901 17.4379 17.7095C17.6755 17.8286 17.8142 17.8087 17.9529 17.65C18.0916 17.4914 18.5472 16.9559 18.7056 16.7179C18.8641 16.48 19.0226 16.5196 19.2405 16.5989C19.4584 16.6783 20.6272 17.2534 20.8649 17.3724C20.9113 17.3956 20.9547 17.4166 20.9949 17.436Z" fill="white"/>
</svg>
