<svg width="40" height="40" viewBox="0 0 40 40" fill="none" xmlns="http://www.w3.org/2000/svg">
<path d="M17.1285 24.3817C17.3193 24.5726 17.5766 24.6722 17.8339 24.6722C18.0911 24.6722 18.3401 24.5726 18.5393 24.3817L25.8837 17.0373C26.2737 16.6473 26.2737 16.0166 25.8837 15.6266C25.4936 15.2365 24.8629 15.2365 24.4729 15.6266L17.8256 22.2739L15.5185 19.9668C15.1285 19.5768 14.4978 19.5768 14.1077 19.9668C13.7177 20.3569 13.7177 20.9876 14.1077 21.3776L17.1285 24.3817Z" fill="#0079BE"/>
<path d="M9.44396 5.19501C9.63483 5.19501 9.8257 5.13692 9.99997 5.02904C10.4564 4.72198 10.5809 4.09957 10.2738 3.64314C9.96678 3.18671 9.35267 3.06223 8.88794 3.36928C8.43151 3.67634 8.30703 4.29045 8.61408 4.74688C8.80495 5.03733 9.1203 5.19501 9.44396 5.19501Z" fill="#0079BE"/>
<path d="M6.56433 7.56015C6.82159 7.56015 7.07885 7.46057 7.26973 7.2697C7.65977 6.87965 7.65977 6.24895 7.26973 5.85891C6.87968 5.46887 6.24898 5.46887 5.85894 5.85891C5.4689 6.24895 5.4689 6.87965 5.85894 7.2697C6.04981 7.46057 6.30707 7.56015 6.56433 7.56015Z" fill="#0079BE"/>
<path d="M12.7218 3.43569C12.8463 3.43569 12.979 3.41079 13.1035 3.361C13.6097 3.15353 13.8504 2.56432 13.6429 2.0581C13.4355 1.55187 12.8463 1.31121 12.34 1.51868C11.8338 1.72615 11.5931 2.31536 11.8006 2.82158C11.9583 3.20333 12.3317 3.43569 12.7218 3.43569Z" fill="#0079BE"/>
<path d="M3.64301 10.2656C3.80898 10.3817 4.00815 10.4315 4.19902 10.4315C4.52267 10.4315 4.83803 10.2739 5.0289 9.9917C5.33595 9.53527 5.21147 8.91287 4.75504 8.61411C4.29861 8.30706 3.6762 8.43154 3.36915 8.88797C3.06209 9.3444 3.18657 9.95851 3.64301 10.2656Z" fill="#0079BE"/>
<path d="M2.05787 13.6432C2.18235 13.693 2.31513 13.7179 2.43961 13.7179C2.82965 13.7179 3.2031 13.4855 3.36077 13.1037C3.56824 12.5975 3.32758 12.0166 2.82135 11.8008C2.31513 11.5851 1.73422 11.834 1.51845 12.3403C1.31098 12.8548 1.55164 13.4357 2.05787 13.6432Z" fill="#0079BE"/>
<path d="M16.282 2.35685C16.3484 2.35685 16.4065 2.34855 16.4729 2.34025C17.0123 2.23236 17.3609 1.70954 17.253 1.17012C17.1451 0.630704 16.6223 0.282157 16.0829 0.39004C15.5435 0.497924 15.1949 1.02075 15.3028 1.56016C15.4024 2.0249 15.8173 2.35685 16.282 2.35685Z" fill="#0079BE"/>
<path d="M1.16179 17.2697C1.22818 17.278 1.29457 17.2863 1.35266 17.2863C1.81739 17.2863 2.23233 16.9544 2.33192 16.4813C2.4398 15.9419 2.09125 15.4191 1.55183 15.3112C1.01241 15.2033 0.489593 15.5519 0.381709 16.0913C0.273825 16.639 0.622373 17.1618 1.16179 17.2697Z" fill="#0079BE"/>
<path d="M34.1411 5.85892C30.3651 2.08299 25.3444 0 20 0C19.4523 0 19.0042 0.448133 19.0042 0.995851C19.0042 1.54357 19.4523 1.9917 20 1.9917C29.9336 1.9917 38.0083 10.0664 38.0083 20C38.0083 29.9336 29.9336 38.0083 20 38.0083C10.0664 38.0083 1.9917 29.9336 1.9917 20C1.9917 19.4523 1.54357 19.0042 0.995851 19.0042C0.448133 19.0042 0 19.4523 0 20C0 25.3444 2.08299 30.3651 5.85892 34.1411C9.63486 37.917 14.6556 40 20 40C25.3444 40 30.3651 37.917 34.1411 34.1411C37.917 30.3651 40 25.3444 40 20C40 14.6556 37.917 9.63486 34.1411 5.85892Z" fill="#0079BE"/>
</svg>
