<svg width="14" height="14" viewBox="0 0 14 14" fill="none" xmlns="http://www.w3.org/2000/svg">
<path d="M13.4375 6.30469C13.4375 7.04427 13.3229 7.72135 13.0938 8.33594C12.8646 8.95052 12.5417 9.42708 12.125 9.76562C11.7083 10.1042 11.2292 10.2734 10.6875 10.2734C10.2396 10.2734 9.86198 10.138 9.55469 9.86719C9.2474 9.59635 9.0651 9.25 9.00781 8.82812H8.94531C8.73698 9.28125 8.4375 9.63542 8.04688 9.89062C7.66146 10.1458 7.20312 10.2734 6.67188 10.2734C5.89062 10.2734 5.27865 10.0078 4.83594 9.47656C4.39844 8.9401 4.17969 8.21354 4.17969 7.29688C4.17969 6.23438 4.48698 5.3724 5.10156 4.71094C5.71615 4.04427 6.52344 3.71094 7.52344 3.71094C7.8776 3.71094 8.27865 3.74479 8.72656 3.8125C9.17448 3.875 9.57812 3.96354 9.9375 4.07812L9.74219 7.75V7.92188C9.74219 8.84896 10.0885 9.3125 10.7812 9.3125C11.2552 9.3125 11.6406 9.03385 11.9375 8.47656C12.2344 7.91406 12.3828 7.1849 12.3828 6.28906C12.3828 5.34635 12.1901 4.52083 11.8047 3.8125C11.4193 3.10417 10.8698 2.5599 10.1562 2.17969C9.44792 1.79427 8.63281 1.60156 7.71094 1.60156C6.54948 1.60156 5.53906 1.84375 4.67969 2.32812C3.82031 2.80729 3.16406 3.49479 2.71094 4.39062C2.25781 5.28125 2.03125 6.3125 2.03125 7.48438C2.03125 9.07292 2.45052 10.2943 3.28906 11.1484C4.1276 12.0026 5.33594 12.4297 6.91406 12.4297C8.00781 12.4297 9.14323 12.2057 10.3203 11.7578V12.7969C9.32031 13.2344 8.1849 13.4531 6.91406 13.4531C5.02344 13.4531 3.55469 12.9349 2.50781 11.8984C1.46615 10.8568 0.945312 9.40365 0.945312 7.53906C0.945312 6.1849 1.22396 4.97917 1.78125 3.92188C2.33854 2.86458 3.13281 2.04688 4.16406 1.46875C5.19531 0.885417 6.3776 0.59375 7.71094 0.59375C8.83073 0.59375 9.82552 0.830729 10.6953 1.30469C11.5703 1.77344 12.2448 2.44271 12.7188 3.3125C13.1979 4.17708 13.4375 5.17448 13.4375 6.30469ZM5.35938 7.32812C5.35938 8.65104 5.86719 9.3125 6.88281 9.3125C7.96094 9.3125 8.54688 8.4974 8.64062 6.86719L8.75 4.82812C8.375 4.72396 7.96615 4.67188 7.52344 4.67188C6.84635 4.67188 6.3151 4.90625 5.92969 5.375C5.54948 5.84375 5.35938 6.49479 5.35938 7.32812Z" fill="#0079BE"/>
</svg>
