<svg width="40" height="34" viewBox="0 0 40 34" fill="none" xmlns="http://www.w3.org/2000/svg">
<g clip-path="url(#clip0)">
<path d="M7.27891 33.9251V31.6684C7.27891 30.8034 6.79823 30.2392 5.97419 30.2392C5.56218 30.2392 5.11583 30.3897 4.80681 30.8786C4.56647 30.4649 4.22312 30.2392 3.7081 30.2392C3.36475 30.2392 3.02141 30.3521 2.74673 30.7658V30.3145H2.0257V33.9251H2.74673V31.9317C2.74673 31.2923 3.05574 30.9914 3.53642 30.9914C4.01711 30.9914 4.25746 31.3299 4.25746 31.9317V33.9251H4.97849V31.9317C4.97849 31.2923 5.32183 30.9914 5.76818 30.9914C6.24887 30.9914 6.48922 31.3299 6.48922 31.9317V33.9251H7.27891ZM17.957 30.3145H16.7896V29.2237H16.0686V30.3145H15.4163V31.029H16.0686V32.6839C16.0686 33.5113 16.3776 34.0003 17.2017 34.0003C17.5107 34.0003 17.854 33.8875 18.0944 33.737L17.8884 33.06C17.6823 33.2105 17.442 33.2481 17.2703 33.2481C16.927 33.2481 16.7896 33.0224 16.7896 32.6463V31.029H17.957V30.3145ZM24.0686 30.2392C23.6566 30.2392 23.3819 30.4649 23.2102 30.7658V30.3145H22.4892V33.9251H23.2102V31.8941C23.2102 31.2923 23.4506 30.9538 23.8969 30.9538C24.0343 30.9538 24.206 30.9914 24.3433 31.029L24.5493 30.2768C24.412 30.2392 24.2059 30.2392 24.0686 30.2392ZM14.8326 30.6153C14.4892 30.3521 14.0085 30.2392 13.4935 30.2392C12.6695 30.2392 12.1201 30.6906 12.1201 31.4052C12.1201 32.0069 12.5321 32.3454 13.2532 32.4583L13.5965 32.4959C13.9742 32.5711 14.1802 32.6839 14.1802 32.872C14.1802 33.1352 13.9055 33.3233 13.4248 33.3233C12.9441 33.3233 12.5665 33.1352 12.3261 32.9472L11.9828 33.549C12.3605 33.8498 12.8755 34.0003 13.3905 34.0003C14.3519 34.0003 14.9012 33.5114 14.9012 32.8344C14.9012 32.195 14.4549 31.8565 13.7682 31.7436L13.4248 31.706C13.1158 31.6684 12.8755 31.5932 12.8755 31.3675C12.8755 31.1043 13.1158 30.9538 13.4935 30.9538C13.9055 30.9538 14.3175 31.1419 14.5235 31.2547L14.8326 30.6153ZM33.9914 30.2392C33.5793 30.2392 33.3047 30.4649 33.133 30.7658V30.3145H32.412V33.9251H33.133V31.8941C33.133 31.2923 33.3733 30.9538 33.8197 30.9538C33.957 30.9538 34.1287 30.9914 34.266 31.029L34.472 30.2768C34.3347 30.2392 34.1287 30.2392 33.9914 30.2392ZM24.7896 32.1198C24.7896 33.2105 25.4763 34.0003 26.5407 34.0003C27.0214 34.0003 27.3647 33.8875 27.7081 33.5866L27.3647 32.9472C27.0901 33.1729 26.8154 33.2857 26.5064 33.2857C25.9227 33.2857 25.5107 32.8344 25.5107 32.1198C25.5107 31.4428 25.9227 30.9914 26.5064 30.9538C26.8154 30.9538 27.0901 31.0667 27.3647 31.2923L27.7081 30.6529C27.3647 30.3521 27.0214 30.2392 26.5407 30.2392C25.4763 30.2392 24.7896 31.029 24.7896 32.1198ZM31.4506 32.1198V30.3145H30.7296V30.7658C30.4892 30.4273 30.1459 30.2392 29.6995 30.2392C28.7725 30.2392 28.0514 31.029 28.0514 32.1198C28.0514 33.2105 28.7725 34.0003 29.6995 34.0003C30.1802 34.0003 30.5236 33.8122 30.7296 33.4737V33.9251H31.4506V32.1198ZM28.8068 32.1198C28.8068 31.4804 29.1845 30.9538 29.8025 30.9538C30.3862 30.9538 30.7982 31.4428 30.7982 32.1198C30.7982 32.7591 30.3862 33.2857 29.8025 33.2857C29.1845 33.2481 28.8068 32.7591 28.8068 32.1198ZM20.1888 30.2392C19.2274 30.2392 18.5407 30.9914 18.5407 32.1198C18.5407 33.2481 19.2274 34.0003 20.2231 34.0003C20.7038 34.0003 21.1845 33.8498 21.5622 33.5113L21.2188 32.9472C20.9442 33.1729 20.6008 33.3233 20.2575 33.3233C19.8111 33.3233 19.3647 33.0976 19.2617 32.4583H21.6995C21.6995 32.3454 21.6995 32.2702 21.6995 32.1574C21.7338 30.9914 21.1158 30.2392 20.1888 30.2392ZM20.1888 30.9162C20.6351 30.9162 20.9441 31.2171 21.0128 31.7813H19.2961C19.3647 31.2923 19.6738 30.9162 20.1888 30.9162ZM38.0772 32.1198V28.8853H37.3562V30.7658C37.1158 30.4273 36.7725 30.2392 36.3261 30.2392C35.3991 30.2392 34.6781 31.029 34.6781 32.1198C34.6781 33.2105 35.3991 34.0003 36.3261 34.0003C36.8068 34.0003 37.1502 33.8122 37.3562 33.4737V33.9251H38.0772V32.1198ZM35.4334 32.1198C35.4334 31.4804 35.8111 30.9538 36.4291 30.9538C37.0128 30.9538 37.4248 31.4428 37.4248 32.1198C37.4248 32.7591 37.0128 33.2857 36.4291 33.2857C35.8111 33.2481 35.4334 32.7591 35.4334 32.1198ZM11.3304 32.1198V30.3145H10.6094V30.7658C10.369 30.4273 10.0257 30.2392 9.57934 30.2392C8.65231 30.2392 7.93127 31.029 7.93127 32.1198C7.93127 33.2105 8.65231 34.0003 9.57934 34.0003C10.06 34.0003 10.4034 33.8122 10.6094 33.4737V33.9251H11.3304V32.1198ZM8.6523 32.1198C8.6523 31.4804 9.02998 30.9538 9.64801 30.9538C10.2317 30.9538 10.6437 31.4428 10.6437 32.1198C10.6437 32.7591 10.2317 33.2857 9.64801 33.2857C9.02998 33.2481 8.6523 32.7591 8.6523 32.1198Z" fill="white"/>
<path d="M25.4077 2.89648H14.5923V24.1841H25.4077V2.89648Z" fill="#FF5F00"/>
<path d="M15.279 13.5398C15.279 9.2146 17.133 5.37832 19.9828 2.89602C17.8884 1.09071 15.2446 0 12.3605 0C5.5279 0 0 6.05531 0 13.5398C0 21.0243 5.5279 27.0796 12.3605 27.0796C15.2446 27.0796 17.8884 25.9889 19.9828 24.1836C17.133 21.7389 15.279 17.865 15.279 13.5398Z" fill="#EB001B"/>
<path d="M39.9999 13.5398C39.9999 21.0243 34.472 27.0796 27.6394 27.0796C24.7553 27.0796 22.1115 25.9889 20.0171 24.1836C22.9012 21.7013 24.7209 17.865 24.7209 13.5398C24.7209 9.2146 22.8669 5.37832 20.0171 2.89602C22.1115 1.09071 24.7553 0 27.6394 0C34.472 0 39.9999 6.09292 39.9999 13.5398Z" fill="#F79E1B"/>
</g>
<defs>
<clipPath id="clip0">
<rect width="40" height="34" fill="white"/>
</clipPath>
</defs>
</svg>
