<svg width="16" height="16" viewBox="0 0 16 16" fill="none" xmlns="http://www.w3.org/2000/svg">
<path fill-rule="evenodd" clip-rule="evenodd" d="M11.8244 6.68491C11.8244 9.20981 9.68873 11.3698 6.91222 11.3698C4.13571 11.3698 2 9.20981 2 6.68491C2 4.16002 4.13571 2 6.91222 2C9.68873 2 11.8244 4.16002 11.8244 6.68491ZM10.738 12.2534C9.64252 12.9588 8.32701 13.3698 6.91222 13.3698C3.09471 13.3698 0 10.3769 0 6.68491C0 2.99294 3.09471 0 6.91222 0C10.7297 0 13.8244 2.99294 13.8244 6.68491C13.8244 8.29819 13.2335 9.778 12.2496 10.9329L16.0008 14.5608L14.6104 15.9984L10.738 12.2534Z" fill="#D1D1D1"/>
</svg>
