<svg width="48" height="47" viewBox="0 0 48 47" fill="none" xmlns="http://www.w3.org/2000/svg">
<g opacity="0.54">
<path d="M45 23.9998H44V15.9998C44 14.2998 42.7 12.9998 41 12.9998H40.1L35.1 4.29979C34.8 3.79979 34.2 3.6998 33.7 3.8998L29.9 6.09981L27.1 1.29979C26.8 0.799793 26.2 0.699799 25.7 0.899799L18.7 4.8998H5C2.2 4.8998 0 7.0998 0 9.8998V41.8998C0 44.6998 2.2 46.8998 5 46.8998H41C42.7 46.8998 44 45.5998 44 43.8998V35.8998H45C46.7 35.8998 48 34.5998 48 32.8998V26.8998C48 25.2998 46.7 23.9998 45 23.9998ZM33.8 6.19982L37.7 12.9998C32 12.9998 27.9 12.9998 22 12.9998L33.8 6.19982ZM25.8 3.19982L28.1 7.19982L18 12.9998H8.8L25.8 3.19982ZM2.9 7.8998C4.1 6.6998 4.1 6.9998 15.3 6.9998L4.9 12.9998C2.3 12.8998 1 9.6998 2.9 7.8998ZM42 43.9998C42 44.5998 41.6 44.9998 41 44.9998H5C3.3 44.9998 2 43.6998 2 41.9998V13.9998C3.9 15.3998 2.4 14.9998 41 14.9998C41.6 14.9998 42 15.3998 42 15.9998V23.9998H36C32.7 23.9998 30 26.6998 30 29.9998C30 33.2998 32.7 35.9998 36 35.9998H42V43.9998ZM46 32.9998C46 33.5998 45.6 33.9998 45 33.9998H36C33.8 33.9998 32 32.1998 32 29.9998C32 27.7998 33.8 25.9998 36 25.9998H45C45.6 25.9998 46 26.3998 46 26.9998V32.9998Z" fill="#333333"/>
<path d="M36.7 29.2999C36 28.6999 35 29.1999 35 29.9999C35 30.4999 35.4 30.9999 36 30.9999C36.8 30.9999 37.4 29.9999 36.7 29.2999Z" fill="#333333"/>
</g>
</svg>
