<svg width="57" height="17" viewBox="0 0 57 17" fill="none" xmlns="http://www.w3.org/2000/svg">
<path fill-rule="evenodd" clip-rule="evenodd" d="M41.1262 7.68042V17.0001H46.0417V11.4773H51.6125C53.9572 11.459 55.9488 9.8814 56.6999 7.68042H41.1262Z" fill="#37A72E"/>
<path fill-rule="evenodd" clip-rule="evenodd" d="M40.4706 0C40.7569 3.80937 44.1783 6.81718 48.3569 6.81718C48.3706 6.81718 56.9039 6.81718 56.9039 6.81718C56.967 6.46781 57 6.10722 57 5.73851C57 2.58292 54.5829 0.0233444 51.593 0.000158774L40.4706 0Z" fill="url(#paint0_linear)"/>
<path fill-rule="evenodd" clip-rule="evenodd" d="M33.1958 6.72653L33.1997 6.71783L33.2002 6.71797C33.2506 6.62272 33.3472 6.5583 33.458 6.5583C33.6181 6.5583 33.7485 6.69273 33.7528 6.86029L33.7529 6.86032V16.9135H38.6684V0H33.7529C33.1296 0.0218539 32.4253 0.503659 32.1635 1.09509L28.2518 9.93126C28.2421 9.96738 28.227 10.0011 28.2074 10.0314L28.2061 10.0343L28.2056 10.0341C28.1465 10.1239 28.0479 10.1826 27.9363 10.1826C27.7553 10.1826 27.6086 10.0281 27.6086 9.83744V0H22.6932V16.9135H27.6086V16.9116C28.2251 16.8777 28.9128 16.4013 29.1709 15.8184L33.1858 6.74931C33.1888 6.74155 33.1922 6.73395 33.1958 6.72653Z" fill="#37A72E"/>
<path fill-rule="evenodd" clip-rule="evenodd" d="M14.8409 7.01564L11.968 16.9135H8.43191L5.5573 7.00963C5.52958 6.85104 5.39764 6.73088 5.23906 6.73088C5.06034 6.73088 4.91546 6.88349 4.91546 7.07174C4.91546 7.07318 4.91547 7.07462 4.91548 7.07605L4.91546 16.9135H0V0H4.2191H5.47563C6.38009 0 7.3279 0.739346 7.59221 1.64995L9.98443 9.89187C10.1035 10.3019 10.2966 10.3015 10.4155 9.89187L12.8077 1.64995C13.0722 0.738709 14.0197 0 14.9243 0L16.1804 0H20.3991V16.9135H15.4837V7.07606C15.4837 7.07462 15.4837 7.07318 15.4837 7.07174C15.4837 6.88349 15.3388 6.73088 15.1601 6.73088C14.9995 6.73088 14.8662 6.85408 14.8409 7.01564Z" fill="#37A72E"/>
<defs>
<linearGradient id="paint0_linear" x1="40.4706" y1="3.40859" x2="57" y2="3.40859" gradientUnits="userSpaceOnUse">
<stop stop-color="#00A0E5"/>
<stop offset="1" stop-color="#0077C3"/>
</linearGradient>
</defs>
</svg>
