<svg width="16" height="16" viewBox="0 0 16 16" fill="none" xmlns="http://www.w3.org/2000/svg">
<path fill-rule="evenodd" clip-rule="evenodd" d="M8 15C11.866 15 15 11.866 15 8C15 4.13401 11.866 1 8 1C4.13401 1 1 4.13401 1 8C1 11.866 4.13401 15 8 15ZM8 16C12.4183 16 16 12.4183 16 8C16 3.58172 12.4183 0 8 0C3.58172 0 0 3.58172 0 8C0 12.4183 3.58172 16 8 16ZM9.02776 8.50021C8.84221 8.88059 8.45171 9.14265 8 9.14265C7.36882 9.14265 6.85714 8.63097 6.85714 7.99979C6.85714 7.54792 7.11939 7.15729 7.5 6.97182V3.14307C7.5 2.86692 7.72386 2.64307 8 2.64307C8.27614 2.64307 8.5 2.86692 8.5 3.14307V6.97182C8.72972 7.08377 8.91632 7.27044 9.02817 7.50021H11.4286C11.7047 7.50021 11.9286 7.72407 11.9286 8.00021C11.9286 8.27635 11.7047 8.50021 11.4286 8.50021H9.02776Z" fill="#0079BE"/>
</svg>
