<svg width="32" height="24" viewBox="0 0 32 24" fill="none" xmlns="http://www.w3.org/2000/svg">
<path fill-rule="evenodd" clip-rule="evenodd" d="M22.1765 0C21.7413 0 21.3561 0.281387 21.2238 0.695921L20.1224 4.14648H10.9265H1.00001C0.669637 4.14648 0.360589 4.30964 0.174251 4.58245C-0.0120867 4.85525 -0.0516635 5.20248 0.0685045 5.51022L4.69716 17.3637C4.84699 17.7474 5.21676 18 5.62866 18H16.6533C17.0768 18 17.4544 17.7332 17.5958 17.334L21.7955 5.48043C21.799 5.47053 21.8024 5.46057 21.8056 5.45055L22.907 2H31C31.5523 2 32 1.55228 32 1C32 0.447715 31.5523 0 31 0H22.1765ZM10.9265 6.14648H19.4377L15.9466 16H6.31171L2.46403 6.14648H10.9265ZM8 21.5C8 22.8807 6.88071 24 5.5 24C4.11929 24 3 22.8807 3 21.5C3 20.1193 4.11929 19 5.5 19C6.88071 19 8 20.1193 8 21.5ZM20.3307 21.5C20.3307 22.8807 19.2114 24 17.8307 24C16.4499 24 15.3307 22.8807 15.3307 21.5C15.3307 20.1193 16.4499 19 17.8307 19C19.2114 19 20.3307 20.1193 20.3307 21.5Z" fill="#0079BE"/>
</svg>
