<svg width="42" height="42" viewBox="0 0 42 42" fill="none" xmlns="http://www.w3.org/2000/svg">
<path fill-rule="evenodd" clip-rule="evenodd" d="M25.6263 17.8335C25.6263 19.8627 23.7847 21.667 21.3068 21.667C18.829 21.667 16.9874 19.8627 16.9874 17.8335C16.9874 15.8043 18.829 14 21.3068 14C23.7847 14 25.6263 15.8043 25.6263 17.8335ZM23.075 22.3935C25.1437 21.7313 26.6263 19.9397 26.6263 17.8335C26.6263 15.164 24.2447 13 21.3068 13C18.369 13 15.9874 15.164 15.9874 17.8335C15.9874 19.9362 17.465 21.7253 19.5283 22.3902C17.6027 22.8908 16.2117 24.1558 15.2713 25.3839C14.666 26.1745 14.2365 26.9623 13.9584 27.5513C13.819 27.8464 13.7168 28.0934 13.6489 28.2682C13.615 28.3557 13.5895 28.4252 13.5723 28.4738C13.5637 28.4981 13.5571 28.5172 13.5525 28.5307L13.5471 28.5467L13.5455 28.5515L13.545 28.5531L13.5448 28.5536C13.5447 28.5539 13.5447 28.5541 14.0201 28.7088C14.4956 28.8636 14.4955 28.8638 14.4955 28.8639L14.496 28.8622L14.4993 28.8523C14.5025 28.843 14.5076 28.8281 14.5147 28.8082C14.5289 28.7683 14.5509 28.708 14.5811 28.6302C14.6415 28.4746 14.7345 28.2496 14.8626 27.9783C15.1194 27.4345 15.5141 26.7118 16.0653 25.9919C17.1701 24.549 18.8611 23.167 21.3061 23.167C23.7406 23.167 25.2667 24.5374 26.2084 25.9634C26.68 26.6777 26.9966 27.3957 27.1952 27.937C27.2942 28.2069 27.3631 28.4307 27.4069 28.5854C27.4287 28.6627 27.4443 28.7225 27.4541 28.762C27.4591 28.7818 27.4626 28.7964 27.4647 28.8056L27.4669 28.8152L27.4673 28.8167C27.4672 28.8165 27.4672 28.8163 27.9555 28.7088C28.4438 28.6014 28.4438 28.6011 28.4437 28.6009L28.4436 28.6003L28.4432 28.5986L28.4421 28.5937L28.4383 28.5774C28.4351 28.5638 28.4305 28.5445 28.4244 28.52C28.4122 28.471 28.394 28.401 28.3691 28.3131C28.3193 28.1373 28.2428 27.8892 28.134 27.5926C27.917 27.0011 27.5686 26.2086 27.0429 25.4124C26.2242 24.1726 24.955 22.899 23.075 22.3935Z" fill="#0079BE"/>
<circle cx="21" cy="21" r="20.5" stroke="#0079BE"/>
</svg>
