<svg width="30" height="39" viewBox="0 0 30 39" fill="none" xmlns="http://www.w3.org/2000/svg">
<path d="M16.7938 16.5563C16.5172 16.3192 16.2011 16.1612 15.8454 16.0426C15.4898 15.9636 15.0947 15.9241 14.6205 15.9241H12.8029C12.4868 15.9241 12.2892 16.0031 12.1312 16.1216C12.0126 16.2402 11.9336 16.4773 11.9336 16.7934V21.8906C11.9336 22.1277 11.9336 22.2858 12.0126 22.4438C12.0521 22.6019 12.1312 22.6809 12.2497 22.7599C12.3682 22.839 12.5658 22.8785 12.8424 22.8785H14.66C14.9761 22.8785 15.2527 22.839 15.5293 22.7995C15.7664 22.7599 16.0035 22.6809 16.2406 22.6019C16.4777 22.4833 16.6752 22.3648 16.8333 22.2067C17.0704 21.9697 17.2679 21.7326 17.426 21.456C17.584 21.1794 17.7026 20.8633 17.7816 20.5077C17.8606 20.152 17.9002 19.7964 17.9002 19.3618C17.9002 18.1368 17.5445 17.1885 16.7938 16.5563ZM15.7664 21.456C15.6479 21.535 15.5293 21.614 15.4108 21.6536C15.2527 21.6931 15.1342 21.7326 15.0157 21.7326C14.8971 21.7326 14.6996 21.7326 14.4625 21.7326H13.3956V16.9909H14.3439C14.7786 16.9909 15.1342 17.0305 15.4503 17.149C15.7664 17.228 16.0035 17.4651 16.2011 17.8207C16.3986 18.1764 16.5172 18.69 16.5172 19.3618C16.4777 20.3891 16.2406 21.0608 15.7664 21.456Z" fill="#0079BE"/>
<path d="M29.3587 7.7842L29.3192 7.74468V7.70517L21.8116 0.197568L21.772 0.158055C21.772 0.158055 21.7325 0.158055 21.7325 0.118541C21.7325 0.118541 21.693 0.118541 21.693 0.0790274C21.5745 0 21.4559 0 21.2979 0H2.68693C1.97568 0 1.30395 0.276596 0.829787 0.75076L0.790274 0.790274C0.316109 1.26444 0 1.97568 0 2.68693V36.3131C0 37.0638 0.316109 37.7356 0.790274 38.2097C1.26444 38.6839 1.97568 39 2.68693 39H26.7508C27.5015 39 28.1733 38.6839 28.6474 38.2097C29.1216 37.7356 29.4377 37.0243 29.4377 36.3131V8.17933C29.4377 8.02128 29.3982 7.90274 29.3587 7.7842ZM22.0486 2.84498L26.5137 7.31003H23.234C22.9179 7.31003 22.6018 7.19149 22.4043 6.95441C22.2067 6.75684 22.0486 6.44073 22.0486 6.12462V2.84498ZM27.7386 36.3131C27.7386 36.5897 27.6201 36.8267 27.4225 37.0243C27.2249 37.2219 26.9878 37.3404 26.7112 37.3404H2.68693C2.41033 37.3404 2.17325 37.2219 1.97568 37.0638C1.77812 36.8663 1.69909 36.6292 1.69909 36.3526V2.64742C1.69909 2.37082 1.81763 2.13374 2.0152 1.93617L2.05471 1.89666C2.25228 1.7386 2.48936 1.62006 2.72644 1.62006H20.4286V6.08511C20.4286 6.87538 20.7447 7.58663 21.2979 8.13982C21.8116 8.6535 22.5623 8.96961 23.3526 8.96961H27.7386V36.3131Z" fill="#0079BE"/>
<path d="M10.1157 16.4771C9.91817 16.2795 9.68109 16.1609 9.36498 16.0819C9.08838 16.0029 8.65373 15.9634 8.14006 15.9634H6.32243C6.00632 15.9634 5.76923 16.0424 5.65069 16.1609C5.49264 16.2795 5.45312 16.5166 5.45312 16.8327V22.2065C5.45312 22.4831 5.53215 22.6807 5.65069 22.8388C5.76923 22.9968 5.9668 23.0363 6.16437 23.0363C6.36194 23.0363 6.51999 22.9573 6.67805 22.7992C6.79659 22.6412 6.87562 22.4436 6.87562 22.167V20.1913H8.17957C9.04887 20.1913 9.68109 19.9938 10.1157 19.6382C10.5504 19.2825 10.7875 18.7293 10.7875 18.0181C10.7875 17.702 10.748 17.3859 10.6294 17.1093C10.4714 16.8722 10.3133 16.6351 10.1157 16.4771ZM9.16741 18.6898C9.04887 18.8479 8.89081 18.9664 8.65373 19.0454C8.41665 19.1245 8.14005 19.164 7.82395 19.164H6.87562V17.0302H7.82395C8.45616 17.0302 8.8513 17.1488 9.08838 17.3464C9.28595 17.5439 9.36498 17.781 9.36498 18.0971C9.32546 18.3342 9.28595 18.5318 9.16741 18.6898Z" fill="#0079BE"/>
<path d="M19.9943 15.8845C19.7572 15.924 19.5992 15.9635 19.4806 16.0426C19.3621 16.0821 19.2435 16.2006 19.204 16.3192C19.125 16.4377 19.125 16.5958 19.125 16.8328V22.1672C19.125 22.4438 19.204 22.6809 19.3226 22.7994C19.4411 22.9575 19.6387 22.997 19.8362 22.997C20.0338 22.997 20.1919 22.918 20.3499 22.7994C20.4685 22.6414 20.5475 22.4438 20.5475 22.1672V19.8754H22.8788C23.0764 19.8754 23.2344 19.8359 23.353 19.7174C23.4715 19.6383 23.511 19.4803 23.511 19.3222C23.511 19.1642 23.4715 19.0456 23.353 18.9271C23.2344 18.8481 23.0764 18.769 22.8788 18.769H20.5475V16.9909H23.3134C23.5505 16.9909 23.7086 16.9514 23.8271 16.8328C23.9457 16.7143 23.9852 16.5958 23.9852 16.4377C23.9852 16.2797 23.9457 16.1611 23.8271 16.0426C23.7086 15.924 23.5505 15.8845 23.3134 15.8845H19.9943V15.8845Z" fill="#0079BE"/>
</svg>
