<svg width="41" height="34" viewBox="0 0 41 34" fill="none" xmlns="http://www.w3.org/2000/svg">
<g clip-path="url(#clip0)">
<path d="M26.043 24.1441H14.9565V2.88965H26.043V24.1441Z" fill="#6C6BBD"/>
<path d="M15.6602 13.5173C15.6602 9.2057 17.5526 5.36508 20.4994 2.89002C18.3444 1.08014 15.6248 -0.000116348 12.6691 -0.000116348C5.67183 -0.000116348 -0.000274658 6.05173 -0.000274658 13.5173C-0.000274658 20.9828 5.67183 27.0347 12.6691 27.0347C15.6248 27.0347 18.3444 25.9544 20.4994 24.1445C17.5526 21.6695 15.6602 17.8289 15.6602 13.5173Z" fill="#D32011"/>
<path d="M40.9997 13.5173C40.9997 20.9828 35.3276 27.0347 28.3303 27.0347C25.3747 27.0347 22.655 25.9544 20.4993 24.1445C23.4469 21.6695 25.3392 17.8289 25.3392 13.5173C25.3392 9.2057 23.4469 5.36508 20.4993 2.89002C22.655 1.08014 25.3747 -0.000116348 28.3303 -0.000116348C35.3276 -0.000116348 40.9997 6.05173 40.9997 13.5173Z" fill="#0099DF"/>
<path d="M29.794 30.15C29.9414 30.15 30.1533 30.1801 30.3152 30.248L30.0897 30.9836C29.935 30.9157 29.7803 30.8934 29.6321 30.8934C29.1536 30.8934 28.9143 31.2234 28.9143 31.8164V33.8291H28.182V30.2402H28.9071V30.676C29.0972 30.3606 29.3719 30.15 29.794 30.15ZM27.0889 30.9535H25.8926V32.5752C25.8926 32.9353 26.0118 33.1759 26.3783 33.1759C26.5685 33.1759 26.8077 33.108 27.0252 32.9731L27.2363 33.6409C27.0043 33.8136 26.6385 33.9193 26.3219 33.9193C25.4559 33.9193 25.1539 33.4234 25.1539 32.5898V30.9535H24.4707V30.2402H25.1539V29.1514H25.8926V30.2402H27.0889V30.9535ZM17.7207 31.7193C17.7989 31.201 18.0937 30.8478 18.6149 30.8478C19.0862 30.8478 19.3891 31.1632 19.4664 31.7193H17.7207ZM20.2269 32.0346C20.2197 30.9157 19.572 30.15 18.6286 30.15C17.6434 30.15 16.9538 30.9157 16.9538 32.0346C16.9538 33.1751 17.6716 33.9184 18.6786 33.9184C19.1853 33.9184 19.6493 33.7835 20.0577 33.4157L19.6985 32.8373C19.4173 33.078 19.058 33.2129 18.7205 33.2129C18.2492 33.2129 17.8198 32.98 17.7143 32.3346H20.2124C20.2197 32.2366 20.2269 32.1395 20.2269 32.0346ZM23.4428 31.1563C23.239 31.0206 22.8241 30.8478 22.3947 30.8478C21.9936 30.8478 21.7543 31.006 21.7543 31.2689C21.7543 31.5087 22.0072 31.5766 22.3238 31.6213L22.6686 31.6737C23.4009 31.7871 23.844 32.1171 23.844 32.7479C23.844 33.4312 23.2809 33.9193 22.3101 33.9193C21.7607 33.9193 21.254 33.7689 20.8529 33.4535L21.1976 32.8451C21.4441 33.0479 21.8107 33.2206 22.3174 33.2206C22.8169 33.2206 23.0843 33.0633 23.0843 32.7849C23.0843 32.5829 22.8942 32.4695 22.493 32.4102L22.1482 32.3578C21.395 32.2443 20.9866 31.8843 20.9866 31.299C20.9866 30.5857 21.536 30.15 22.3875 30.15C22.9224 30.15 23.4082 30.2781 23.7594 30.5256L23.4428 31.1563ZM32.4693 30.8917C32.3187 30.8917 32.1793 30.92 32.0496 30.9759C31.9207 31.0326 31.8088 31.1117 31.7145 31.2131C31.6203 31.3145 31.5461 31.4365 31.4922 31.5783C31.4382 31.7201 31.4116 31.8765 31.4116 32.0467C31.4116 32.2177 31.4382 32.3732 31.4922 32.515C31.5461 32.6568 31.6203 32.7789 31.7145 32.8803C31.8088 32.9817 31.9207 33.0608 32.0496 33.1175C32.1793 33.1742 32.3187 33.2017 32.4693 33.2017C32.62 33.2017 32.7602 33.1742 32.8891 33.1175C33.0188 33.0608 33.1315 32.9817 33.2258 32.8803C33.3216 32.7789 33.3958 32.6568 33.4505 32.515C33.5045 32.3732 33.5311 32.2177 33.5311 32.0467C33.5311 31.8765 33.5045 31.7201 33.4505 31.5783C33.3958 31.4365 33.3216 31.3145 33.2258 31.2131C33.1315 31.1117 33.0188 31.0326 32.8891 30.9759C32.7602 30.92 32.62 30.8917 32.4693 30.8917ZM32.4693 30.15C32.7304 30.15 32.972 30.1981 33.1944 30.2952C33.4167 30.3915 33.6092 30.5247 33.7712 30.694C33.9339 30.8633 34.0604 31.0635 34.1522 31.2939C34.244 31.525 34.29 31.776 34.29 32.0467C34.29 32.3174 34.244 32.5683 34.1522 32.7995C34.0604 33.0298 33.9339 33.2309 33.7712 33.4002C33.6092 33.5695 33.4167 33.7019 33.1944 33.799C32.972 33.8952 32.7304 33.9434 32.4693 33.9434C32.2083 33.9434 31.9667 33.8952 31.7443 33.799C31.522 33.7019 31.3311 33.5695 31.1699 33.4002C31.0088 33.2309 30.8823 33.0298 30.7905 32.7995C30.6987 32.5683 30.6528 32.3174 30.6528 32.0467C30.6528 31.776 30.6987 31.525 30.7905 31.2939C30.8823 31.0635 31.0088 30.8633 31.1699 30.694C31.3311 30.5247 31.522 30.3915 31.7443 30.2952C31.9667 30.1981 32.2083 30.15 32.4693 30.15ZM13.4447 32.0346C13.4447 31.4039 13.8322 30.8856 14.4654 30.8856C15.0704 30.8856 15.4788 31.3815 15.4788 32.0346C15.4788 32.6878 15.0704 33.1828 14.4654 33.1828C13.8322 33.1828 13.4447 32.6654 13.4447 32.0346ZM16.1684 32.0346V30.2402H15.4369V30.676C15.2041 30.3528 14.8529 30.15 14.3744 30.15C13.431 30.15 12.6923 30.9381 12.6923 32.0346C12.6923 33.1304 13.431 33.9193 14.3744 33.9193C14.8529 33.9193 15.2041 33.7165 15.4369 33.3933V33.8291H16.1684V32.0346ZM12.0446 33.8291V31.5766C12.0446 30.7284 11.5379 30.1577 10.7219 30.15C10.2925 30.1423 9.8486 30.2849 9.53926 30.7885C9.30725 30.3906 8.94071 30.15 8.42675 30.15C8.06826 30.15 7.71622 30.2626 7.44152 30.6828V30.2402H6.71005V33.8291H7.44877V31.8396C7.44877 31.2165 7.77262 30.8856 8.27208 30.8856C8.75784 30.8856 9.00435 31.2234 9.00435 31.8318V33.8291H9.74307V31.8396C9.74307 31.2165 10.0814 30.8856 10.5664 30.8856C11.0666 30.8856 11.3059 31.2234 11.3059 31.8318V33.8291H12.0446Z" fill="white"/>
</g>
<defs>
<clipPath id="clip0">
<rect width="41" height="34" fill="white"/>
</clipPath>
</defs>
</svg>
