<svg width="15" height="9" viewBox="0 0 15 9" fill="none" xmlns="http://www.w3.org/2000/svg">
<path d="M13.8379 0.621094C13.9141 0.316406 13.8379 0.0625 13.3809 0.0625H11.8828C11.502 0.0625 11.3242 0.265625 11.2227 0.494141C11.2227 0.494141 10.4609 2.34766 9.39453 3.56641C9.03906 3.89648 8.88672 4.02344 8.68359 4.02344C8.60742 4.02344 8.45508 3.89648 8.45508 3.5918V0.621094C8.45508 0.240234 8.35352 0.0625 8.02344 0.0625H5.6875C5.43359 0.0625 5.30664 0.240234 5.30664 0.417969C5.30664 0.773438 5.83984 0.849609 5.89062 1.86523V4.07422C5.89062 4.55664 5.81445 4.6582 5.61133 4.6582C5.10352 4.6582 3.88477 2.7793 3.14844 0.646484C2.99609 0.240234 2.84375 0.0625 2.46289 0.0625H0.964844C0.558594 0.0625 0.457031 0.265625 0.457031 0.494141C0.457031 0.900391 0.964844 2.85547 2.81836 5.4707C4.0625 7.24805 5.81445 8.1875 7.38867 8.1875C8.32812 8.1875 8.45508 7.98438 8.45508 7.62891C8.45508 5.92773 8.37891 5.75 8.83594 5.75C9.06445 5.75 9.44531 5.87695 10.334 6.74023C11.3496 7.75586 11.5273 8.1875 12.0859 8.1875H13.584C14.0156 8.1875 14.2188 7.98438 14.0918 7.55273C13.8125 6.68945 11.9082 4.86133 11.8066 4.73438C11.5781 4.45508 11.6543 4.32812 11.8066 4.07422C11.8066 4.07422 13.6348 1.48438 13.8379 0.621094Z" fill="#0079BE"/>
</svg>
