<svg width="90" height="77" viewBox="0 0 90 77" fill="none" xmlns="http://www.w3.org/2000/svg">
<path fill-rule="evenodd" clip-rule="evenodd" d="M80 60.3939H65.379L47 75.3703L45 77V74.4201V62.3939V60.3939H43H10C4.47715 60.3939 0 55.9168 0 50.3939V10C0 4.47715 4.47715 0 10 0H80C85.5229 0 90 4.47715 90 10V50.3939C90 55.9168 85.5229 60.3939 80 60.3939ZM64.1156 58.8435L47 72.7904V60.3939V58.3939H45H10C5.58172 58.3939 2 54.8122 2 50.3939V10C2 5.58172 5.58172 2 10 2H80C84.4183 2 88 5.58172 88 10V50.3939C88 54.8122 84.4183 58.3939 80 58.3939H65.379H64.6673L64.1156 58.8435ZM25.7143 35.3166C28.9523 35.3166 31.5715 32.6882 31.5715 29.4529C31.5715 26.2177 28.9523 23.5893 25.7143 23.5893C22.4763 23.5893 19.8572 26.2177 19.8572 29.4529C19.8572 32.6882 22.4763 35.3166 25.7143 35.3166ZM29.5715 29.4529C29.5715 31.5868 27.8446 33.3166 25.7143 33.3166C23.5841 33.3166 21.8572 31.5868 21.8572 29.4529C21.8572 27.3191 23.5841 25.5893 25.7143 25.5893C27.8446 25.5893 29.5715 27.3191 29.5715 29.4529ZM50.8571 29.4529C50.8571 32.6882 48.2379 35.3166 45 35.3166C41.762 35.3166 39.1428 32.6882 39.1428 29.4529C39.1428 26.2177 41.762 23.5893 45 23.5893C48.2379 23.5893 50.8571 26.2177 50.8571 29.4529ZM45 33.3166C47.1302 33.3166 48.8571 31.5868 48.8571 29.4529C48.8571 27.3191 47.1302 25.5893 45 25.5893C42.8697 25.5893 41.1428 27.3191 41.1428 29.4529C41.1428 31.5868 42.8697 33.3166 45 33.3166ZM64.2856 35.3166C67.5236 35.3166 70.1428 32.6882 70.1428 29.4529C70.1428 26.2177 67.5236 23.5893 64.2856 23.5893C61.0476 23.5893 58.4285 26.2177 58.4285 29.4529C58.4285 32.6882 61.0476 35.3166 64.2856 35.3166ZM68.1428 29.4529C68.1428 31.5868 66.4158 33.3166 64.2856 33.3166C62.1554 33.3166 60.4285 31.5868 60.4285 29.4529C60.4285 27.3191 62.1554 25.5893 64.2856 25.5893C66.4158 25.5893 68.1428 27.3191 68.1428 29.4529Z" fill="#0079BE"/>
</svg>
