<svg width="13" height="16" viewBox="0 0 13 16" fill="none" xmlns="http://www.w3.org/2000/svg">
<path d="M5.67411 0.831511L0.412854 6.09265C0.262671 6.24284 0.180236 6.443 0.180236 6.65643C0.180236 6.8701 0.26279 7.07014 0.412854 7.22033L0.890644 7.698C1.04059 7.84806 1.24087 7.93073 1.45442 7.93073C1.66785 7.93073 1.87489 7.84806 2.02483 7.698L5.10086 4.62872L5.10086 14.38C5.10086 14.8196 5.44505 15.167 5.88482 15.167L6.56029 15.167C7.00006 15.167 7.37895 14.8196 7.37895 14.38L7.37895 4.5939L10.4721 7.69788C10.6223 7.84794 10.8172 7.93061 11.0307 7.93061C11.244 7.93061 11.4417 7.84794 11.5918 7.69788L12.068 7.22021C12.2182 7.07002 12.3 6.86998 12.3 6.65631C12.3 6.44288 12.2171 6.24272 12.067 6.09253L6.80581 0.831393C6.65516 0.680855 6.45404 0.598065 6.24026 0.598657C6.02576 0.598183 5.82453 0.680855 5.67411 0.831511Z" fill="#0079BE"/>
</svg>
