<svg width="91" height="72" viewBox="0 0 91 72" fill="none" xmlns="http://www.w3.org/2000/svg">
<g clip-path="url(#clip0)">
<path fill-rule="evenodd" clip-rule="evenodd" d="M22.0954 39.3201L22.8337 40.4286L22.9927 40.4286L23.5235 40.8225C24.5212 41.5629 25.7537 42.0001 27.0942 42.0001C28.4347 42.0001 29.6673 41.5629 30.665 40.8225L31.1958 40.4286L31.3548 40.4286L32.093 39.3201C32.7256 38.3702 33.0942 37.2312 33.0942 36.0001C33.0942 34.7689 32.7256 33.6299 32.093 32.6801L31.3548 31.5715L31.1957 31.5715L30.6649 31.1776C29.6673 30.4373 28.4347 30.0001 27.0942 30.0001C25.7538 30.0001 24.5212 30.4373 23.5236 31.1776L22.9927 31.5715L22.8337 31.5715L22.0955 32.6801C21.4629 33.6299 21.0942 34.7689 21.0942 36.0001C21.0942 37.2312 21.4629 38.3702 22.0954 39.3201ZM18.1264 31.5715L20.4308 31.5715C20.0229 32.184 19.6972 32.8559 19.4695 33.5715C19.2258 34.3374 19.0942 35.1534 19.0942 36.0001C19.0942 36.8468 19.2258 37.6627 19.4695 38.4286C19.6972 39.1442 20.0229 39.8162 20.4308 40.4286L18.1263 40.4286L6.92857 40.4286C4.48274 40.4286 2.5 38.4459 2.5 36.0001C2.5 33.5542 4.48274 31.5715 6.92857 31.5715L18.1264 31.5715ZM31.8567 29.5715L33.7577 29.5715L84.0714 29.5715C87.6218 29.5715 90.5 32.4497 90.5 36.0001C90.5 39.5505 87.6218 42.4286 84.0714 42.4286L33.7577 42.4286L31.8568 42.4286C30.5262 43.416 28.8784 44.0001 27.0942 44.0001C25.31 44.0001 23.6623 43.416 22.3317 42.4286L20.4308 42.4286L6.92857 42.4286C3.37817 42.4286 0.499998 39.5505 0.499999 36.0001C0.499999 32.4497 3.37817 29.5715 6.92857 29.5715L20.4308 29.5715L22.3317 29.5715C23.6623 28.5841 25.3101 28.0001 27.0942 28.0001C28.8784 28.0001 30.5262 28.5841 31.8567 29.5715ZM34.719 33.5715C34.4912 32.8559 34.1655 32.184 33.7577 31.5715L36.0621 31.5715L84.0714 31.5715C86.5173 31.5715 88.5 33.5542 88.5 36.0001C88.5 38.4459 86.5173 40.4286 84.0714 40.4286L36.0621 40.4286L33.7577 40.4286C34.1656 39.8162 34.4912 39.1442 34.719 38.4286C34.9627 37.6627 35.0942 36.8468 35.0942 36.0001C35.0942 35.1534 34.9627 34.3374 34.719 33.5715ZM64.6662 13.4877L65.4045 14.5963L65.5635 14.5963L66.0943 14.9902C67.092 15.7305 68.3245 16.1677 69.665 16.1677C71.0055 16.1677 72.2381 15.7305 73.2358 14.9902L73.7666 14.5963L73.9256 14.5963L74.6638 13.4877C75.2964 12.5378 75.665 11.3989 75.665 10.1677C75.665 8.93656 75.2964 7.79758 74.6638 6.8477L73.9256 5.73913L73.7665 5.73913L73.2357 5.34524C72.2381 4.60494 71.0055 4.16772 69.665 4.16772C68.3246 4.16772 67.092 4.60494 66.0944 5.34524L65.5635 5.73913L65.4045 5.73913L64.6663 6.8477C64.0337 7.79758 63.665 8.93656 63.665 10.1677C63.665 11.3989 64.0337 12.5378 64.6662 13.4877ZM60.6972 5.73913L6.92857 5.73913C4.48274 5.73913 2.5 7.72187 2.5 10.1677C2.5 12.6135 4.48274 14.5963 6.92857 14.5963L60.6971 14.5963L63.0016 14.5963C62.5937 13.9838 62.268 13.3119 62.0403 12.5963C61.7966 11.8304 61.665 11.0144 61.665 10.1677C61.665 9.32103 61.7966 8.50506 62.0403 7.73913C62.268 7.02354 62.5937 6.35162 63.0016 5.73913L60.6972 5.73913ZM74.4275 3.73913L76.3285 3.73913L84.0714 3.73913C87.6218 3.73913 90.5 6.6173 90.5 10.1677C90.5 13.7181 87.6218 16.5963 84.0714 16.5963L76.3285 16.5963L74.4276 16.5963C73.097 17.5837 71.4492 18.1677 69.665 18.1677C67.8808 18.1677 66.2331 17.5837 64.9025 16.5963L63.0016 16.5963L6.92857 16.5963C3.37817 16.5963 0.499999 13.7181 0.5 10.1677C0.5 6.6173 3.37817 3.73913 6.92857 3.73913L63.0016 3.73913L64.9025 3.73913C66.2331 2.75178 67.8809 2.16772 69.665 2.16772C71.4492 2.16772 73.097 2.75178 74.4275 3.73913ZM77.2898 7.73913C77.062 7.02354 76.7363 6.35162 76.3285 5.73913L78.6329 5.73913L84.0714 5.73913C86.5173 5.73913 88.5 7.72187 88.5 10.1677C88.5 12.6135 86.5173 14.5963 84.0714 14.5963L78.6329 14.5963L76.3285 14.5963C76.7364 13.9838 77.062 13.3119 77.2898 12.5963C77.5335 11.8304 77.665 11.0144 77.665 10.1677C77.665 9.32103 77.5335 8.50506 77.2898 7.73913ZM65.4045 66.2658L64.6663 65.1572C64.0337 64.2073 63.665 63.0683 63.665 61.8372C63.665 60.606 64.0337 59.4671 64.6663 58.5172L65.4045 57.4086L65.5635 57.4086L66.0943 57.0147C67.092 56.2744 68.3245 55.8372 69.665 55.8372C71.0055 55.8372 72.2381 56.2744 73.2357 57.0147L73.7665 57.4086L73.9256 57.4086L74.6638 58.5172C75.2964 59.4671 75.665 60.606 75.665 61.8372C75.665 63.0683 75.2964 64.2073 74.6638 65.1572L73.9256 66.2658L73.7666 66.2658L73.2357 66.6597C72.2381 67.4 71.0055 67.8372 69.665 67.8372C68.3245 67.8372 67.092 67.4 66.0943 66.6597L65.5635 66.2658L65.4045 66.2658ZM6.92857 57.4086L60.6972 57.4086L63.0016 57.4086C62.5937 58.0211 62.268 58.693 62.0403 59.4086C61.7966 60.1745 61.665 60.9905 61.665 61.8372C61.665 62.6839 61.7966 63.4998 62.0403 64.2658C62.268 64.9814 62.5937 65.6533 63.0016 66.2658L60.6971 66.2658L6.92857 66.2658C4.48274 66.2658 2.5 64.283 2.5 61.8372C2.5 59.3913 4.48274 57.4086 6.92857 57.4086ZM76.3285 55.4086L74.4275 55.4086C73.097 54.4213 71.4492 53.8372 69.665 53.8372C67.8809 53.8372 66.2331 54.4213 64.9025 55.4086L63.0016 55.4086L6.92857 55.4086C3.37817 55.4086 0.499998 58.2868 0.499997 61.8372C0.499997 65.3876 3.37817 68.2658 6.92857 68.2658L63.0016 68.2658L64.9025 68.2658C66.2331 69.2531 67.8809 69.8372 69.665 69.8372C71.4492 69.8372 73.097 69.2531 74.4276 68.2658L76.3285 68.2658L84.0714 68.2658C87.6218 68.2658 90.5 65.3876 90.5 61.8372C90.5 58.2868 87.6218 55.4086 84.0714 55.4086L76.3285 55.4086ZM76.3285 57.4086C76.7364 58.0211 77.062 58.693 77.2898 59.4086C77.5335 60.1745 77.665 60.9905 77.665 61.8372C77.665 62.6839 77.5335 63.4998 77.2898 64.2658C77.062 64.9814 76.7364 65.6533 76.3285 66.2658L78.6329 66.2658L84.0714 66.2658C86.5173 66.2658 88.5 64.283 88.5 61.8372C88.5 59.3913 86.5173 57.4086 84.0714 57.4086L78.6329 57.4086L76.3285 57.4086Z" fill="#0079BE"/>
</g>
<defs>
<clipPath id="clip0">
<rect width="90" height="72" fill="white" transform="translate(0.5)"/>
</clipPath>
</defs>
</svg>
