<svg width="48" height="48" viewBox="0 0 48 48" fill="none" xmlns="http://www.w3.org/2000/svg">
<g opacity="0.54">
<path d="M28 11.9001C28 9.70012 28 5.30012 28 3.00012C28 1.30012 26.7 0.00012207 25 0.00012207H3C1.3 0.00012207 0 1.30012 0 3.00012C0 15.8001 0 38.0001 0 45.0001C0 46.7001 1.3 48.0001 3 48.0001H25C26.7 48.0001 28 46.7001 28 45.0001C28 43.2001 28 41.9001 28 40.1001C37.8 43.6001 48 36.2001 48 26.0001C48 15.7001 37.8 8.40012 28 11.9001ZM2 3.00012C2 2.40012 2.4 2.00012 3 2.00012H25C25.6 2.00012 26 2.40012 26 3.00012V6.00012H2V3.00012ZM26 45.0001C26 45.6001 25.6 46.0001 25 46.0001H3C2.4 46.0001 2 45.6001 2 45.0001V42.0001H26V45.0001ZM26 40.0001H2V8.00012H26V12.7001C15.3 18.3001 15.3 33.6001 26 39.2001V40.0001ZM33 39.0001C25.8 39.0001 20 33.2001 20 26.0001C20 18.8001 25.8 13.0001 33 13.0001C40.2 13.0001 46 18.8001 46 26.0001C46 33.2001 40.2 39.0001 33 39.0001Z" fill="#333333"/>
<path d="M7.00039 3.00012C5.70039 3.00012 5.70039 5.00012 7.00039 5.00012C8.30039 5.00012 8.30039 3.00012 7.00039 3.00012Z" fill="#333333"/>
<path d="M17.0004 3.00012H11.0004C9.70039 3.00012 9.70039 5.00012 11.0004 5.00012H17.0004C18.3004 5.00012 18.3004 3.00012 17.0004 3.00012Z" fill="#333333"/>
<path d="M13.0004 45.0001H15.0004C16.3004 45.0001 16.3004 43.0001 15.0004 43.0001H13.0004C11.7004 43.0001 11.7004 45.0001 13.0004 45.0001Z" fill="#333333"/>
<path d="M37.7773 32.0001H35.1919L33.7417 26.3751C33.688 26.1749 33.5952 25.7623 33.4634 25.1373C33.3364 24.5074 33.2632 24.0851 33.2437 23.8702C33.2144 24.1339 33.1411 24.5587 33.0239 25.1447C32.9067 25.7257 32.8164 26.1407 32.7529 26.3898L31.3101 32.0001H28.7319L26 21.2921H28.2339L29.6035 27.1368C29.8428 28.2159 30.0161 29.151 30.1235 29.942C30.1528 29.6637 30.2188 29.234 30.3213 28.653C30.4287 28.067 30.5288 27.6129 30.6216 27.2906L32.1816 21.2921H34.3276L35.8877 27.2906C35.9561 27.5592 36.0415 27.9694 36.144 28.5211C36.2466 29.0729 36.3247 29.5465 36.3784 29.942C36.4272 29.5612 36.5054 29.0875 36.6128 28.5211C36.7202 27.9498 36.8179 27.4884 36.9058 27.1368L38.2681 21.2921H40.502L37.7773 32.0001Z" fill="black"/>
</g>
</svg>
