<svg width="27" height="24" viewBox="0 0 27 24" fill="none" xmlns="http://www.w3.org/2000/svg">
<path d="M12.2588 4.32696L12.259 4.32733L12.2592 4.32761L12.2593 4.32782L12.2594 4.32797L13.091 5.57572L13.9224 4.32788L13.9225 4.32773L13.9227 4.32753L13.9229 4.32724L13.9231 4.32688L13.9251 4.324L13.9392 4.30338C13.9526 4.28396 13.9738 4.2535 14.0025 4.21347C14.0599 4.13333 14.1467 4.01533 14.2595 3.87113C14.486 3.58152 14.8122 3.19262 15.2103 2.79478C16.0411 1.96443 17.0395 1.24281 18.002 1.09606C19.6969 0.837631 21.528 1.09401 22.8971 1.93474C24.2125 2.74253 25.1818 4.13236 25.1818 6.39361C25.1818 8.35041 24.4515 10.3723 23.2769 12.3468C22.1055 14.3162 20.5285 16.1773 18.9262 17.7936C17.327 19.4068 15.724 20.7547 14.5191 21.7001C13.93 22.1622 13.4381 22.5267 13.0909 22.7773C12.7437 22.5267 12.2517 22.1623 11.6627 21.7002C10.4578 20.7549 8.85481 19.4071 7.25561 17.794C5.65329 16.1777 4.07633 14.3167 2.90489 12.3474C1.73035 10.373 1 8.35116 1 6.39436C1 4.13311 1.96933 2.74328 3.28476 1.93549C4.65382 1.09477 6.4849 0.838384 8.17985 1.09681C9.1424 1.24357 10.1408 1.96508 10.9716 2.79523C11.3697 3.19299 11.6959 3.58179 11.9224 3.87134C12.0351 4.0155 12.122 4.13347 12.1794 4.21359C12.2081 4.25361 12.2293 4.28406 12.2427 4.30348L12.2568 4.32409L12.2588 4.32696Z" stroke="#0079BE" stroke-width="2"/>
</svg>
