<svg width="91" height="90" viewBox="0 0 91 90" fill="none" xmlns="http://www.w3.org/2000/svg">
<g clip-path="url(#clip0)">
<path fill-rule="evenodd" clip-rule="evenodd" d="M21.5984 0.289202C21.8784 0.0122007 22.2948 -0.0747031 22.6622 0.0672223L38.6971 6.26216C38.8255 6.31174 38.9422 6.38728 39.04 6.48405L90.1814 57.0762C90.3713 57.264 90.4781 57.52 90.4781 57.7871C90.4781 58.0542 90.3713 58.3102 90.1814 58.498L80.1713 68.4006C79.7816 68.7861 79.1544 68.7861 78.7647 68.4006L27.6233 17.8085C27.5204 17.7067 27.4408 17.5837 27.3901 17.4481L21.3653 1.35055C21.2272 0.981715 21.3185 0.566204 21.5984 0.289202ZM28.1801 13.8533C28.4343 14.5325 29.3044 14.7237 29.8199 14.2136L35.4362 8.65766C35.9519 8.14755 35.77 7.27534 35.0933 7.01395L26.0968 3.5382C25.2918 3.22722 24.4973 4.01335 24.7998 4.82153L28.1801 13.8533ZM30.4672 16.3867C30.0715 16.778 30.0715 17.4171 30.4672 17.8085L78.7647 65.5873C79.1544 65.9728 79.7816 65.9728 80.1713 65.5873L87.3376 58.498C87.7332 58.1066 87.7332 57.4675 87.3376 57.0762L39.04 9.29733C38.6504 8.91188 38.0231 8.91188 37.6335 9.29733L30.4672 16.3867ZM47.5884 25.8274C47.9768 25.4348 48.61 25.4314 49.0026 25.8198L57.2099 33.939C57.6025 34.3274 57.606 34.9605 57.2176 35.3531C56.8291 35.7458 56.196 35.7492 55.8034 35.3608L47.5961 27.2416C47.2034 26.8532 47.2 26.2201 47.5884 25.8274ZM62.2543 39.2382C62.2543 39.7905 61.8018 40.2382 61.2435 40.2382C60.6852 40.2382 60.2326 39.7905 60.2326 39.2382C60.2326 38.6859 60.6852 38.2382 61.2435 38.2382C61.8018 38.2382 62.2543 38.6859 62.2543 39.2382ZM2.5 6.4772C2.5 5.57869 3.58645 5.13554 4.21376 5.76926C7.81816 9.4105 13.5801 15.2162 18.0462 19.6451L14.0001 23.6476C13.6075 24.0361 13.6041 24.6692 13.9925 25.0618C14.3809 25.4545 15.014 25.4579 15.4067 25.0695L19.4676 21.0521L19.5429 21.1266L19.6735 21.2558L19.8042 21.3851L20.3296 21.9048L20.8584 22.4279L21.3905 22.9544L21.5241 23.0865L21.6579 23.2189L21.926 23.4841L22.0603 23.617L22.1949 23.7501L22.3297 23.8835L22.4646 24.017L22.5998 24.1507L22.7351 24.2845L22.8706 24.4186L23.0064 24.5529L23.1423 24.6873L23.2784 24.822L23.4147 24.9568L23.5511 25.0918L23.6878 25.227L23.8246 25.3623L23.9616 25.4979L24.0988 25.6336L24.2362 25.7695L24.3737 25.9055L24.5114 26.0418L24.6493 26.1782L24.9256 26.4515L25.064 26.5884L25.2025 26.7255L25.3413 26.8627L25.4801 27.0001L25.6192 27.1377L25.7584 27.2754L25.8978 27.4132L26.0373 27.5513L26.177 27.6895L26.3168 27.8278L26.4568 27.9663L26.597 28.1049L26.7373 28.2437L26.8777 28.3827L27.0183 28.5218L27.1591 28.661L27.3 28.8004L27.441 28.9399L27.5822 29.0795L27.7235 29.2193L27.8649 29.3593L28.0065 29.4993L28.0505 29.5429L24.0049 33.545C23.6123 33.9334 23.6089 34.5666 23.9973 34.9592C24.3857 35.3518 25.0189 35.3553 25.4115 34.9668L29.4724 30.9495L29.5727 31.0487L29.7159 31.1903L29.8591 31.3321L30.0025 31.4739L30.146 31.6158L30.2896 31.7579L30.5772 32.0424L30.7211 32.1848L30.8652 32.3273L31.1536 32.6126L31.298 32.7554L31.4424 32.8983L31.7317 33.1845L31.8765 33.3277L32.0213 33.471L32.3114 33.758L32.4566 33.9016L32.6018 34.0453L32.7472 34.1891L32.8926 34.3329L33.0381 34.4769L33.1837 34.6209L33.3294 34.7651L33.4752 34.9093L33.6211 35.0536L33.767 35.198L33.913 35.3424L34.0591 35.4869L34.2053 35.6315L34.3516 35.7762L34.4979 35.921L34.6443 36.0658L34.9373 36.3557L35.0839 36.5007L35.2306 36.6458L35.3773 36.791L35.5241 36.9362L35.671 37.0815L35.8179 37.2268L35.9649 37.3722L36.1119 37.5177L36.4062 37.8088L36.5534 37.9544L36.7006 38.1001L36.8479 38.2458L36.9953 38.3916L37.1427 38.5374L37.2902 38.6833L37.5852 38.9752L37.8804 39.2672L38.0281 39.4133L38.1234 39.5076L34.0778 43.5097C33.6852 43.8981 33.6818 44.5313 34.0702 44.9239C34.4586 45.3165 35.0917 45.3199 35.4844 44.9315L39.5453 40.9142L39.6546 41.0223L39.9507 41.3152L40.0988 41.4617L40.2469 41.6082L40.395 41.7547L40.5431 41.9013L40.6912 42.0478L40.8394 42.1944L40.9875 42.3409L41.1357 42.4875L41.2839 42.6341L41.432 42.7807L41.5802 42.9273L41.7284 43.0739L41.8766 43.2205L42.0248 43.3671L42.173 43.5137L42.3212 43.6603L42.4694 43.8068L42.6175 43.9534L42.7657 44.1L42.9139 44.2466L43.062 44.3932L43.2102 44.5397L43.3583 44.6863L43.5065 44.8328L43.8026 45.1258L44.0988 45.4188L44.2468 45.5652L44.3948 45.7116L44.5428 45.858L44.6908 46.0044L44.9866 46.2971L45.1345 46.4434L45.2823 46.5896L45.4302 46.7358L45.5779 46.882L45.7257 47.0282L45.8734 47.1743L46.0211 47.3204L46.1687 47.4665L46.3163 47.6125L46.4639 47.7585L46.6114 47.9044L46.7588 48.0503L46.9063 48.1961L47.0536 48.3419L47.3482 48.6333L47.4954 48.779L47.6426 48.9245L47.7897 49.0701L47.9368 49.2155L48.0602 49.3376L44.0146 53.3397C43.6219 53.7282 43.6185 54.3613 44.0069 54.7539C44.3953 55.1466 45.0285 55.15 45.4211 54.7616L49.4821 50.7442L49.6965 50.9564L49.8427 51.101L49.9888 51.2456L50.1349 51.39L50.2808 51.5344L50.4267 51.6787L50.5725 51.823L50.7182 51.9671L50.8639 52.1112L51.0094 52.2552L51.1549 52.3991L51.3002 52.5429L51.4455 52.6866L51.5907 52.8302L51.7358 52.9737L51.8808 53.1172L52.0257 53.2605L52.1705 53.4038L52.3152 53.5469L52.4598 53.69L52.6043 53.8329L53.1812 54.4037L53.3252 54.5461L53.469 54.6884L53.7564 54.9727L53.8999 55.1147L54.0433 55.2565L54.1866 55.3983L54.3298 55.5399L54.4728 55.6814L54.6157 55.8228L54.7585 55.964L54.9012 56.1052L55.0438 56.2462L55.1862 56.3871L55.4706 56.6685L55.6127 56.809L55.7546 56.9493L55.8963 57.0896L56.0379 57.2297L56.1794 57.3697L56.3208 57.5095L56.462 57.6492L56.603 57.7887L56.7439 57.9281L56.8847 58.0674L57.0253 58.2065L57.1658 58.3455L57.4463 58.623L57.7262 58.8999L57.866 59.0381L58.0055 59.1762L58.1449 59.3141L58.2692 59.437L54.2236 63.4391C53.8309 63.8275 53.8275 64.4607 54.2159 64.8533C54.6043 65.2459 55.2375 65.2493 55.6301 64.8609L59.6911 60.8436L59.805 60.9563L59.9422 61.092L60.0793 61.2276L60.2161 61.363L60.3528 61.4982L60.4893 61.6333L60.7618 61.9028L60.8977 62.0373L61.0335 62.1716L61.1691 62.3057L61.3045 62.4396L61.4396 62.5734L61.5746 62.7069L61.7094 62.8403L61.8441 62.9734L61.9785 63.1064L62.1127 63.2392L62.3805 63.5041L62.5141 63.6363L62.6475 63.7683L62.9137 64.0316L63.0464 64.1629L63.179 64.2941L63.4435 64.5557L63.5754 64.6862L63.7071 64.8165L63.8386 64.9466L63.9699 65.0765L64.2318 65.3355L65.2702 66.3628L66.2937 67.3753L66.4205 67.5007L66.5471 67.626L66.6734 67.751L66.7995 67.8757L66.9254 68.0002L67.0509 68.1244L67.1763 68.2484L67.3013 68.3721L67.4261 68.4956L67.5507 68.6188L67.675 68.7418L67.799 68.8645L67.9228 68.9869L68.0463 69.1091L68.1695 69.231L68.274 69.3343L64.2284 73.3365C63.8358 73.7249 63.8323 74.358 64.2208 74.7507C64.6092 75.1433 65.2423 75.1467 65.6349 74.7583L69.6959 70.741L69.7467 70.7912L69.8661 70.9093L69.9851 71.0271L70.2224 71.2618L70.3406 71.3788L70.4585 71.4954L70.5761 71.6117L70.6934 71.7278L70.8104 71.8436L70.9272 71.959L71.1597 72.189L71.391 72.4179L71.5062 72.5318L71.6211 72.6455L71.7357 72.7588L71.85 72.8719L71.9639 72.9846L72.0776 73.097L78.6334 79.5825L78.7236 79.6717L78.8134 79.7605L78.9028 79.849L78.9917 79.937L79.1685 80.1118L79.2562 80.1986L79.3435 80.285L79.5169 80.4565L79.603 80.5416L79.6886 80.6263L79.7738 80.7106L79.8586 80.7945L80.0269 80.961L80.1935 81.1258L80.2761 81.2076L80.3583 81.2889L80.6828 81.6099L80.7628 81.689L80.8424 81.7678L80.9215 81.846L81.0002 81.9239L81.1563 82.0782L81.3105 82.2308L81.3869 82.3065L81.4629 82.3816L81.5385 82.4564L81.6136 82.5306L81.6882 82.6044L81.7623 82.6778L81.836 82.7507L81.9093 82.8232L82.4784 83.3862L82.6159 83.5222L82.684 83.5896L82.7516 83.6564L82.8853 83.7887L82.9514 83.8541L83.0171 83.9191L83.2748 84.174L83.338 84.2366L83.4007 84.2986L83.5247 84.4212C84.1349 85.0249 83.727 86.1092 82.7982 86.1092H3.5C2.94772 86.1092 2.5 85.6614 2.5 85.1092V6.4772ZM20.1709 18.9346L30.1741 28.8304L30.1834 28.8396L40.2562 38.8043L50.1844 48.6257L50.193 48.6343L60.3935 58.7252L60.402 58.7337L70.3974 68.6217L70.4068 68.6311L84.9312 82.9994C86.8618 84.9092 85.4434 88.1092 82.7982 88.1092H3.5C1.84314 88.1092 0.5 86.766 0.5 85.1092V6.4772C0.5 3.79879 3.74609 2.45389 5.63515 4.36226C9.43598 8.20193 15.6294 14.4418 20.1709 18.9346ZM17.7452 42.7508C17.7452 41.8625 18.817 41.4152 19.4485 42.0399L47.2935 69.5859C47.9287 70.2143 47.4838 71.2968 46.5903 71.2968H18.7452C18.1929 71.2968 17.7452 70.8491 17.7452 70.2968V42.7508ZM20.855 40.6181C18.9605 38.7439 15.7452 40.0859 15.7452 42.7508V70.2968C15.7452 71.9537 17.0883 73.2968 18.7452 73.2968H46.5903C49.2708 73.2968 50.6057 70.0492 48.7001 68.1641L20.855 40.6181Z" fill="#0079BE"/>
</g>
<defs>
<clipPath id="clip0">
<rect width="90" height="90" fill="white" transform="translate(0.5)"/>
</clipPath>
</defs>
</svg>
