<svg width="350" height="132" viewBox="0 0 350 132" fill="none" xmlns="http://www.w3.org/2000/svg">
<circle cx="175" cy="175" r="175" fill="#E9FAFF"/>
<path d="M202 103.95H196.24L194.08 101.79C201.28 93.87 205.6 83.07 205.6 71.55C205.6 45.63 184.72 24.75 158.8 24.75C132.88 24.75 112 45.63 112 71.55C112 97.47 132.88 118.35 158.8 118.35C170.32 118.35 181.12 114.03 189.04 106.83L191.2 108.99V114.75L227.2 150.75L238 139.95L202 103.95ZM158.8 103.95C140.8 103.95 126.4 89.55 126.4 71.55C126.4 53.55 140.8 39.15 158.8 39.15C176.8 39.15 191.2 53.55 191.2 71.55C191.2 89.55 176.8 103.95 158.8 103.95Z" fill="#C9E0E7"/>
</svg>
