<svg width="32" height="32" viewBox="0 0 32 32" fill="none" xmlns="http://www.w3.org/2000/svg">
<path fill-rule="evenodd" clip-rule="evenodd" d="M16 0C7.16344 0 0 7.16344 0 16C0 24.8366 7.16344 32 16 32C24.8366 32 32 24.8366 32 16C32 7.16344 24.8366 0 16 0ZM17.3028 21.0508C17.145 21.2171 16.837 21.2507 16.837 21.2507H15.8169C15.8169 21.2507 13.5665 21.3835 11.584 19.358C9.42206 17.1481 7.51303 12.7637 7.51303 12.7637C7.51303 12.7637 7.40284 12.4761 7.52221 12.3376C7.6566 12.1811 8.02305 12.1713 8.02305 12.1713L10.4613 12.1557C10.4613 12.1557 10.6908 12.1926 10.8553 12.3114C10.9914 12.4097 11.0673 12.5924 11.0673 12.5924C11.0673 12.5924 11.4613 13.5708 11.983 14.4557C13.0022 16.1837 13.4763 16.5615 13.8219 16.3763C14.3261 16.1067 14.175 13.9338 14.175 13.9338C14.175 13.9338 14.1842 13.1455 13.9213 12.794C13.7176 12.522 13.3336 12.4425 13.1642 12.4204C13.0264 12.4024 13.2518 12.0894 13.544 11.9492C13.983 11.7387 14.7577 11.7264 15.6734 11.7354C16.3871 11.7428 16.5924 11.7862 16.8712 11.8526C17.5183 12.0058 17.4981 12.497 17.4545 13.5571C17.4414 13.8742 17.4263 14.2421 17.4263 14.6671C17.4263 14.7626 17.4235 14.8644 17.4205 14.9691C17.4054 15.5122 17.3881 16.1342 17.7527 16.3656C17.9397 16.4836 18.3963 16.3828 19.539 14.4786C20.0807 13.5757 20.4864 12.5146 20.4864 12.5146C20.4864 12.5146 20.5757 12.3253 20.7135 12.2442C20.8545 12.1615 21.0449 12.1869 21.0449 12.1869L23.6108 12.1713C23.6108 12.1713 24.3821 12.0803 24.5065 12.4228C24.6375 12.7809 24.2185 13.6183 23.1701 14.9899C22.1756 16.2914 21.6916 16.7706 21.736 17.1943C21.7685 17.504 22.0831 17.7841 22.6868 18.3338C23.947 19.4823 24.2848 20.0866 24.366 20.2318C24.3727 20.2438 24.3777 20.2527 24.3813 20.2585C24.9464 21.1786 23.7544 21.2507 23.7544 21.2507L21.4747 21.2819C21.4747 21.2819 20.9856 21.3769 20.3412 20.9426C20.0036 20.7154 19.6738 20.3441 19.3596 19.9905C18.8798 19.4506 18.4365 18.9517 18.0582 19.0696C17.423 19.2678 17.4422 20.6108 17.4422 20.6108C17.4422 20.6108 17.4472 20.8984 17.3028 21.0508Z" fill="white"/>
</svg>
