<svg width="12" height="12" viewBox="0 0 12 12" fill="none" xmlns="http://www.w3.org/2000/svg">
<path d="M9.64844 2.11328C8.60742 1.04688 7.18555 0.4375 5.66211 0.4375C2.56445 0.4375 0.0253906 2.97656 0.0253906 6.07422C0.0253906 7.08984 0.304688 8.05469 0.787109 8.89258L0 11.8125L2.9707 11.0508C3.80859 11.4824 4.72266 11.7363 5.66211 11.7363C8.78516 11.7363 11.375 9.19727 11.375 6.09961C11.375 4.57617 10.7148 3.17969 9.64844 2.11328ZM5.66211 10.7715C4.82422 10.7715 4.01172 10.543 3.27539 10.1113L3.12305 10.0098L1.3457 10.4922L1.82812 8.76562L1.70117 8.58789C1.24414 7.82617 0.990234 6.96289 0.990234 6.07422C0.990234 3.50977 3.09766 1.40234 5.6875 1.40234C6.93164 1.40234 8.09961 1.88477 8.98828 2.77344C9.87695 3.66211 10.4102 4.83008 10.4102 6.09961C10.4102 8.66406 8.25195 10.7715 5.66211 10.7715ZM8.25195 7.26758C8.09961 7.19141 7.41406 6.86133 7.28711 6.81055C7.16016 6.75977 7.05859 6.73438 6.95703 6.88672C6.88086 7.01367 6.60156 7.34375 6.52539 7.44531C6.42383 7.52148 6.34766 7.54688 6.2207 7.4707C5.38281 7.06445 4.84961 6.73438 4.29102 5.79492C4.13867 5.54102 4.44336 5.56641 4.69727 5.0332C4.74805 4.93164 4.72266 4.85547 4.69727 4.7793C4.67188 4.70312 4.36719 4.01758 4.26562 3.73828C4.13867 3.45898 4.03711 3.48438 3.93555 3.48438C3.85938 3.48438 3.75781 3.48438 3.68164 3.48438C3.58008 3.48438 3.42773 3.50977 3.30078 3.66211C3.17383 3.81445 2.81836 4.14453 2.81836 4.83008C2.81836 5.54102 3.30078 6.20117 3.37695 6.30273C3.45312 6.37891 4.36719 7.80078 5.78906 8.41016C6.67773 8.81641 7.0332 8.8418 7.49023 8.76562C7.74414 8.74023 8.30273 8.43555 8.42969 8.10547C8.55664 7.77539 8.55664 7.49609 8.50586 7.44531C8.48047 7.36914 8.37891 7.34375 8.25195 7.26758Z" fill="#0079BE"/>
</svg>
