<svg width="37" height="38" viewBox="0 0 37 38" fill="none" xmlns="http://www.w3.org/2000/svg">
<path fill-rule="evenodd" clip-rule="evenodd" d="M29.2911 1.17455C28.8415 0.724824 28.2722 0.619975 27.7458 0.725254C27.2368 0.827043 26.7614 1.12203 26.3964 1.48699L24.5995 3.28386L23.6717 4.21159L23.5758 4.30746C22.881 3.92014 21.987 4.02164 21.3966 4.61197L19.0722 6.93627C18.4847 7.52372 18.2296 8.36202 18.3841 9.17214L15.221 12.1103L5.21301 3.65924C4.65854 3.11207 4.01038 2.8628 3.37115 2.86898C2.73464 2.87512 2.14203 3.13387 1.69004 3.53827C0.779252 4.35317 0.397573 5.80741 1.34312 7.13132L1.35354 7.14592L1.36499 7.15974L10.1274 17.7351L0.470529 26.7885L0.3125 26.9366V27.1532V36.2157V36.7767L0.869812 36.7124L8.99481 35.7749L9.15167 35.7568L9.26968 35.6519L17.1179 28.6757C17.2699 29.0678 17.4875 29.4689 17.7849 29.77C18.0535 30.042 18.4161 30.2598 18.8696 30.2701C19.2313 30.2782 19.5906 30.1528 19.9432 29.9147C19.9827 30.8892 20.2083 31.9994 20.7648 32.9951C21.6208 34.5265 23.2286 35.7267 25.9473 35.7766C26.0925 35.7793 26.239 35.7661 26.3731 35.7438C28.2035 35.4389 28.9952 35.3261 29.7187 35.4998C30.4485 35.6751 31.1394 36.1484 32.7133 37.2502L33.2812 37.6477L33.4792 36.9833C34.1709 34.6615 34.6617 31.117 33.8343 28.0512C33.4182 26.5094 32.6625 25.067 31.4098 23.9738C30.345 23.0445 28.9484 22.3914 27.1596 22.1274C27.415 21.7686 27.7105 21.1911 27.6834 20.6086C27.6689 20.2966 27.5602 19.975 27.2998 19.7111C27.046 19.4539 26.6897 19.2936 26.2548 19.2144C26.1503 19.1954 26.0509 19.1747 25.9566 19.1512L27.6946 18.6119C28.4102 18.7813 29.167 18.5259 29.6328 17.9437L32.2133 14.7181C32.5729 14.2686 32.6321 13.6684 32.4051 13.1708C32.4599 13.1207 32.5207 13.065 32.5864 13.0045C32.8907 12.7248 33.3032 12.3417 33.7359 11.9288C34.1679 11.5164 34.6228 11.0715 35.0106 10.6688C35.3895 10.2753 35.7318 9.89426 35.916 9.6179C36.3169 9.01661 36.251 8.40823 36.0842 7.96778C35.9227 7.54156 35.6574 7.23662 35.5738 7.1463C35.5495 7.12003 35.5281 7.09948 35.5114 7.08369C35.1452 6.73785 29.8878 1.77138 29.2911 1.17455ZM24.3788 4.91872L24.332 4.96555L31.7664 12.3998L31.9096 12.2684C32.2109 11.9914 32.6186 11.6128 33.0454 11.2054C33.4727 10.7976 33.9163 10.3635 34.2902 9.97517C34.673 9.5777 34.9557 9.25558 35.084 9.0632C35.2543 8.80775 35.2389 8.55939 35.149 8.32197C35.0537 8.07032 34.8868 7.87627 34.8397 7.82534C34.8381 7.82363 34.8357 7.82106 34.8247 7.81068C34.4695 7.47512 29.194 2.49182 28.5839 1.88154C28.4087 1.70627 28.1968 1.65487 27.9419 1.70584C27.6696 1.7603 27.3636 1.93406 27.1036 2.1941L25.3066 3.99098L24.3788 4.91872ZM15.9907 12.7602L18.9247 10.0349L26.7483 17.8585L24.7624 18.4748L22.5833 16.8405C22.1506 16.516 21.6243 16.3405 21.0833 16.3405H20.0821L19.2911 15.5495L19.2762 15.5346L19.2601 15.521L15.9907 12.7602ZM28.8519 17.319C28.6341 17.5912 28.2834 17.7141 27.9479 17.6439L19.389 9.08492L19.3847 9.06788C19.2569 8.5567 19.4067 8.01596 19.7793 7.64339L22.1037 5.31909C22.4259 4.99686 22.9483 4.99669 23.2708 5.31857L23.2713 5.3191L31.3965 13.4441C31.5721 13.6198 31.5876 13.8994 31.4324 14.0934L28.8519 17.319ZM18.5988 16.2715L19.157 16.8297L14.5875 21.1304L11.189 17.4489L2.14701 6.5362C1.54255 5.67674 1.78633 4.79396 2.35683 4.28352C2.64704 4.02387 3.01145 3.8725 3.38081 3.86893C3.74145 3.86545 4.14182 4.00213 4.52143 4.38177L4.53632 4.39666L4.55241 4.41024L14.9142 13.1601L18.5988 16.2715ZM10.7869 18.4876L14.0625 22.036V23.8858C14.0625 24.5034 14.2911 25.0991 14.7043 25.5582L16.6668 27.7388L9.4375 34.1648V30.7978L10.8536 29.3818C11.0488 29.1865 11.0488 28.8699 10.8536 28.6747C10.6583 28.4794 10.3417 28.4794 10.1464 28.6747L8.73039 30.0907H6.625V27.9853L7.75679 26.8535C7.95205 26.6583 7.95205 26.3417 7.75679 26.1464C7.56153 25.9512 7.24495 25.9512 7.04969 26.1464L5.94278 27.2533L1.93918 26.7823L10.7869 18.4876ZM8.4375 31.0907V34.8326L3.08736 35.4499L1.3125 33.823V27.7155L5.625 28.2229V30.5907V31.0907H6.125H8.4375ZM15.0625 23.8858V22.0566L20.0733 17.3405H21.0833C21.4079 17.3405 21.7237 17.4458 21.9833 17.6405L24.3667 19.428L24.6667 19.653C25.1094 19.9851 25.6319 20.1174 26.0756 20.1982C26.3784 20.2534 26.5217 20.3463 26.588 20.4135C26.6477 20.474 26.6795 20.5478 26.6845 20.6551C26.696 20.9019 26.5566 21.2429 26.3598 21.5263L25.7564 22.1845L23.5689 24.5709L22.3189 25.9345L20.1314 28.3209L19.5301 28.9768C19.2263 29.2235 19.0174 29.2731 18.8921 29.2703C18.7688 29.2675 18.6392 29.2119 18.4964 29.0673C18.1872 28.7542 17.9626 28.1664 17.8653 27.6802L17.8384 27.5457L17.7466 27.4437L15.4476 24.8892C15.1997 24.6138 15.0625 24.2563 15.0625 23.8858ZM21.6377 32.5072C20.974 31.3198 20.8609 29.8923 20.9759 28.8795L22.611 27.0957L23.2004 28.0424C23.3463 28.2769 23.6546 28.3486 23.8891 28.2027C24.1235 28.0568 24.1952 27.7484 24.0493 27.514L23.3126 26.3304L24.0254 25.5527L25.8605 26.6967C26.0948 26.8428 26.4032 26.7712 26.5493 26.5369C26.6954 26.3025 26.6238 25.9941 26.3895 25.8481L24.7128 24.8029L26.3302 23.0385C28.3028 23.2015 29.7281 23.8334 30.7523 24.7272C31.8206 25.6595 32.4906 26.9103 32.8688 28.3117C33.5566 30.8603 33.2582 33.8344 32.7056 36.0247C31.5435 35.2163 30.7805 34.7264 29.9522 34.5275C28.9869 34.2956 27.9632 34.4652 26.2088 34.7574C26.1256 34.7712 26.0408 34.7782 25.9657 34.7768C23.5882 34.7331 22.3132 33.7157 21.6377 32.5072Z" fill="#0079BE"/>
</svg>
