<svg width="61" height="17" viewBox="0 0 61 17" fill="none" xmlns="http://www.w3.org/2000/svg">
<path d="M22.7329 3.47656H19.3685C19.2572 3.47649 19.1494 3.51807 19.0647 3.59382C18.98 3.66957 18.924 3.7745 18.9066 3.88971L17.5459 12.9239C17.5397 12.9658 17.5422 13.0087 17.5532 13.0495C17.5643 13.0903 17.5837 13.1281 17.6101 13.1604C17.6364 13.1926 17.6692 13.2184 17.706 13.2361C17.7428 13.2538 17.7828 13.263 17.8234 13.2629H19.4295C19.541 13.2629 19.6488 13.2213 19.7335 13.1454C19.8182 13.0696 19.8742 12.9645 19.8915 12.8492L20.2584 10.4126C20.2757 10.2973 20.3316 10.1924 20.4162 10.1165C20.5008 10.0407 20.6085 9.99896 20.7199 9.99889H21.7849C24.0011 9.99889 25.2801 8.87586 25.6142 6.65041C25.7647 5.67677 25.6205 4.91177 25.1852 4.37602C24.707 3.78771 23.8589 3.47656 22.7329 3.47656ZM23.121 6.77611C22.937 8.04029 22.0147 8.04029 21.1228 8.04029H20.6151L20.9713 5.67935C20.9817 5.61028 21.0153 5.54737 21.0661 5.50195C21.1169 5.45652 21.1814 5.43156 21.2482 5.43156H21.4809C22.0884 5.43156 22.6616 5.43156 22.9577 5.79423C23.1343 6.01059 23.1884 6.33205 23.121 6.77611ZM32.7895 6.73541H31.1784C31.1117 6.73541 31.0471 6.76037 30.9963 6.80579C30.9455 6.85122 30.9119 6.91413 30.9015 6.9832L30.8301 7.45508L30.7175 7.28405C30.3687 6.75396 29.591 6.57674 28.8147 6.57674C27.0344 6.57674 25.5138 7.98877 25.2177 9.96953C25.0637 10.9576 25.2826 11.9024 25.8178 12.5613C26.3088 13.1671 27.0112 13.4195 27.847 13.4195C29.2815 13.4195 30.077 12.4536 30.077 12.4536L30.0052 12.9224C29.9988 12.9643 30.0011 13.0072 30.0121 13.048C30.023 13.0889 30.0423 13.1268 30.0686 13.1591C30.0948 13.1914 30.1275 13.2174 30.1643 13.2352C30.2011 13.2531 30.2411 13.2623 30.2816 13.2624H31.7328C31.8443 13.2624 31.9521 13.2208 32.0368 13.1449C32.1215 13.0691 32.1775 12.964 32.1948 12.8487L33.0655 7.07438C33.0719 7.03256 33.0696 6.98978 33.0587 6.949C33.0477 6.90822 33.0285 6.87041 33.0022 6.83818C32.976 6.80595 32.9434 6.78007 32.9067 6.76232C32.8699 6.74458 32.83 6.7354 32.7895 6.73541ZM30.5438 10.019C30.3884 10.9828 29.6579 11.6299 28.7261 11.6299C28.2583 11.6299 27.8844 11.4727 27.6444 11.175C27.4063 10.8793 27.3158 10.4584 27.3915 9.98962C27.5366 9.03402 28.2795 8.36586 29.1969 8.36586C29.6544 8.36586 30.0263 8.52505 30.2713 8.82538C30.5168 9.1288 30.6142 9.55226 30.5438 10.019ZM41.3699 6.73541H39.7509C39.6746 6.73554 39.5994 6.75517 39.5319 6.7926C39.4645 6.83004 39.4067 6.88414 39.3638 6.95023L37.1309 10.3945L36.1844 7.08468C36.1553 6.98373 36.096 6.89526 36.0152 6.83236C35.9344 6.76945 35.8364 6.73546 35.7357 6.73541H34.1448C34.1001 6.73529 34.0561 6.74633 34.0164 6.76763C33.9766 6.78893 33.9423 6.81987 33.9162 6.85786C33.8902 6.89586 33.8732 6.93982 33.8667 6.98608C33.8601 7.03234 33.8643 7.07957 33.8787 7.12383L35.6619 12.604L33.9854 15.0824C33.9556 15.1263 33.938 15.178 33.9343 15.2318C33.9307 15.2855 33.9413 15.3393 33.9649 15.3872C33.9886 15.4351 34.0243 15.4752 34.0683 15.5032C34.1122 15.5313 34.1627 15.5461 34.2142 15.546H35.8312C35.9067 15.5462 35.9811 15.5271 36.048 15.4905C36.1149 15.4539 36.1723 15.4008 36.2154 15.3359L41.6001 7.19647C41.6293 7.15243 41.6464 7.10087 41.6496 7.04737C41.6528 6.99388 41.6419 6.94048 41.6182 6.89298C41.5945 6.84548 41.5588 6.80569 41.515 6.77791C41.4713 6.75013 41.4211 6.73544 41.3699 6.73541Z" fill="#253B80"/>
<path d="M46.7299 3.47659H43.365C43.2537 3.47664 43.1461 3.51828 43.0615 3.59402C42.9769 3.66975 42.9209 3.77462 42.9036 3.88974L41.5429 12.924C41.5366 12.9658 41.539 13.0086 41.55 13.0494C41.561 13.0902 41.5803 13.128 41.6065 13.1602C41.6328 13.1924 41.6654 13.2183 41.7022 13.236C41.7389 13.2537 41.7789 13.2629 41.8194 13.2629H43.5461C43.624 13.2628 43.6993 13.2336 43.7584 13.1805C43.8176 13.1274 43.8567 13.054 43.8688 12.9734L44.2549 10.4126C44.2722 10.2974 44.3281 10.1924 44.4127 10.1165C44.4973 10.0407 44.605 9.99899 44.7164 9.99892H45.7809C47.9976 9.99892 49.2761 8.87589 49.6106 6.65044C49.7617 5.6768 49.6166 4.9118 49.1812 4.37604C48.7035 3.78774 47.8559 3.47659 46.7299 3.47659ZM47.118 6.77614C46.9345 8.04032 46.0121 8.04032 45.1198 8.04032H44.6126L44.9692 5.67938C44.9795 5.6103 45.013 5.54734 45.0637 5.50189C45.1144 5.45644 45.179 5.4315 45.2457 5.43159H45.4784C46.0854 5.43159 46.659 5.43159 46.9552 5.79426C47.1318 6.01062 47.1854 6.33208 47.118 6.77614ZM56.786 6.73544H55.1759C55.1091 6.73525 55.0445 6.76015 54.9938 6.80562C54.943 6.85109 54.9096 6.91411 54.8994 6.98323L54.8281 7.45511L54.715 7.28408C54.3662 6.75398 53.5889 6.57677 52.8127 6.57677C51.0323 6.57677 49.5123 7.9888 49.2161 9.96956C49.0626 10.9576 49.2806 11.9024 49.8158 12.5613C50.3077 13.1671 51.0092 13.4195 51.845 13.4195C53.2795 13.4195 54.075 12.4536 54.075 12.4536L54.0031 12.9224C53.9967 12.9644 53.9991 13.0074 54.0101 13.0483C54.0211 13.0893 54.0405 13.1272 54.0669 13.1595C54.0932 13.1919 54.126 13.2178 54.1629 13.2356C54.1998 13.2533 54.24 13.2625 54.2806 13.2624H55.7313C55.8427 13.2623 55.9504 13.2206 56.035 13.1448C56.1196 13.0689 56.1755 12.964 56.1927 12.8487L57.064 7.07441C57.0701 7.03246 57.0676 6.9896 57.0564 6.94879C57.0453 6.90797 57.0259 6.87017 56.9995 6.83796C56.9731 6.80576 56.9403 6.77992 56.9035 6.76222C56.8666 6.74453 56.8266 6.73539 56.786 6.73544ZM54.5403 10.019C54.3859 10.9829 53.6544 11.6299 52.7226 11.6299C52.2558 11.6299 51.8809 11.4728 51.6409 11.175C51.4028 10.8793 51.3132 10.4584 51.388 9.98965C51.5341 9.03405 52.276 8.36589 53.1934 8.36589C53.6509 8.36589 54.0228 8.52508 54.2678 8.82541C54.5143 9.12883 54.6117 9.55229 54.5403 10.019ZM58.6854 3.72438L57.3045 12.924C57.2982 12.9658 57.3006 13.0086 57.3116 13.0494C57.3226 13.0902 57.3419 13.128 57.3681 13.1602C57.3944 13.1924 57.4271 13.2183 57.4638 13.236C57.5005 13.2537 57.5405 13.2629 57.581 13.2629H58.9692C59.1999 13.2629 59.3957 13.0878 59.4312 12.8493L60.7928 3.81556C60.7992 3.77368 60.7967 3.73087 60.7858 3.69007C60.7748 3.64926 60.7555 3.61143 60.7292 3.57917C60.703 3.54692 60.6703 3.521 60.6336 3.5032C60.5968 3.4854 60.5568 3.47615 60.5164 3.47607H58.9619C58.8951 3.47632 58.8306 3.50144 58.78 3.54694C58.7293 3.59244 58.6958 3.65534 58.6854 3.72438Z" fill="#179BD7"/>
<path d="M3.57438 15.0178L3.83166 13.3065L3.25855 13.2926H0.521917L2.42374 0.664674C2.4294 0.62609 2.44811 0.590922 2.47647 0.565579C2.50482 0.540237 2.54093 0.526408 2.57821 0.526614H7.19256C8.72445 0.526614 9.78162 0.860432 10.3336 1.51931C10.5923 1.8284 10.7571 2.1514 10.8368 2.50686C10.9204 2.87983 10.9219 3.32543 10.8403 3.86892L10.8344 3.90858V4.25683L11.0931 4.41034C11.2907 4.51514 11.4682 4.65691 11.617 4.82864C11.8384 5.09292 11.9816 5.4288 12.0421 5.82701C12.1045 6.23655 12.0839 6.72389 11.9816 7.27561C11.8635 7.91028 11.6726 8.46304 11.4148 8.91534C11.1874 9.32053 10.8816 9.67147 10.5171 9.94564C10.1747 10.2001 9.76784 10.3933 9.30788 10.5169C8.86219 10.6385 8.35402 10.6998 7.79666 10.6998H7.43754C7.18075 10.6998 6.93134 10.7967 6.73555 10.9703C6.54004 11.1457 6.41034 11.3882 6.36955 11.6544L6.3425 11.8084L5.88795 14.8246L5.86729 14.9354C5.86188 14.9704 5.85253 14.9879 5.83875 14.9998C5.82541 15.0112 5.80876 15.0176 5.79153 15.0178H3.57438Z" fill="#253B80"/>
<path d="M11.3383 3.94971C11.3245 4.04192 11.3087 4.13619 11.291 4.23304C10.6825 7.50477 8.60064 8.63501 5.94173 8.63501H4.58792C4.26276 8.63501 3.98875 8.88228 3.93808 9.21816L3.24494 13.8216L3.04866 15.1264C3.04084 15.1782 3.04382 15.2311 3.05741 15.2815C3.07099 15.332 3.09485 15.3787 3.12735 15.4186C3.15984 15.4584 3.20019 15.4904 3.24563 15.5124C3.29107 15.5344 3.34051 15.5457 3.39055 15.5458H5.79169C6.07603 15.5458 6.31757 15.3294 6.36234 15.0358L6.38595 14.908L6.83804 11.9036L6.86706 11.7388C6.91134 11.4441 7.15337 11.2278 7.43771 11.2278H7.79682C10.1232 11.2278 11.9443 10.2387 12.4766 7.3765C12.699 6.18083 12.5838 5.18246 11.9955 4.48031C11.809 4.26311 11.5863 4.0833 11.3383 3.94971Z" fill="#179BD7"/>
<path d="M10.7016 3.68399C10.5073 3.62513 10.3096 3.57919 10.1098 3.54644C9.71492 3.4829 9.31584 3.4524 8.91635 3.45526H5.29964C5.162 3.45515 5.02886 3.50661 4.92429 3.60033C4.81972 3.69406 4.75062 3.82387 4.72948 3.96629L3.9601 9.06938L3.93796 9.21826C3.96193 9.05581 4.04063 8.9077 4.15982 8.80074C4.27902 8.69378 4.43083 8.63503 4.58781 8.63511H5.94161C8.60052 8.63511 10.6824 7.50435 11.2909 4.23314C11.3091 4.13629 11.3244 4.04202 11.3381 3.94981C11.1776 3.86163 11.0102 3.7877 10.8378 3.72881C10.7927 3.71311 10.7472 3.69816 10.7016 3.68399Z" fill="#222D65"/>
<path d="M4.72951 3.96615C4.75047 3.82368 4.81954 3.69382 4.92416 3.60014C5.02878 3.50646 5.16202 3.45519 5.29967 3.45564H8.91638C9.34485 3.45564 9.7448 3.485 10.1098 3.54682C10.3568 3.58747 10.6004 3.64827 10.8384 3.72867C11.0179 3.791 11.1847 3.86467 11.3387 3.94967C11.5197 2.74061 11.3372 1.91739 10.7129 1.17197C10.0247 0.351333 8.78257 0 7.19313 0H2.57877C2.25409 0 1.97713 0.247273 1.92696 0.583667L0.0049653 13.3414C-0.00398702 13.4006 -0.000580967 13.4612 0.0149492 13.5189C0.0304793 13.5766 0.0577649 13.6301 0.0949291 13.6758C0.132093 13.7214 0.178254 13.758 0.230236 13.7832C0.282218 13.8084 0.338788 13.8214 0.396054 13.8215H3.24485L3.96013 9.06924L4.72951 3.96615Z" fill="#253B80"/>
</svg>
