<svg width="184" height="36" viewBox="0 0 184 36" fill="none" xmlns="http://www.w3.org/2000/svg">
<path d="M1.16353 0.774626C0.999554 0.552441 0.686507 0.505255 0.464323 0.669232C0.242138 0.83321 0.194952 1.14626 0.35893 1.36844L1.16353 0.774626ZM183.999 1.09633C184.013 0.820525 183.8 0.585904 183.524 0.572291L179.03 0.350457C178.754 0.336844 178.52 0.549394 178.506 0.825201C178.492 1.10101 178.705 1.33563 178.981 1.34924L182.976 1.54643L182.779 5.54156C182.765 5.81737 182.978 6.05199 183.253 6.0656C183.529 6.07922 183.764 5.86667 183.777 5.59086L183.999 1.09633ZM0.76123 1.07153C0.35893 1.36844 0.359194 1.3688 0.359552 1.36928C0.359798 1.36962 0.360252 1.37023 0.360743 1.37089C0.361726 1.37222 0.363088 1.37405 0.36483 1.37639C0.368314 1.38106 0.373316 1.38775 0.379842 1.39643C0.392895 1.41378 0.412043 1.43906 0.437329 1.47202C0.487901 1.53795 0.563027 1.63458 0.663044 1.75989C0.863076 2.0105 1.16269 2.37579 1.56458 2.83935C2.36834 3.76647 3.58132 5.08683 5.22515 6.6692C8.51275 9.83387 13.5243 14.0471 20.4326 18.2583C34.2529 26.6827 55.6518 35.0911 85.9996 35.0911V34.0911C55.8474 34.0911 34.6271 25.7397 20.9531 17.4044C14.1144 13.2357 9.1601 9.069 5.91865 5.94875C4.29795 4.38865 3.1056 3.09029 2.32016 2.1843C1.92745 1.73132 1.63649 1.37646 1.4446 1.13606C1.34866 1.01586 1.27749 0.924277 1.23076 0.863356C1.20739 0.832896 1.19013 0.810101 1.17894 0.795228C1.17335 0.787791 1.16927 0.782334 1.1667 0.77889C1.16542 0.777168 1.16451 0.775949 1.16398 0.775237C1.16372 0.77488 1.16361 0.774728 1.16347 0.774549C1.16346 0.774524 1.16353 0.774626 0.76123 1.07153ZM85.9996 35.0911C116.344 35.0911 140.795 26.6851 157.66 18.2789C166.093 14.0757 172.631 9.87174 177.063 6.71642C179.279 5.13869 180.969 3.82295 182.107 2.90028C182.676 2.43894 183.106 2.07584 183.395 1.82738C183.54 1.70315 183.649 1.60758 183.723 1.5427C183.759 1.51027 183.787 1.4855 183.806 1.46867C183.815 1.46026 183.823 1.45383 183.828 1.44941C183.83 1.4472 183.832 1.4455 183.833 1.4443C183.834 1.4437 183.834 1.44319 183.835 1.44289C183.835 1.4425 183.835 1.44224 183.5 1.07168C183.164 0.701131 183.164 0.701125 183.164 0.701247C183.164 0.701458 183.163 0.701707 183.163 0.702127C183.162 0.702968 183.161 0.704316 183.159 0.706167C183.154 0.709869 183.148 0.715584 183.139 0.723281C183.122 0.738673 183.096 0.76199 183.061 0.792975C182.991 0.854946 182.885 0.94759 182.744 1.06886C182.461 1.31141 182.038 1.66846 181.477 2.12367C180.354 3.03409 178.681 4.33705 176.483 5.90178C172.087 9.03135 165.594 13.2072 157.214 17.3839C140.455 25.7374 116.156 34.0911 85.9996 34.0911V35.0911Z" fill="#929292"/>
</svg>
