<svg width="58" height="20" viewBox="0 0 58 20" fill="none" xmlns="http://www.w3.org/2000/svg">
<g clip-path="url(#clip0)">
<path d="M25.1334 19.7114H20.435L23.3737 0.35083H28.0719L25.1334 19.7114Z" fill="#0069C0"/>
<path d="M42.1655 0.824743C41.2388 0.43301 39.7689 0.000488281 37.9514 0.000488281C33.3116 0.000488281 30.0443 2.63668 30.0242 6.40564C29.9857 9.18637 32.3635 10.7308 34.142 11.658C35.9597 12.6055 36.5777 13.2239 36.5777 14.0684C36.5592 15.3654 35.1088 15.9633 33.7561 15.9633C31.8803 15.9633 30.8752 15.655 29.3477 14.9334L28.7291 14.6241L28.0716 18.9701C29.1735 19.505 31.2038 19.9797 33.3116 20.0005C38.2415 20.0005 41.451 17.4051 41.4891 13.3887C41.5078 11.1847 40.2522 9.49597 37.5452 8.11601C35.9019 7.23017 34.8956 6.63285 34.8956 5.72647C34.9148 4.90249 35.7467 4.05852 37.6018 4.05852C39.1292 4.01719 40.2514 4.40837 41.1016 4.79983L41.5266 5.00542L42.1655 0.824743Z" fill="#0069C0"/>
<path d="M48.4102 12.8526C48.7971 11.7404 50.286 7.43569 50.286 7.43569C50.2665 7.47703 50.6721 6.30293 50.9041 5.58215L51.2325 7.25037C51.2325 7.25037 52.1222 11.8846 52.3154 12.8526C51.5811 12.8526 49.3382 12.8526 48.4102 12.8526ZM54.2098 0.35083H50.5755C49.4548 0.35083 48.6034 0.70068 48.1198 1.95718L41.141 19.7111H46.0708C46.0708 19.7111 46.8825 17.3215 47.0569 16.8069C47.5978 16.8069 52.3935 16.8069 53.0893 16.8069C53.2242 17.4866 53.6499 19.7111 53.6499 19.7111H58.0002L54.2098 0.35083Z" fill="#0069C0"/>
<path d="M16.5107 0.35083L11.9094 13.5529L11.4066 10.8753C10.5559 7.78582 7.88799 4.42912 4.91074 2.76008L9.12535 19.6908H14.0938L21.4789 0.35083H16.5107Z" fill="#0069C0"/>
<path d="M7.6367 0.35083H0.0774183L8.39233e-05 0.742015C5.89679 2.34864 9.80207 6.22135 11.4066 10.8762L9.76327 1.97826C9.49273 0.741742 8.66132 0.391618 7.6367 0.35083Z" fill="#FAA61A"/>
</g>
<defs>
<clipPath id="clip0">
<rect width="58" height="20" fill="white"/>
</clipPath>
</defs>
</svg>
