<svg width="48" height="48" viewBox="0 0 48 48" fill="none" xmlns="http://www.w3.org/2000/svg">
<g opacity="0.54">
<path d="M7.00039 3.00012C5.70039 3.00012 5.70039 5.00012 7.00039 5.00012C8.30039 5.00012 8.30039 3.00012 7.00039 3.00012Z" fill="#333333"/>
<path d="M17.0004 3.00012H11.0004C9.70039 3.00012 9.70039 5.00012 11.0004 5.00012H17.0004C18.3004 5.00012 18.3004 3.00012 17.0004 3.00012Z" fill="#333333"/>
<path d="M45 12.0001H28C28 8.70012 28 6.40012 28 3.00012C28 1.30012 26.7 0.00012207 25 0.00012207H3C1.3 0.00012207 0 1.30012 0 3.00012C0 15.8001 0 38.0001 0 45.0001C0 46.7001 1.3 48.0001 3 48.0001H25C26.7 48.0001 28 46.7001 28 45.0001C28 43.8001 28 35.1001 28 32.0001H45C46.7 32.0001 48 30.7001 48 29.0001C48 26.1001 48 17.9001 48 15.0001C48 13.3001 46.7 12.0001 45 12.0001ZM46 15.0001V16.0001H22V15.0001C22 14.4001 22.4 14.0001 23 14.0001H45C45.6 14.0001 46 14.5001 46 15.0001ZM46 21.0001H22V18.0001H46V21.0001ZM2 3.00012C2 2.40012 2.4 2.00012 3 2.00012H25C25.6 2.00012 26 2.40012 26 3.00012V6.00012H2V3.00012ZM26 45.0001C26 45.6001 25.6 46.0001 25 46.0001H3C2.4 46.0001 2 45.6001 2 45.0001V42.0001H26V45.0001ZM26 40.0001H2V8.00012H26V12.0001H23C21.3 12.0001 20 13.3001 20 15.0001C20 20.0001 20 24.0001 20 29.0001C20 30.7001 21.3 32.0001 23 32.0001H26V40.0001ZM45 30.0001H23C22.4 30.0001 22 29.6001 22 29.0001V23.0001H46V29.0001C46 29.6001 45.6 30.0001 45 30.0001Z" fill="#333333"/>
<path d="M13.0004 45.0001H15.0004C16.3004 45.0001 16.3004 43.0001 15.0004 43.0001H13.0004C11.7004 43.0001 11.7004 45.0001 13.0004 45.0001Z" fill="#333333"/>
</g>
</svg>
