<svg width="118" height="90" viewBox="0 0 118 90" fill="none" xmlns="http://www.w3.org/2000/svg">
<path d="M18.3078 59.8804C8.52242 54.561 2.04681 45.791 1.4712 35.7271C0.607785 18.0434 18.02 2.80377 40.4688 1.65361C62.9175 0.503448 82.0565 13.5865 82.92 31.2702C83.9273 48.9539 66.3712 64.1935 43.9224 65.3437C41.62 65.4875 39.3175 65.4875 37.159 65.1999C34.1371 70.2319 27.2297 75.4076 11.2566 74.9763C16.8688 70.6632 18.5956 65.1999 18.3078 59.8804Z" fill="#A6E3FF"/>
<path d="M111.845 86.9093C107.096 83.8901 104.362 79.7208 103.93 74.4013C113.284 67.5003 118.464 57.8678 117.889 47.8039C117.025 30.839 100.045 17.7559 79.3227 16.7495C77.1641 13.5866 74.1422 10.5674 70.5446 8.12334C62.1983 2.37254 51.5495 -0.502859 40.3251 0.0722213C29.1007 0.647301 18.7398 4.67286 11.1129 11.43C3.48611 18.1872 -0.399257 26.8134 0.0324504 35.7272C0.60806 45.7911 6.65196 54.8486 16.869 60.5994C17.0129 65.9189 14.8544 70.3757 10.3934 73.8262C9.96172 74.2575 9.67391 74.8326 9.96172 75.4077C10.1056 75.9828 10.6812 76.4141 11.2568 76.4141C11.6885 76.4141 12.2642 76.4141 12.6959 76.4141C27.8056 76.4141 34.8568 71.2384 37.8788 66.6377C38.1666 66.6377 38.4544 66.6377 38.7422 66.6377C46.2251 77.4205 61.0471 84.1777 77.5959 83.315C79.6105 83.1713 81.6251 83.0275 83.7837 82.5962C86.8056 86.1904 92.7056 89.9285 103.642 89.9285C105.945 89.9285 108.535 89.7847 111.413 89.3534C111.989 89.2096 112.564 88.7783 112.564 88.2032C112.708 87.9157 112.42 87.1968 111.845 86.9093ZM37.3032 63.9061C37.1593 63.9061 37.0154 63.9061 37.0154 63.9061C36.5837 63.9061 36.2959 64.1936 36.0081 64.6249C32.6983 70.232 25.5032 73.2511 15.1422 73.6825C18.7398 69.8007 20.1788 65.2 19.891 59.7368C19.891 59.3055 19.6032 58.8741 19.1715 58.5866C9.24221 53.2671 3.48611 44.9285 2.9105 35.5834C2.47879 27.5323 6.07635 19.7687 13.1276 13.5866C20.3227 7.40449 29.9642 3.5227 40.469 2.94762C41.4764 2.94762 42.3398 2.94762 43.3471 2.94762C52.8446 2.94762 61.9105 5.53548 68.9617 10.5674C71.552 12.4364 73.8544 14.593 75.7251 16.7495C76.4446 17.6122 77.1642 18.6185 77.7398 19.6249C79.8983 23.2192 81.1934 27.101 81.4812 31.2703C81.9129 39.3214 78.3154 47.2288 71.2642 53.2671C64.2129 59.4492 54.4276 63.1872 43.9227 63.7623C42.7715 63.7623 41.4764 63.9061 40.3251 63.7623C39.3178 64.0499 38.3105 63.9061 37.3032 63.9061ZM85.5105 80.2959C85.2227 79.8646 84.791 79.7208 84.3593 79.7208C84.2154 79.7208 84.2154 79.7208 84.0715 79.7208C81.9129 80.1521 79.6105 80.4396 77.452 80.5834C62.7739 81.3023 49.5349 75.839 42.3398 66.7815C42.9154 66.7815 43.491 66.7815 44.0666 66.7815C55.291 66.2064 65.652 62.1809 73.2788 55.5674C81.0495 48.8102 84.9349 40.184 84.5032 31.1265C84.2154 27.101 83.2081 23.363 81.3373 19.7687C99.7568 21.3502 114.435 32.9955 115.298 47.9476C115.874 57.1489 110.981 66.2064 101.915 72.5323C101.484 72.8198 101.34 73.2511 101.34 73.8262C101.484 79.2895 103.642 83.7464 107.528 87.1968C96.8788 87.9157 89.3959 85.6154 85.5105 80.2959Z" fill="#333333"/>
</svg>
