<svg width="373" height="147" viewBox="0 0 373 147" fill="none" xmlns="http://www.w3.org/2000/svg">
<g opacity="0.03" clip-path="url(#clip0)">
<path d="M0.000152588 143.29V39.3001C0.000152588 24.097 12.9584 12.6187 27.7353 12.6187C42.2848 12.6187 55.6219 24.4771 55.6219 39.4522V143.213H41.0723V97.3761H14.3224V143.213H0.000152588V143.29ZM41.0723 38.3119C41.0723 31.0904 34.328 26.8336 27.7353 26.8336C21.1425 26.8336 14.3224 31.0904 14.3224 38.3119V83.7693H41.0723V38.3119Z" fill="black"/>
<path d="M93.4361 63.7777C86.2371 63.7777 80.2506 68.8707 80.2506 76.2442V143.062H65.701V75.8642C65.701 60.281 78.735 49.5627 93.5877 49.5627C96.3157 49.5627 99.0438 49.7908 101.772 50.5509V65.1459C99.0438 64.1577 96.3157 63.7777 93.4361 63.7777Z" fill="black"/>
<path d="M137.235 144.582C122.913 144.582 109.121 133.864 109.121 118.889V27.29H123.67L123.519 51.8431H139.584V65.6779H123.67L123.519 118.737C123.519 125.958 130.869 130.823 137.462 130.823C140.19 130.823 143.07 130.443 145.798 129.835V143.67C143.07 144.43 140.19 144.582 137.235 144.582Z" fill="black"/>
<path d="M158.378 143.061V65.5253H147.693V51.6904H172.7V143.061H158.378Z" fill="black"/>
<path d="M270.531 114.708H257.724V118.737C257.724 125.958 264.469 130.975 271.289 130.975C276.745 130.975 285.611 128.239 290.916 126.491C291.295 131.128 291.901 135.84 292.507 140.477C285.535 143.442 278.715 144.582 271.137 144.582C256.588 144.582 243.023 133.484 243.023 118.357V76.7763C243.023 61.5732 256.588 49.5627 271.365 49.5627C290.006 49.5627 299.706 63.1695 299.706 80.2731C299.554 97.6046 289.476 114.708 270.531 114.708ZM271.062 62.7895C263.938 62.7895 257.724 68.7947 257.724 76.0162V100.721H270.91C281.367 100.721 285.232 89.0909 285.232 80.2731C285.232 71.6833 281.367 62.7895 271.062 62.7895Z" fill="black"/>
<path d="M232.87 39.8323V143.062H218.548V39.8323H199.755V27.3657H251.663V39.9083H232.87V39.8323Z" fill="black"/>
<path d="M162.167 0C149.588 0 139.358 10.2621 139.358 22.8807C139.358 35.4993 149.588 45.7614 162.167 45.7614C174.747 45.7614 184.977 35.4993 184.977 22.8807C184.977 10.2621 174.747 0 162.167 0Z" fill="#0079BE"/>
<path d="M372.985 146.862L358.738 131.583C361.466 127.478 363.058 122.689 363.058 117.52V77.3081C363.058 62.3331 349.645 50.4746 335.171 50.4746C320.394 50.4746 307.436 61.953 307.436 77.1561V117.748C307.436 132.952 320.394 144.354 335.171 144.354C339.566 144.354 343.885 143.214 347.75 141.313L352.903 146.862H372.985ZM335.247 130.139C328.654 130.139 321.834 125.882 321.834 118.661V76.1679C321.834 68.9464 328.654 64.6895 335.247 64.6895C341.839 64.6895 348.584 68.9464 348.584 76.1679V118.661C348.584 119.269 348.508 119.801 348.356 120.409L345.174 116.988H325.092L337.217 129.987C336.535 130.063 335.853 130.139 335.247 130.139Z" fill="#000822"/>
</g>
<defs>
<clipPath id="clip0">
<rect width="372.984" height="146.862" fill="white"/>
</clipPath>
</defs>
</svg>
