<svg width="160" height="63" viewBox="0 0 160 63" fill="none" xmlns="http://www.w3.org/2000/svg">
<g clip-path="url(#clip0)">
<path d="M0 61.4673V16.8587C0 10.337 5.55872 5.41309 11.8976 5.41309C18.139 5.41309 23.8602 10.5 23.8602 16.9239V61.4347H17.6188V41.7717H6.14384V61.4347H0V61.4673ZM17.6188 16.4348C17.6188 13.337 14.7257 11.5109 11.8976 11.5109C9.06948 11.5109 6.14384 13.337 6.14384 16.4348V35.9348H17.6188V16.4348Z" fill="white"/>
<path d="M40.0812 27.3588C36.9931 27.3588 34.425 29.5436 34.425 32.7066V61.3696H28.1837V32.5436C28.1837 25.8588 33.7749 21.261 40.1463 21.261C41.3165 21.261 42.4868 21.3588 43.657 21.6849V27.9458C42.4868 27.5218 41.3165 27.3588 40.0812 27.3588Z" fill="white"/>
<path d="M58.8704 62.0219C52.7265 62.0219 46.8102 57.4241 46.8102 51.0002V11.7068H53.0516L52.9866 22.2394H59.8781V28.1741H53.0516L52.9866 50.935C52.9866 54.0328 56.1398 56.1197 58.9679 56.1197C60.1382 56.1197 61.3734 55.9567 62.5437 55.6958V61.6306C61.3734 61.9567 60.1382 62.0219 58.8704 62.0219Z" fill="white"/>
<path d="M67.9398 61.3694V28.1086H63.3563V22.1738H74.0837V61.3694H67.9398Z" fill="white"/>
<path d="M116.05 49.2066H110.557V50.9348C110.557 54.0327 113.45 56.1848 116.375 56.1848C118.716 56.1848 122.519 55.0109 124.795 54.2609C124.957 56.25 125.217 58.2718 125.477 60.2609C122.487 61.5326 119.561 62.0218 116.31 62.0218C110.069 62.0218 104.25 57.2609 104.25 50.7718V32.9349C104.25 26.4132 110.069 21.261 116.408 21.261C124.405 21.261 128.566 27.0979 128.566 34.4349C128.501 41.8696 124.177 49.2066 116.05 49.2066ZM116.278 26.9349C113.222 26.9349 110.557 29.511 110.557 32.6088V43.2066H116.213C120.699 43.2066 122.357 38.2175 122.357 34.4349C122.357 30.7501 120.699 26.9349 116.278 26.9349Z" fill="white"/>
<path d="M99.8943 17.0871V61.3696H93.7505V17.0871H85.6887V11.7393H107.956V17.1197H99.8943V17.0871Z" fill="white"/>
<path d="M69.5652 0C64.169 0 59.7805 4.40217 59.7805 9.8152C59.7805 15.2282 64.169 19.6304 69.5652 19.6304C74.9613 19.6304 79.3498 15.2282 79.3498 9.8152C79.3498 4.40217 74.9613 0 69.5652 0Z" fill="#0079BE"/>
<path d="M160 63.0001L153.889 56.4458C155.059 54.6849 155.742 52.6305 155.742 50.4132V33.1632C155.742 26.7393 149.988 21.6523 143.779 21.6523C137.44 21.6523 131.881 26.5762 131.881 33.098V50.511C131.881 57.0327 137.44 61.924 143.779 61.924C145.664 61.924 147.517 61.4349 149.175 60.6197L151.386 63.0001H160ZM143.811 55.8262C140.983 55.8262 138.058 54.0001 138.058 50.9023V32.6741C138.058 29.5762 140.983 27.7502 143.811 27.7502C146.64 27.7502 149.533 29.5762 149.533 32.6741V50.9023C149.533 51.1632 149.5 51.3914 149.435 51.6523L148.07 50.1849H139.455L144.657 55.761C144.364 55.7936 144.072 55.8262 143.811 55.8262Z" fill="white"/>
</g>
<defs>
<clipPath id="clip0">
<rect width="160" height="63" fill="white"/>
</clipPath>
</defs>
</svg>
