<svg width="146" height="66" viewBox="0 0 146 66" fill="none" xmlns="http://www.w3.org/2000/svg">
<g clip-path="url(#clip0)">
<path d="M68.1626 29.1765C62.4824 26.5731 58.6956 21.9185 57.5122 16.9483C56.96 14.1082 57.9856 12.2936 58.6167 11.2681C59.3267 10.1636 60.1945 10.0847 60.1945 10.0847C60.1945 10.0847 59.3267 9.69023 58.1433 9.45355C56.6444 9.21688 54.751 9.37465 53.4887 11.2681C52.6209 13.3981 52.0687 15.7649 52.0687 18.2105C52.0687 22.944 53.8832 28.3876 59.3267 32.7266C60.8257 33.8311 62.5613 34.6989 64.3758 35.3301C64.6125 35.409 64.8491 35.4878 65.1647 35.5667C65.9536 35.8034 66.7426 35.9612 67.5315 36.0401H67.6893C67.9259 36.0401 68.1626 36.119 68.3993 36.119C68.7148 36.119 69.1093 36.1979 69.4249 36.1979H69.9771H70.1349C70.4505 36.1979 70.766 36.1979 71.0816 36.1979C71.3972 36.1979 71.7127 36.119 72.1072 36.119H72.1861C72.4228 36.119 72.7383 36.0401 72.975 35.9612L73.4484 35.8823H73.5272C76.5251 35.2512 79.0497 33.91 80.9431 32.4899C82.0476 31.6221 83.0732 30.5966 83.941 29.571C79.523 31.6222 73.6061 31.701 68.1626 29.1765Z" fill="#D1D1D1"/>
<path d="M58.4591 8.19117C61.5358 4.24658 66.2693 1.72203 71.634 1.72203C75.5786 1.72203 79.2865 3.1421 82.1266 5.42996C78.892 2.43207 74.6319 0.617554 69.8984 0.617554C63.587 0.617554 58.1435 3.85211 54.9089 8.7434C55.8556 8.27005 57.1968 7.9545 58.4591 8.19117Z" fill="#D1D1D1"/>
<path d="M69.0303 27.7566C71.2393 29.0189 73.7638 29.729 76.1305 29.9656C77.1561 29.729 78.1028 29.3345 78.9707 28.8611C82.4419 26.7311 92.6189 12.6094 92.6189 12.6094C92.6189 12.6094 87.0965 11.5049 84.6509 13.2406C82.2052 14.9762 80.4696 17.8163 77.7873 20.8142C75.105 23.8121 73.9216 25.7055 71.5548 26.3366C69.8192 26.81 68.1625 26.7311 66.6635 26.3366C67.4524 26.81 68.1625 27.2833 69.0303 27.7566Z" fill="#D1D1D1"/>
<path d="M85.519 28.3875C87.6491 26.8097 92.6193 20.025 92.6193 20.025C92.6193 20.025 88.8325 18.0527 85.3612 20.025C81.89 22.0761 81.9689 22.5495 78.5765 25.3896C75.1053 28.2297 72.5807 28.5453 70.6873 28.3875H70.3718C75.2631 30.7542 81.7322 31.1487 85.519 28.3875Z" fill="#D1D1D1"/>
<path d="M92.7768 0.617685C92.7768 0.617685 87.0966 -0.960149 82.7576 2.82666C79.6019 5.58787 72.8172 23.8119 67.4525 24.8375C66.427 25.0742 65.5591 25.0741 64.928 24.9953C65.7958 25.0741 66.9003 25.0742 68.0837 24.8375C73.4483 23.8119 80.4697 6.92904 83.7831 4.32561C87.0177 1.72218 90.9623 2.4322 90.9623 2.4322L87.8855 8.34908" fill="#D1D1D1"/>
<path d="M14.9106 46.6025C15.4628 46.6025 15.9361 47.0759 15.9361 47.6281V48.6537C15.9361 49.206 15.4628 49.6793 14.9106 49.6793H10.0193V61.2764C10.0193 61.8286 9.54591 62.302 8.99366 62.302H6.94248C6.39024 62.302 5.91689 61.8286 5.91689 61.2764V49.6793H1.0256C0.473353 49.6793 0 49.206 0 48.6537V47.6281C0 47.0759 0.473353 46.6025 1.0256 46.6025" fill="#D1D1D1"/>
<path d="M28.5588 56.305C28.5588 60.4073 26.192 62.5374 22.6419 62.5374C21.3007 62.5374 20.4329 62.3007 19.4862 61.9852V65.3775C19.4862 65.772 19.1706 66.0875 18.7762 66.0875H16.3305C15.9361 66.0875 15.6994 65.772 15.6994 65.3775V51.0192C15.6994 50.6247 16.015 50.3881 16.3305 50.3881H18.4606C18.8551 50.3881 19.0917 50.7036 19.0917 51.0192V51.3348C20.1173 50.6248 21.3007 50.0725 22.9574 50.0725C26.192 50.0725 28.5588 52.2026 28.5588 56.305ZM19.4862 53.7015V59.4606C20.4329 59.7762 21.3007 59.934 21.853 59.934C23.9042 59.934 24.6142 58.8295 24.6142 56.305C24.6142 53.8593 23.9041 52.7548 22.0896 52.7548C21.3007 52.6759 20.2751 53.2282 19.4862 53.7015Z" fill="#D1D1D1"/>
<path d="M34.318 53.3071C34.0025 53.7015 33.608 53.8593 33.0558 53.8593H31.399C31.0046 53.8593 30.7679 53.5438 30.7679 53.2282C30.7679 50.8614 33.1347 50.0725 36.7637 50.0725C39.9982 50.0725 42.5228 51.4137 42.5228 54.8849V61.6696C42.5228 62.0641 42.2072 62.3007 41.8128 62.3007H39.6827C39.2882 62.3007 38.9726 61.9852 38.9726 61.6696V61.354C37.947 62.0641 36.7637 62.6163 35.028 62.6163C32.1091 62.6163 29.8212 61.2752 29.8212 58.7506C29.8212 56.2261 32.0302 54.9638 35.028 54.9638H38.6571C38.6571 53.2282 37.9471 52.6759 36.4481 52.6759C35.5014 52.5181 34.7125 52.8337 34.318 53.3071ZM38.6571 59.0662V57.3305H35.2647C34.2391 57.3305 33.608 57.8828 33.608 58.6717C33.608 59.4606 34.2391 60.0129 35.3436 60.0129C36.7637 60.0129 37.8682 59.5395 38.6571 59.0662Z" fill="#D1D1D1"/>
<path d="M48.9918 54.8849H53.8042V50.9403C53.8042 50.5458 54.1198 50.3091 54.4353 50.3091H56.881C57.2755 50.3091 57.591 50.6247 57.591 50.9403V61.5907C57.591 61.9851 57.2755 62.2218 56.881 62.2218H54.4353C54.0409 62.2218 53.8042 61.9063 53.8042 61.5907V57.4883H48.9918V61.5907C48.9918 61.9851 48.6762 62.2218 48.2818 62.2218H45.8361C45.4417 62.2218 45.1261 61.9063 45.1261 61.5907V50.9403C45.1261 50.5458 45.4417 50.3091 45.8361 50.3091H48.2818C48.6762 50.3091 48.9918 50.6247 48.9918 50.9403" fill="#D1D1D1"/>
<path d="M63.5081 56.3049C63.5081 58.7505 64.2181 59.855 66.506 59.855C67.6894 59.855 68.4783 59.4606 68.8727 58.8294C69.1883 58.3561 69.5828 58.0405 70.135 58.0405H71.7917C72.1862 58.0405 72.4229 58.3561 72.4229 58.6716C72.4229 61.1962 70.0561 62.4584 66.1904 62.4584C61.9303 62.4584 59.5635 60.3284 59.5635 56.226C59.5635 52.1236 61.9303 49.9935 66.0326 49.9935C69.8983 49.9935 72.2651 51.2558 72.2651 53.7803C72.2651 54.1748 71.9495 54.4115 71.5551 54.4115H69.8983C69.3461 54.4115 68.9516 54.0959 68.6361 53.6226C68.2416 52.9914 67.4527 52.597 66.2693 52.597C64.2181 52.6758 63.5081 53.7803 63.5081 56.3049Z" fill="#D1D1D1"/>
<path d="M77.9452 54.8849H82.7576V50.9403C82.7576 50.5458 83.0732 50.3091 83.4676 50.3091H85.9133C86.3077 50.3091 86.5444 50.6247 86.5444 50.9403V61.5907C86.5444 61.9851 86.2288 62.2218 85.9133 62.2218H83.4676C83.0732 62.2218 82.7576 61.9063 82.7576 61.5907V57.4883H77.9452V61.5907C77.9452 61.9851 77.6296 62.2218 77.3141 62.2218H74.8684C74.4739 62.2218 74.1584 61.9063 74.1584 61.5907V50.9403C74.1584 50.5458 74.4739 50.3091 74.8684 50.3091H77.3141C77.7085 50.3091 77.9452 50.6247 77.9452 50.9403" fill="#D1D1D1"/>
<path d="M92.4612 57.4096C92.619 59.2241 93.4079 60.013 95.3013 60.013C96.248 60.013 97.0369 59.7763 97.4314 59.303C97.747 58.9085 98.1414 58.7508 98.6937 58.7508H100.35C100.745 58.7508 101.06 59.0663 101.06 59.4608C101.06 61.8275 98.6937 62.6165 95.0647 62.6165C91.0412 62.6165 88.6744 60.4864 88.6744 56.384C88.6744 52.3605 91.1201 50.1516 95.0647 50.1516C99.0881 50.1516 101.455 52.2816 101.455 56.2262V56.8574C101.455 57.2518 101.139 57.4885 100.745 57.4885L92.4612 57.4096ZM92.4612 55.1217H97.5892C97.5103 53.465 96.7214 52.5183 95.0647 52.5183C93.4079 52.5183 92.5401 53.465 92.4612 55.1217Z" fill="#D1D1D1"/>
<path d="M109.186 47.2324C109.186 46.838 109.502 46.5224 109.896 46.5224H112.342C112.736 46.5224 113.052 46.838 113.052 47.2324V50.2303C117.312 50.3092 119.679 52.2815 119.679 56.2261C119.679 60.0918 117.312 62.143 113.052 62.2219V65.2197C113.052 65.6142 112.736 65.9298 112.342 65.9298H109.896C109.502 65.9298 109.186 65.6142 109.186 65.2197V62.2219C104.926 62.143 102.559 60.0918 102.559 56.2261C102.559 52.2815 104.926 50.3092 109.186 50.2303V47.2324ZM109.186 52.676C107.214 52.676 106.267 53.7804 106.267 56.305C106.267 58.8295 107.214 59.934 109.186 59.934V52.676ZM112.894 59.8551C114.867 59.8551 115.813 58.7506 115.813 56.2261C115.813 53.7015 114.867 52.6759 112.894 52.5971V59.8551Z" fill="#D1D1D1"/>
<path d="M131.276 50.3091C131.671 50.3091 131.986 50.6247 131.986 50.9403V52.2025C131.986 52.597 131.671 52.9126 131.276 52.9126H127.805V61.5907C127.805 61.9851 127.489 62.2218 127.095 62.2218H124.649C124.255 62.2218 123.939 61.9063 123.939 61.5907V52.9126H120.468C120.074 52.9126 119.758 52.597 119.758 52.2025V50.9403C119.758 50.5458 120.074 50.3091 120.468 50.3091" fill="#D1D1D1"/>
<path d="M140.664 54.2538C143.583 54.2538 145.555 55.2005 145.555 58.2773C145.555 61.3541 143.583 62.3008 140.664 62.3008H134.195C133.8 62.3008 133.485 61.9852 133.485 61.6696V51.0192C133.485 50.6248 133.8 50.3881 134.195 50.3881H136.641C137.035 50.3881 137.272 50.7037 137.272 51.0192V54.3327L140.664 54.2538ZM137.272 56.7784V59.8551H140.27C141.137 59.8551 141.69 59.3029 141.69 58.3562C141.69 57.4095 141.137 56.8573 140.27 56.8573H137.272V56.7784Z" fill="#D1D1D1"/>
</g>
<defs>
<clipPath id="clip0">
<rect width="145.161" height="65.4802" fill="white" transform="translate(0 0.291931)"/>
</clipPath>
</defs>
</svg>
