<svg width="81" height="82" viewBox="0 0 81 82" fill="none" xmlns="http://www.w3.org/2000/svg">
<path d="M40.2743 81.0239C62.4908 81.0239 80.5008 62.9804 80.5008 40.7226C80.5008 18.4649 62.4908 0.421387 40.2743 0.421387C18.0579 0.421387 0.0478516 18.4649 0.0478516 40.7226C0.0478516 62.9804 18.0579 81.0239 40.2743 81.0239Z" fill="#D1D1D1"/>
<path d="M40.2144 79.0837C61.4088 79.0837 78.5903 61.9022 78.5903 40.7078C78.5903 19.5134 61.4088 2.33197 40.2144 2.33197C19.02 2.33197 1.83859 19.5134 1.83859 40.7078C1.83859 61.9022 19.02 79.0837 40.2144 79.0837Z" fill="#D1D1D1"/>
<path d="M40.1499 75.6428C59.4908 75.6428 75.1696 60.0644 75.1696 40.8475C75.1696 21.6305 59.4908 6.05212 40.1499 6.05212C20.8091 6.05212 5.13025 21.6305 5.13025 40.8475C5.13025 60.0644 20.8091 75.6428 40.1499 75.6428Z" fill="white"/>
<path fill-rule="evenodd" clip-rule="evenodd" d="M43.6855 14.9142L43.0234 44.8288C44.2997 45.0362 45.7754 45.092 47.2351 45.2675C48.32 35.2165 49.2173 25.2907 50.3859 15.3988L43.6855 14.9142ZM27.4055 15.0957C27.1048 15.0976 26.8036 15.1044 26.5009 15.1152L26.7925 21.5743C27.9953 21.532 29.0658 21.6724 29.9831 21.8663C31.6411 22.2168 33.4123 22.9579 33.6217 24.8248C33.9444 27.71 31.3487 29.7209 28.107 29.8266L28.2941 33.3914C30.3979 33.5059 32.7403 34.1209 33.8239 35.6257C34.1821 36.123 34.4377 36.8062 34.4417 37.6533C34.4485 39.0532 33.7166 40.4177 32.7171 41.2672C31.4652 42.3281 29.4304 42.7628 27.4426 42.6511L27.4202 45.0043C32.9596 45.1279 38.1995 43.724 40.1 39.9311C40.5586 39.0182 40.9934 37.6159 40.9814 36.4856C40.9535 34.5384 40.084 33.2562 39.1866 32.4354C38.0735 31.4144 36.6142 30.7714 35.1576 30.3283C37.9806 29.0254 40.6025 26.7947 40.1478 23.0404C39.9524 21.4423 39.2744 19.9886 38.4763 18.9755C36.1384 16.0046 31.9127 15.0622 27.4055 15.0957Z" fill="#D1D1D1"/>
<path fill-rule="evenodd" clip-rule="evenodd" d="M25.4079 16.2996L17.7655 17.5399C19.4948 26.7925 21.3279 35.6239 23.0568 44.7289C24.1305 44.673 25.1682 44.6611 26.2555 44.5893C25.9244 35.2877 25.7649 25.1585 25.4079 16.2996ZM51.1356 16.4156L50.4934 23.3214C52.1486 23.6888 53.9115 24.3409 54.7171 25.7432C55.4669 27.0458 55.1638 28.8688 54.4459 29.8101C53.4608 31.1031 51.5703 31.8681 49.6359 32.3638C49.4724 33.5539 49.3568 34.7804 49.1773 35.9585L54.745 44.8406L58.3186 44.1865L54.8726 34.9622C58.4223 33.5224 61.1144 31.2594 62.0078 27.8869C62.9331 24.3831 61.6568 20.9236 59.4911 19.1026C57.4132 17.3577 54.3542 16.5688 51.1356 16.4156ZM42.0023 46.3482C41.8746 49.7024 41.6034 52.9449 41.4439 56.2751L45.0214 52.8172L46.9199 55.4775L48.5033 54.3966L46.3815 51.5051L48.1682 49.7781C47.7215 49.4072 47.2788 49.0363 46.8601 48.6295L43.5497 51.8441C43.6694 50.0374 43.8489 48.2825 43.9127 46.4359L42.0023 46.3482ZM50.1903 47.2655C49.5642 47.2974 49.0776 47.7959 49.1055 48.3862C49.1334 48.9725 49.6639 49.4272 50.29 49.3992C50.9202 49.3673 51.4028 48.8648 51.3749 48.2785C51.3509 47.6882 50.8165 47.2376 50.1903 47.2655ZM22.7828 47.3333L20.9163 47.5885L22.155 56.7498L24.0212 56.4985L23.9215 55.7607C24.4767 55.996 25.1016 56.0877 25.7454 56.0039C27.6251 55.7487 28.9544 54.0656 28.7091 52.2469C28.4638 50.4322 26.7353 49.1639 24.8556 49.4152C24.2118 49.5029 23.6351 49.7622 23.1613 50.1331L22.7828 47.3333ZM40.3949 48.5258C40.3591 48.5298 40.3192 48.5338 40.2833 48.5417C38.6812 49.0682 37.0443 49.7981 37.5301 51.6207C37.6482 52.0595 37.9684 52.6497 38.1962 53.1403C38.451 53.6907 38.8682 54.2331 38.863 54.6639C38.8546 55.3738 37.9453 55.7248 37.2964 55.8564C37.5142 56.2113 37.6406 56.6899 37.8608 57.0449C39.1107 56.7896 40.1317 56.2552 40.5864 55.4695C41.1527 54.4804 40.5266 53.599 40.0878 52.6577C39.8964 52.2429 39.4019 51.3336 39.3979 50.9627C39.3939 50.2767 40.2593 49.8699 40.9094 49.7781C40.8935 49.4152 40.5425 48.9366 40.3949 48.5258ZM52.9782 48.7252L52.6352 56.0598L54.5576 56.1395L54.6732 52.9409L59.0405 57.3799L59.3835 50.0454L57.4611 49.9656L57.3454 53.1602L52.9782 48.7252ZM34.6457 49.9417L34.6434 50.7154C34.1516 50.3684 33.5625 50.1411 32.9148 50.0852C31.0243 49.9257 29.362 51.2817 29.2084 53.1084C29.0557 54.9351 30.4684 56.5503 32.3588 56.7099C33.0065 56.7617 33.6251 56.6381 34.1675 56.3788L34.1057 57.1167L35.9826 57.2722L36.5223 50.1012L34.6457 49.9417ZM51.2871 49.9417L49.3647 50.0055L49.5642 56.1555L51.4905 56.0917L51.2871 49.9417ZM25.4291 51.1701C26.1956 51.2139 26.8421 51.7524 26.9419 52.4862C27.0551 53.3278 26.4114 54.1135 25.5061 54.2331C24.6007 54.3568 23.7719 53.7705 23.6583 52.9329C23.5446 52.0914 24.1887 51.3057 25.0941 51.182C25.2069 51.1701 25.3194 51.1661 25.4291 51.1701ZM32.766 51.864C33.6762 51.9398 34.359 52.6896 34.2884 53.5352C34.217 54.3807 33.4185 55.0069 32.5084 54.9311C31.5979 54.8553 30.915 54.1055 30.986 53.26C31.0574 52.4144 31.8559 51.7883 32.766 51.864ZM40.7938 56.6461L39.0947 56.6939L39.3301 65.0375L41.0291 64.9897L41.0092 64.3196C41.4838 64.5829 42.0381 64.7265 42.6244 64.7105C44.3354 64.6626 45.6915 63.2787 45.6436 61.6235C45.5997 59.9723 44.1679 58.6642 42.4569 58.712C41.8706 58.728 41.3282 58.9035 40.8656 59.1906L40.7938 56.6461ZM47.5221 56.6461C46.9478 56.6142 46.4572 57.009 46.4253 57.5315C46.3934 58.054 46.8321 58.5046 47.4025 58.5405C47.9768 58.5764 48.4634 58.1816 48.4993 57.6591C48.5312 57.1366 48.0925 56.682 47.5221 56.6461ZM49.4246 57.013L49.269 64.2957L51.0997 64.3715L51.0638 61.4081L55.1758 65.7794L55.3712 58.7599L53.6722 58.724L53.5605 61.7631L49.4246 57.013ZM32.4733 57.9183L32.248 66.266L33.9478 66.3098L33.9657 65.6398C34.4268 65.9269 34.9692 66.1024 35.5555 66.1184C37.2677 66.1662 38.6963 64.8581 38.741 63.2029C38.7853 61.5517 37.4296 60.1678 35.7174 60.1199C35.1311 60.104 34.5799 60.2515 34.1045 60.5148L34.1727 57.9662L32.4733 57.9183ZM23.5127 58.022L21.3885 58.2135L22.1044 65.9908L24.1895 65.8033L23.9007 62.6685C23.7209 61.2366 24.2988 59.9963 25.7968 60.1797L25.6337 58.2534C24.9441 58.1217 23.8573 58.5206 23.5789 58.8357L23.5127 58.022ZM59.0365 58.0699C57.5807 58.3132 56.3962 58.9832 56.1449 60.0082C55.9335 60.8857 56.5039 61.6833 56.819 62.4371C57.0144 62.9078 57.505 63.7613 57.5129 64.1761C57.5209 64.9179 56.6315 65.225 56.0093 65.3526C56.1569 65.8033 56.3324 66.2101 56.5198 66.601C57.7283 66.4095 58.6456 65.9429 59.0923 65.2808C59.7504 64.3037 59.0724 63.0553 58.6576 62.0742C58.4143 61.4959 58.0234 60.8498 58.0354 60.439C58.0593 59.7171 58.9527 59.4499 59.547 59.3183C59.4034 58.8636 59.196 58.4967 59.0365 58.0699ZM46.4532 58.7838L46.1142 64.2957L47.8412 64.4034L48.1802 58.8915L46.4532 58.7838ZM61.4215 59.406C61.242 59.418 61.0626 59.4618 60.8911 59.5416C60.6557 59.6493 60.4683 59.8088 60.3247 60.0282C60.1811 60.2475 60.0974 60.4828 60.0814 60.7301C60.0655 60.9774 60.1093 61.2167 60.221 61.452C60.3287 61.6833 60.4922 61.8708 60.7076 62.0144C60.923 62.154 61.1583 62.2337 61.4056 62.2537C61.6528 62.2696 61.8921 62.2218 62.1274 62.1141C62.3588 62.0024 62.5462 61.8429 62.6898 61.6235C62.8294 61.4081 62.9092 61.1768 62.9251 60.9295C62.9411 60.6823 62.8972 60.439 62.7855 60.2037C62.6738 59.9644 62.5063 59.7769 62.291 59.6413C62.0756 59.5017 61.8483 59.4259 61.605 59.41C61.5412 59.402 61.4813 59.402 61.4215 59.406ZM28.4499 59.6054C28.343 59.6094 28.2349 59.6214 28.1264 59.6333C26.3939 59.8686 25.1643 61.3922 25.3852 63.0314C25.607 64.6666 27.1967 65.8113 28.9297 65.576C30.6626 65.3407 31.8922 63.8171 31.6708 62.1819C31.463 60.6464 30.0532 59.5456 28.4499 59.6054ZM61.585 59.6932C61.7805 59.7051 61.9639 59.7689 62.1394 59.8766C62.3109 59.9883 62.4425 60.1359 62.5343 60.3273C62.626 60.5187 62.6619 60.7102 62.6499 60.9136C62.634 61.109 62.5702 61.2965 62.4585 61.472C62.3428 61.6435 62.1913 61.7751 62.0038 61.8628C61.8164 61.9506 61.6249 61.9904 61.4255 61.9745C61.2261 61.9625 61.0426 61.8987 60.8671 61.7831C60.6956 61.6714 60.564 61.5198 60.4763 61.3324C60.3885 61.1449 60.3526 60.9535 60.3646 60.7541C60.3806 60.5506 60.4444 60.3632 60.56 60.1877C60.6757 60.0122 60.8272 59.8846 61.0147 59.7969C61.1982 59.7131 61.3896 59.6772 61.585 59.6932ZM60.915 60.0441L60.8073 61.5438L61.1144 61.5677L61.1583 60.9495L61.238 60.9575C61.3218 60.9615 61.3936 60.9894 61.4454 61.0372C61.4973 61.0811 61.5611 61.1888 61.6329 61.3603L61.7406 61.6116L62.1235 61.6395L61.9679 61.3204C61.9121 61.2087 61.8762 61.1489 61.8682 61.133C61.8283 61.0731 61.7964 61.0293 61.7725 61.0093C61.7525 60.9854 61.7166 60.9654 61.6728 60.9455C61.8004 60.9375 61.9041 60.8937 61.9799 60.8219C62.0557 60.7501 62.0995 60.6623 62.1075 60.5507C62.1115 60.4749 62.0995 60.3991 62.0636 60.3313C62.0317 60.2675 61.9879 60.2156 61.932 60.1797C61.8802 60.1438 61.8044 60.1199 61.7007 60.104C61.6688 60.096 61.5053 60.084 61.2181 60.0641L60.915 60.0441ZM61.2022 60.3034L61.3298 60.3113C61.5013 60.3233 61.609 60.3393 61.6528 60.3552C61.6967 60.3752 61.7286 60.3991 61.7525 60.435C61.7725 60.4669 61.7845 60.5068 61.7805 60.5467C61.7765 60.5905 61.7605 60.6304 61.7326 60.6623C61.7087 60.6942 61.6728 60.7142 61.6289 60.7261C61.585 60.7341 61.4773 60.7341 61.2979 60.7222L61.1742 60.7142L61.2022 60.3034ZM42.5008 60.3233C43.3264 60.2994 44.0124 60.9016 44.0363 61.6714C44.0563 62.4371 43.4022 63.0753 42.5806 63.0992C41.755 63.1231 41.065 62.5209 41.045 61.7551C41.0211 60.9894 41.6752 60.3472 42.5008 60.3233ZM28.6608 61.1609C29.4075 61.1968 30.0344 61.6993 30.1277 62.3893C30.178 62.7602 30.0667 63.1311 29.8147 63.4382C29.5478 63.7653 29.159 63.9726 28.7211 64.0325C27.8388 64.1521 27.0352 63.6097 26.9283 62.82C26.8222 62.0343 27.4532 61.2965 28.3354 61.1768C28.4455 61.1609 28.5543 61.1569 28.6608 61.1609ZM35.6739 61.7312C36.4983 61.7551 37.152 62.3933 37.1313 63.159C37.1105 63.9288 36.4234 64.531 35.5994 64.5111C34.7746 64.4872 34.1209 63.845 34.1416 63.0793C34.1624 62.3135 34.8496 61.7073 35.6739 61.7312Z" fill="#D1D1D1"/>
</svg>
