<svg width="113" height="51" viewBox="0 0 113 51" fill="none" xmlns="http://www.w3.org/2000/svg">
<g clip-path="url(#clip0)">
<path d="M79.5434 4.99234V6.81146H95.1402C96.1799 6.81146 97.7396 6.81146 98.7794 7.8515C99.8191 8.89153 99.8191 10.4513 99.8191 11.491V27.0871C99.8191 28.1275 99.8191 29.6869 98.7794 30.727C97.7396 31.7667 96.1799 31.7667 95.1402 31.7667H87.6018C86.3021 31.7667 84.6122 31.7667 83.9626 30.3371C83.3128 28.9072 84.2223 27.6075 85.0023 26.5677L95.1402 13.0511H79.5434L73.3048 21.3688C72.2597 22.7618 71.3552 23.9683 71.3552 25.528C71.3552 27.0871 72.1973 28.2107 73.3048 29.6869L74.8645 31.7667C76.4239 33.8461 77.9837 35.9256 80.0634 36.9656C82.1429 38.0053 84.6122 38.0053 87.9917 38.0053H94.7503C98.6495 38.0053 104.498 38.0053 108.397 34.1061C112.297 30.2069 112.297 24.4883 112.297 22.4085V16.1699C112.297 14.0905 112.297 8.37152 108.397 4.47232C104.498 0.573131 98.6495 0.577858 94.7503 0.576597L83.9626 0.573131C82.9226 0.572815 81.6228 0.573131 80.5831 1.61348C79.5434 2.6532 79.5434 3.95294 79.5434 4.99234Z" fill="#D1D1D1"/>
<path d="M60.8271 13.0504H76.4239L57.7076 38.0053H42.1112L60.8271 13.0504Z" fill="#D1D1D1"/>
<path d="M0 17.4696C0 16.4299 0 15.1302 1.03972 14.0904C2.07944 13.0507 3.37917 13.0507 4.41921 13.0507H30.5437C33.9228 13.0507 36.3925 13.0507 38.4719 14.0904C40.5513 15.1302 42.1111 17.2093 43.6708 19.2894L45.2306 21.3688C46.3377 22.8453 47.1802 23.9683 47.1802 25.528C47.1802 27.0871 46.2753 28.2936 45.2306 29.6869L38.9919 38.005H23.3952L33.533 24.488C34.3127 23.4483 35.2226 22.1482 34.5727 20.7186C33.9228 19.2894 32.2333 19.2894 30.9335 19.2894H18.7162V50.4826H6.23865V19.2897H0V17.4696Z" fill="#D1D1D1"/>
</g>
<defs>
<clipPath id="clip0">
<rect width="112.198" height="49.7957" fill="white" transform="translate(0 0.572876)"/>
</clipPath>
</defs>
</svg>
