<svg width="126" height="59" viewBox="0 0 126 59" fill="none" xmlns="http://www.w3.org/2000/svg">
<g clip-path="url(#clip0)">
<path d="M75.0683 7.02496C75.8466 8.0448 76.5056 9.15276 77.0317 10.3266L62.1065 21.4768L55.8689 17.5141V12.7467L62.1065 16.7095L75.0683 7.02496Z" fill="#21A038"/>
<path d="M49.5029 17.1775C49.5029 16.9636 49.508 16.7511 49.5183 16.5398L45.7381 16.3521C45.7253 16.6259 45.7175 16.9023 45.7175 17.1813C45.7159 19.3614 46.139 21.5202 46.9626 23.5341C47.7862 25.5481 48.994 27.3773 50.5167 28.917L53.1981 26.2009C52.0259 25.0178 51.0961 23.6115 50.4619 22.0629C49.8277 20.5144 49.5018 18.8541 49.5029 17.1775Z" fill="url(#paint0_linear)"/>
<path d="M62.1031 4.40783C62.314 4.40783 62.5237 4.41565 62.7321 4.42608L62.9213 0.593729C62.6503 0.580689 62.3775 0.57417 62.1031 0.57417C59.9509 0.57151 57.8196 0.999697 55.8313 1.83414C53.843 2.66859 52.0369 3.89286 50.5167 5.43666L53.1981 8.15412C54.3656 6.96579 55.7533 6.02305 57.2816 5.38013C58.8098 4.73721 60.4483 4.40677 62.1031 4.40783Z" fill="url(#paint1_linear)"/>
<path d="M62.103 29.9475C61.892 29.9475 61.6823 29.9475 61.4726 29.9306L61.2834 33.7616C61.5553 33.7755 61.8286 33.7825 62.103 33.7825C64.2542 33.7848 66.3845 33.3563 68.3718 32.5216C70.359 31.6869 72.1639 30.4625 73.6829 28.9187L71.0067 26.2026C69.839 27.3903 68.4514 28.3325 66.9235 28.9752C65.3955 29.6179 63.7573 29.9483 62.103 29.9475Z" fill="url(#paint2_linear)"/>
<path d="M69.2053 6.63628L72.391 4.25654C69.4792 1.86697 65.8446 0.566182 62.0978 0.57284V4.4078C64.6349 4.40461 67.1132 5.18166 69.2053 6.63628Z" fill="url(#paint3_linear)"/>
<path d="M78.4872 17.1774C78.4892 16.1798 78.4031 15.1839 78.2298 14.2018L74.7032 16.8358C74.7032 16.9493 74.7032 17.0627 74.7032 17.1774C74.7041 18.9616 74.335 20.7261 73.62 22.3565C72.905 23.9869 71.8598 25.4468 70.5524 26.6416L73.0961 29.4908C74.7959 27.9357 76.1541 26.036 77.0828 23.9148C78.0116 21.7935 78.49 19.4981 78.4872 17.1774Z" fill="#21A038"/>
<path d="M62.1032 29.9473C60.3425 29.9479 58.6014 29.5738 56.9924 28.8492C55.3836 28.1246 53.9428 27.0655 52.7633 25.7407L49.9533 28.3174C51.4876 30.0402 53.362 31.417 55.4551 32.3585C57.5482 33.2999 59.8131 33.785 62.1032 33.7822V29.9473Z" fill="url(#paint4_linear)"/>
<path d="M53.6536 7.71318L51.1112 4.86401C49.411 6.41883 48.0522 8.31846 47.123 10.4397C46.1938 12.5609 45.715 14.8564 45.7175 17.1773H49.5029C49.5021 15.3932 49.8712 13.6287 50.5862 11.9984C51.3012 10.368 52.3463 8.9081 53.6536 7.71318Z" fill="url(#paint5_linear)"/>
<path d="M39.0878 45.8055L42.5485 43.2509H30.9663V58.6021H42.5485V56.0474H34.2712V52.1152H41.3321V49.5606H34.2712V45.8055H39.0878Z" fill="#21A038"/>
<path d="M23.1732 49.2311H19.1521V45.8044H25.5696L29.0282 43.242H15.8492V58.5932H22.7478C26.6155 58.5932 28.8352 56.8368 28.8352 53.7736C28.8352 50.8431 26.8247 49.2311 23.1732 49.2311ZM22.5991 56.0378H19.1521V51.7842H22.5991C24.691 51.7842 25.6718 52.497 25.6718 53.911C25.6718 55.325 24.6282 56.0378 22.5991 56.0378Z" fill="#21A038"/>
<path d="M51.0623 43.2486H44.7578V58.5998H48.0622V54.2511H51.0623C55.0847 54.2511 57.5729 52.1303 57.5729 48.7416C57.5729 45.3531 55.0847 43.2486 51.0623 43.2486ZM50.9926 51.6945H48.0622V45.8052H50.9926C53.1083 45.8052 54.276 46.8516 54.276 48.751C54.276 50.6504 53.1083 51.6945 50.9926 51.6945Z" fill="#21A038"/>
<path d="M10.8902 54.9769C10.0366 55.4401 9.08015 55.6799 8.10951 55.6743C5.20427 55.6743 3.09668 53.596 3.09668 50.7343C3.09668 47.8726 5.20427 45.7899 8.10951 45.7899C9.1572 45.772 10.1831 46.0904 11.0375 46.6984L13.349 44.9927L13.1926 44.8814C11.8443 43.6935 10.0426 43.0644 7.98038 43.0644C5.74359 43.0644 3.71537 43.8184 2.26725 45.1903C1.53501 45.8966 0.955972 46.7466 0.566023 47.6872C0.176149 48.6277 -0.0162399 49.6387 0.00107286 50.6571C-0.0144412 51.6858 0.17705 52.7071 0.564076 53.6601C0.951102 54.613 1.52572 55.478 2.25368 56.2035C3.70855 57.6298 5.73227 58.4156 7.95317 58.4156C10.2738 58.4156 12.302 57.6047 13.6754 56.1285L11.6063 54.5841L10.8902 54.9769Z" fill="#21A038"/>
<path d="M70.6758 49.2311H66.6564V45.8044H75.2941V43.242H63.3513V58.5932H70.2411C74.1084 58.5932 76.3283 56.8368 76.3283 53.7736C76.3373 50.8431 74.3272 49.2311 70.6758 49.2311ZM70.1017 56.0378H66.6564V51.7842H70.1017C72.1935 51.7842 73.1738 52.497 73.1738 53.911C73.1738 55.325 72.1395 56.0378 70.1017 56.0378Z" fill="#21A038"/>
<path d="M113.898 58.5713H110.548V43.2201H113.898V49.6677H115.721L120.645 43.2201H124.442L118.602 50.5229L125.383 58.5713H120.938L115.954 52.5338H113.898V58.5713Z" fill="#21A038"/>
<path d="M88.4999 55.6539H81.4129L80.2115 58.6349H76.6462L83.2933 43.2838H86.8578L93.3969 58.6349H89.7013L88.4999 55.6539ZM87.3899 52.8724L84.9773 46.9103L82.5513 52.8724H87.3899Z" fill="#21A038"/>
<path d="M97.9071 43.2838V49.6941H104.84V43.2838H108.294V58.6349H104.84V52.5861H97.9071V58.6349H94.4528V43.2838H97.9071Z" fill="#21A038"/>
</g>
<defs>
<linearGradient id="paint0_linear" x1="51.2823" y1="28.4385" x2="47.0472" y2="16.3583" gradientUnits="userSpaceOnUse">
<stop offset="0.14" stop-color="#F1E813"/>
<stop offset="0.3" stop-color="#E6E418"/>
<stop offset="0.58" stop-color="#C9DA26"/>
<stop offset="0.89" stop-color="#A2CC39"/>
</linearGradient>
<linearGradient id="paint1_linear" x1="51.5975" y1="6.11472" x2="62.2854" y2="2.0958" gradientUnits="userSpaceOnUse">
<stop offset="0.06" stop-color="#0FA7DF"/>
<stop offset="0.54" stop-color="#0098F8"/>
<stop offset="0.92" stop-color="#0290EA"/>
</linearGradient>
<linearGradient id="paint2_linear" x1="61.0339" y1="31.4679" x2="73.0949" y2="28.7794" gradientUnits="userSpaceOnUse">
<stop offset="0.12" stop-color="#A2CC39"/>
<stop offset="0.28" stop-color="#86C239"/>
<stop offset="0.87" stop-color="#219F38"/>
</linearGradient>
<linearGradient id="paint3_linear" x1="61.3104" y1="1.85725" x2="71.6324" y2="5.00028" gradientUnits="userSpaceOnUse">
<stop offset="0.06" stop-color="#0290EA"/>
<stop offset="0.79" stop-color="#0C89CA"/>
</linearGradient>
<linearGradient id="paint4_linear" x1="50.9029" y1="27.8505" x2="62.1485" y2="31.9976" gradientUnits="userSpaceOnUse">
<stop offset="0.13" stop-color="#F1E813"/>
<stop offset="0.3" stop-color="#EAE616"/>
<stop offset="0.53" stop-color="#D8DF1F"/>
<stop offset="0.8" stop-color="#BAD52D"/>
<stop offset="0.98" stop-color="#A2CC39"/>
</linearGradient>
<linearGradient id="paint5_linear" x1="47.1277" y1="17.6415" x2="51.733" y2="5.82064" gradientUnits="userSpaceOnUse">
<stop offset="0.07" stop-color="#A2CC39"/>
<stop offset="0.26" stop-color="#81C45E"/>
<stop offset="0.92" stop-color="#0FA7DF"/>
</linearGradient>
<clipPath id="clip0">
<rect width="125.161" height="57.7092" fill="white" transform="translate(0 0.572876)"/>
</clipPath>
</defs>
</svg>
