<svg width="153" height="60" viewBox="0 0 153 60" fill="none" xmlns="http://www.w3.org/2000/svg">
<g clip-path="url(#clip0)">
<path d="M0 58.5402V16.0559C0 9.8447 5.31552 5.15527 11.3771 5.15527C17.3454 5.15527 22.8163 9.99998 22.8163 16.118V58.5092H16.848V39.7825H5.87505V58.5092H0V58.5402ZM16.848 15.6521C16.848 12.7018 14.0815 10.9627 11.3771 10.9627C8.67269 10.9627 5.87505 12.7018 5.87505 15.6521V34.2235H16.848V15.6521Z" fill="black"/>
<path d="M38.3277 26.056C35.3746 26.056 32.9189 28.1367 32.9189 31.1491V58.4472H26.9506V30.9939C26.9506 24.6274 32.2972 20.2485 38.3899 20.2485C39.5089 20.2485 40.628 20.3417 41.747 20.6523V26.615C40.628 26.2113 39.5089 26.056 38.3277 26.056Z" fill="black"/>
<path d="M56.2948 59.0683C50.4198 59.0683 44.7623 54.6895 44.7623 48.5715V11.1492H50.7306L50.6685 21.1802H57.2585V26.8324H50.7306L50.6685 48.5094C50.6685 51.4597 53.6837 53.4472 56.3881 53.4472C57.5071 53.4472 58.6884 53.292 59.8074 53.0435V58.6957C58.6884 59.0062 57.5071 59.0683 56.2948 59.0683Z" fill="black"/>
<path d="M64.9674 58.447V26.7701H60.5845V21.1179H70.8425V58.447H64.9674Z" fill="black"/>
<path d="M110.973 46.8634H105.72V48.5093C105.72 51.4596 108.486 53.5093 111.284 53.5093C113.522 53.5093 117.159 52.3913 119.335 51.677C119.49 53.5714 119.739 55.4969 119.988 57.3913C117.128 58.6025 114.33 59.0683 111.222 59.0683C105.254 59.0683 99.6894 54.5342 99.6894 48.3541V31.3665C99.6894 25.1554 105.254 20.2485 111.315 20.2485C118.962 20.2485 122.941 25.8075 122.941 32.7951C122.879 39.8758 118.744 46.8634 110.973 46.8634ZM111.191 25.6522C108.269 25.6522 105.72 28.1057 105.72 31.056V41.1491H111.129C115.418 41.1491 117.004 36.3976 117.004 32.7951C117.004 29.2858 115.418 25.6522 111.191 25.6522Z" fill="black"/>
<path d="M95.524 16.2733V58.4472H89.6489V16.2733H81.9399V11.1802H103.233V16.3044H95.524V16.2733Z" fill="black"/>
<path d="M66.5217 0C61.3616 0 57.1652 4.19254 57.1652 9.34781C57.1652 14.5031 61.3616 18.6956 66.5217 18.6956C71.6818 18.6956 75.8783 14.5031 75.8783 9.34781C75.8783 4.19254 71.6818 0 66.5217 0Z" fill="#0079BE"/>
<path d="M153 60.0001L147.156 53.7579C148.275 52.0809 148.928 50.1244 148.928 48.0126V31.5841C148.928 25.466 143.426 20.6213 137.489 20.6213C131.427 20.6213 126.112 25.3108 126.112 31.5219V48.1058C126.112 54.3169 131.427 58.9753 137.489 58.9753C139.291 58.9753 141.063 58.5095 142.649 57.7331L144.762 60.0001H153ZM137.52 53.1679C134.815 53.1679 132.018 51.4287 132.018 48.4784V31.1182C132.018 28.1679 134.815 26.4288 137.52 26.4288C140.224 26.4288 142.991 28.1679 142.991 31.1182V48.4784C142.991 48.7269 142.96 48.9443 142.897 49.1927L141.592 47.7952H133.354L138.328 53.1058C138.048 53.1368 137.768 53.1679 137.52 53.1679Z" fill="#000822"/>
</g>
<defs>
<clipPath id="clip0">
<rect width="153" height="60" fill="white"/>
</clipPath>
</defs>
</svg>
