<svg width="89" height="60" viewBox="0 0 89 60" fill="none" xmlns="http://www.w3.org/2000/svg">
<g clip-path="url(#clip0)">
<path d="M14.8027 1.97472V18.3369H10.7517V12.2594H4.12877V18.4139H0.0777588V2.05278H4.12877V8.59765H10.7517V2.05278H14.8027V1.97472ZM61.5484 18.3359H57.4974V10.1548L53.8357 15.765H51.575L47.9143 10.0777V18.3359H43.8633V1.97472H46.9016L52.6668 10.7012L58.4321 1.97472H61.4704V18.3369L61.5484 18.3359ZM29.3715 1.27421C22.9047 1.27421 17.6848 6.25991 17.6848 12.4155C17.6848 14.5961 18.3083 16.6226 19.4772 18.3359H25.0863C23.3731 17.0119 22.2823 14.9864 22.2823 12.6487C22.2823 8.75275 25.4756 5.55939 29.3715 5.55939C33.2674 5.55939 36.4618 8.75275 36.4618 12.6487C36.4618 14.9864 35.371 17.0119 33.6567 18.3359H39.2659C40.3567 16.6226 41.0582 14.5961 41.0582 12.4155C41.0572 6.25991 35.8363 1.27319 29.3715 1.27319V1.27421Z" fill="#D1D1D1"/>
<path d="M68.9506 5.5594V8.5196H76.196V11.9471H68.9506V14.7522H77.2087V18.2578H64.8205V1.89667H77.2087V5.40328H68.9506V5.5594ZM14.633 54.3682C14.633 57.0952 12.4514 58.8865 8.78968 58.8865H0.531549V42.5253H8.32233C11.906 42.5253 13.9325 44.2396 13.9325 46.8886C13.9325 48.3687 13.0749 50.0049 11.6718 50.4723C13.6203 50.9396 14.633 52.6539 14.633 54.3682ZM4.58256 45.8758V49.3034H7.62183C9.17999 49.3034 10.0366 48.5248 10.0366 47.5121C10.0366 46.4983 9.17999 45.9539 7.62183 45.9539H4.58256V45.8758ZM10.6601 53.8228C10.6601 52.809 9.80243 52.2646 8.32233 52.2646H4.58256V55.537H8.24428C9.8805 55.537 10.6601 54.8355 10.6601 53.8228ZM27.1764 56.0824H20.2422L19.1524 58.8865H14.7891L21.7233 42.5253H25.6182L32.5523 58.8875H28.1891L27.1764 56.0824ZM25.8524 52.7319L23.6707 47.1998L21.4891 52.7319H25.8524ZM48.9916 42.5253V58.8875H45.8752L38.0064 49.9268V58.8865H33.9554V42.5253H37.0717L44.9406 51.7192V42.5253H48.9916ZM58.8859 52.81L56.4711 55.6141V58.9656H52.4191V42.6034H56.4711V50.083L63.015 42.6034H67.8456L61.6129 49.7707L68.391 58.9656H63.3272L58.8859 52.81ZM29.2921 38.6112L26.1758 33.8587H23.1375V38.6112H19.0084V30.4306V22.25H26.1758C30.2278 22.25 32.9538 24.4317 32.9538 28.0153C32.9538 30.1189 31.9411 31.9112 30.2268 32.924L34.0446 38.6112H29.2921ZM23.0595 30.276H26.0987C27.6569 30.276 28.9028 29.4194 28.9028 28.0944C28.9028 26.7704 27.6559 25.9128 26.0987 25.9128H23.0595V30.276ZM40.1221 25.8347V28.7949H47.3675V32.2225H40.1221V35.0275H48.3803V38.5331H35.9921V22.172H48.3803V25.6786H40.1221V25.8347ZM66.5338 30.4311C66.5338 35.2617 62.872 38.6893 57.7292 38.6893H51.1854V22.3281H57.7292C62.794 22.25 66.5338 25.6005 66.5338 30.4311ZM62.4037 30.4311C62.4037 27.9373 60.3782 25.9908 57.7302 25.9908H55.2364V35.0275H57.7302C60.3782 34.9495 62.4037 33.002 62.4037 30.4311ZM72.7664 22.25V38.6122H68.7144V22.249L72.7664 22.25ZM88.348 25.9118H83.6735V38.6112H79.6225V25.9118H74.948V22.25H88.348V25.9118ZM12.3865 32.7679C11.7631 34.248 10.4381 35.1837 8.64573 35.1837C5.99778 35.1837 4.12738 33.2352 4.12738 30.5092C4.12738 27.7822 5.99778 25.8347 8.64675 25.8347C10.4381 25.8347 11.7631 26.6913 12.3865 28.2495H16.6707C15.8141 24.5097 12.7758 22.0169 8.64675 22.0169C3.73809 22.0169 -0.000671387 25.6005 -0.000671387 30.5092C-0.000671387 35.4168 3.73809 39.0005 8.64675 39.0005C12.7758 39.0005 15.8141 36.5076 16.6707 32.7679H12.3865Z" fill="#D1D1D1"/>
<path d="M29.3723 17.0901C27.581 17.0901 26.0998 15.9213 25.5544 14.285H33.1901C32.6447 15.9213 31.1646 17.0901 29.3723 17.0901Z" fill="#D1D1D1"/>
</g>
<defs>
<clipPath id="clip0">
<rect width="88.1976" height="58.7984" fill="white" transform="translate(0 0.572876)"/>
</clipPath>
</defs>
</svg>
