<svg width="91" height="68" viewBox="0 0 91 68" fill="none" xmlns="http://www.w3.org/2000/svg">
<path fill-rule="evenodd" clip-rule="evenodd" d="M22.0954 37.3201L22.8337 38.4286L22.9927 38.4286L23.5235 38.8225C24.5212 39.5629 25.7537 40.0001 27.0942 40.0001C28.4347 40.0001 29.6673 39.5629 30.665 38.8225L31.1958 38.4286L31.3548 38.4286L32.093 37.3201C32.7256 36.3702 33.0942 35.2312 33.0942 34.0001C33.0942 32.7689 32.7256 31.6299 32.093 30.6801L31.3548 29.5715L31.1957 29.5715L30.6649 29.1776C29.6673 28.4373 28.4347 28.0001 27.0942 28.0001C25.7538 28.0001 24.5212 28.4373 23.5236 29.1776L22.9927 29.5715L22.8337 29.5715L22.0955 30.6801C21.4629 31.6299 21.0942 32.7689 21.0942 34.0001C21.0942 35.2312 21.4629 36.3702 22.0954 37.3201ZM18.1264 29.5715L6.92857 29.5715C4.48274 29.5715 2.5 31.5542 2.5 34.0001C2.5 36.4459 4.48274 38.4286 6.92857 38.4286L18.1263 38.4286L20.4308 38.4286C20.0229 37.8162 19.6972 37.1442 19.4695 36.4286C19.2258 35.6627 19.0942 34.8468 19.0942 34.0001C19.0942 33.1534 19.2258 32.3374 19.4695 31.5715C19.6972 30.8559 20.0229 30.184 20.4308 29.5715L18.1264 29.5715ZM31.8567 27.5715L33.7577 27.5715L84.0714 27.5715C87.6218 27.5715 90.5 30.4497 90.5 34.0001C90.5 37.5505 87.6218 40.4286 84.0714 40.4286L33.7577 40.4286L31.8568 40.4286C30.5262 41.416 28.8784 42.0001 27.0942 42.0001C25.31 42.0001 23.6623 41.416 22.3317 40.4286L20.4308 40.4286L6.92857 40.4286C3.37817 40.4286 0.499998 37.5505 0.499999 34.0001C0.499999 30.4497 3.37817 27.5715 6.92857 27.5715L20.4308 27.5715L22.3317 27.5715C23.6623 26.5841 25.3101 26.0001 27.0942 26.0001C28.8784 26.0001 30.5262 26.5841 31.8567 27.5715ZM34.719 31.5715C34.4912 30.8559 34.1655 30.184 33.7577 29.5715L36.0621 29.5715L84.0714 29.5715C86.5173 29.5715 88.5 31.5542 88.5 34.0001C88.5 36.4459 86.5173 38.4286 84.0714 38.4286L36.0621 38.4286L33.7577 38.4286C34.1656 37.8162 34.4912 37.1442 34.719 36.4286C34.9627 35.6627 35.0942 34.8468 35.0942 34.0001C35.0942 33.1534 34.9627 32.3374 34.719 31.5715ZM64.6662 11.4877L65.4045 12.5963L65.5635 12.5963L66.0943 12.9902C67.092 13.7305 68.3245 14.1677 69.665 14.1677C71.0055 14.1677 72.2381 13.7305 73.2358 12.9902L73.7666 12.5963L73.9256 12.5963L74.6638 11.4877C75.2964 10.5378 75.665 9.39887 75.665 8.16772C75.665 6.93656 75.2964 5.79758 74.6638 4.8477L73.9256 3.73913L73.7665 3.73913L73.2357 3.34524C72.2381 2.60494 71.0055 2.16772 69.665 2.16772C68.3246 2.16772 67.092 2.60494 66.0944 3.34524L65.5635 3.73913L65.4045 3.73913L64.6663 4.8477C64.0337 5.79758 63.665 6.93656 63.665 8.16772C63.665 9.39887 64.0337 10.5378 64.6662 11.4877ZM60.6972 3.73913L6.92857 3.73913C4.48274 3.73913 2.5 5.72187 2.5 8.1677C2.5 10.6135 4.48274 12.5963 6.92857 12.5963L60.6971 12.5963L63.0016 12.5963C62.5937 11.9838 62.268 11.3119 62.0403 10.5963C61.7966 9.83036 61.665 9.0144 61.665 8.16772C61.665 7.32103 61.7966 6.50506 62.0403 5.73913C62.268 5.02354 62.5937 4.35162 63.0016 3.73913L60.6972 3.73913ZM74.4275 1.73913L76.3285 1.73913L84.0714 1.73913C87.6218 1.73913 90.5 4.6173 90.5 8.16771C90.5 11.7181 87.6218 14.5963 84.0714 14.5963L76.3285 14.5963L74.4276 14.5963C73.097 15.5837 71.4492 16.1677 69.665 16.1677C67.8808 16.1677 66.2331 15.5837 64.9025 14.5963L63.0016 14.5963L6.92857 14.5963C3.37817 14.5963 0.499999 11.7181 0.5 8.1677C0.5 4.6173 3.37817 1.73913 6.92857 1.73913L63.0016 1.73913L64.9025 1.73913C66.2331 0.751782 67.8809 0.167724 69.665 0.167724C71.4492 0.167724 73.097 0.751782 74.4275 1.73913ZM77.2898 5.73913C77.062 5.02354 76.7363 4.35162 76.3285 3.73913L78.6329 3.73913L84.0714 3.73913C86.5173 3.73913 88.5 5.72187 88.5 8.16771C88.5 10.6135 86.5173 12.5963 84.0714 12.5963L78.6329 12.5963L76.3285 12.5963C76.7364 11.9838 77.062 11.3119 77.2898 10.5963C77.5335 9.83036 77.665 9.0144 77.665 8.16772C77.665 7.32103 77.5335 6.50506 77.2898 5.73913ZM65.4045 64.2658L64.6663 63.1572C64.0337 62.2073 63.665 61.0683 63.665 59.8372C63.665 58.606 64.0337 57.4671 64.6663 56.5172L65.4045 55.4086L65.5635 55.4086L66.0943 55.0147C67.092 54.2744 68.3245 53.8372 69.665 53.8372C71.0055 53.8372 72.2381 54.2744 73.2357 55.0147L73.7665 55.4086L73.9256 55.4086L74.6638 56.5172C75.2964 57.4671 75.665 58.606 75.665 59.8372C75.665 61.0683 75.2964 62.2073 74.6638 63.1572L73.9256 64.2658L73.7666 64.2658L73.2357 64.6597C72.2381 65.4 71.0055 65.8372 69.665 65.8372C68.3245 65.8372 67.092 65.4 66.0943 64.6597L65.5635 64.2658L65.4045 64.2658ZM6.92857 55.4086L60.6972 55.4086L63.0016 55.4086C62.5937 56.0211 62.268 56.693 62.0403 57.4086C61.7966 58.1745 61.665 58.9905 61.665 59.8372C61.665 60.6839 61.7966 61.4998 62.0403 62.2658C62.268 62.9814 62.5937 63.6533 63.0016 64.2658L60.6971 64.2658L6.92857 64.2658C4.48274 64.2658 2.5 62.283 2.5 59.8372C2.5 57.3913 4.48274 55.4086 6.92857 55.4086ZM76.3285 53.4086L74.4275 53.4086C73.097 52.4213 71.4492 51.8372 69.665 51.8372C67.8809 51.8372 66.2331 52.4213 64.9025 53.4086L63.0016 53.4086L6.92857 53.4086C3.37817 53.4086 0.499998 56.2868 0.499997 59.8372C0.499997 63.3876 3.37817 66.2658 6.92857 66.2658L63.0016 66.2658L64.9025 66.2658C66.2331 67.2531 67.8809 67.8372 69.665 67.8372C71.4492 67.8372 73.097 67.2531 74.4276 66.2658L76.3285 66.2658L84.0714 66.2658C87.6218 66.2658 90.5 63.3876 90.5 59.8372C90.5 56.2868 87.6218 53.4086 84.0714 53.4086L76.3285 53.4086ZM76.3285 55.4086C76.7364 56.0211 77.062 56.693 77.2898 57.4086C77.5335 58.1745 77.665 58.9905 77.665 59.8372C77.665 60.6839 77.5335 61.4998 77.2898 62.2658C77.062 62.9814 76.7364 63.6533 76.3285 64.2658L78.6329 64.2658L84.0714 64.2658C86.5173 64.2658 88.5 62.283 88.5 59.8372C88.5 57.3913 86.5173 55.4086 84.0714 55.4086L78.6329 55.4086L76.3285 55.4086Z" fill="#0079BE"/>
</svg>
